<?xml version="1.0" encoding="UTF-8" standalone="no"?>
<svg width="50px" height="50px" viewBox="0 0 50 50" version="1.1" xmlns="http://www.w3.org/2000/svg" xmlns:xlink="http://www.w3.org/1999/xlink">
    <!-- Generator: sketchtool 42 (36781) - http://www.bohemiancoding.com/sketch -->
    <title>A5F7E17F-2C89-4F2A-901A-023C78C2AC5B</title>
    <desc>Created with sketchtool.</desc>
    <defs></defs>
    <g id="Symbols" stroke="none" stroke-width="1" fill="none" fill-rule="evenodd">
        <g id="module/gesundheitsratgeber_footer" transform="translate(-387.000000, -36.000000)">
            <g id="247" transform="translate(387.000000, 36.000000)">
                <path d="M24.9528873,49.9057042 C38.7338732,49.9057042 49.9057042,38.7338732 49.9057042,24.9528873 C49.9057042,11.1719014 38.7338732,7.04225354e-05 24.9528873,7.04225354e-05 C11.1719014,7.04225354e-05 7.0422536e-05,11.1719014 7.0422536e-05,24.9528873 C7.0422536e-05,38.7338732 11.1719014,49.9057042 24.9528873,49.9057042" id="Fill-1" fill="#F08400"></path>
                <path d="M18.880493,35.6725352 L10.8135915,35.6725352 C9.66570423,35.6725352 8.98330986,34.5866197 8.98330986,33.5316901 C8.98330986,33.128169 9.04457746,32.756338 9.2621831,32.4147887 L16.3051408,21.0591549 C16.6776761,20.4380282 16.6776761,20.0971831 16.6776761,19.6316901 L16.6776761,19.3838028 C16.6776761,18.4528169 15.8706338,17.6147887 14.8164085,17.6147887 L14.7227465,17.6147887 C13.6988028,17.6147887 12.9234507,18.421831 12.9234507,19.3838028 L12.9234507,19.7246479 C12.9234507,20.9035211 12.0234507,21.493662 11.1234507,21.493662 C10.2241549,21.493662 9.32415493,20.9035211 9.32415493,19.7246479 L9.32415493,19.2591549 C9.32415493,16.25 11.7755634,14.0471831 14.7227465,14.0471831 L14.8164085,14.0471831 C17.7326056,14.0471831 20.2769718,16.2183099 20.2769718,19.2591549 L20.2459859,19.6007042 C20.2459859,20.7795775 19.8114789,21.7415493 19.1600704,22.8274648 L13.4819014,32.1042254 L18.880493,32.1042254 C20.0903521,32.1042254 20.6797887,33.0042254 20.6797887,33.8732394 C20.6797887,34.7732394 20.0903521,35.6725352 18.880493,35.6725352" id="Fill-4" fill="#FEFEFE"></path>
                <path d="M34.8762676,31.4219718 L32.9980986,31.4219718 L32.9980986,34.0592958 C32.9980986,35.2691549 32.0980986,35.8585915 31.1980986,35.8585915 C30.2980986,35.8585915 29.3988028,35.2691549 29.3988028,34.0592958 L29.3988028,31.4219718 L24.5276761,31.4219718 C23.286831,31.4219718 22.5107746,30.7388732 22.5107746,29.5290141 C22.5107746,29.2191549 22.5727465,28.8156338 22.6966901,28.5360563 L28.4988028,15.1325352 C28.8403521,14.3571831 29.4607746,14.0466197 30.0811972,14.0466197 C31.0121831,14.0466197 31.943169,14.7607042 31.943169,15.7846479 C31.943169,16.0325352 31.9114789,16.2811268 31.7875352,16.56 L26.6685211,27.853662 L29.3988028,27.853662 L29.3988028,26.0543662 C29.3988028,24.875493 30.2980986,24.2543662 31.1980986,24.2543662 C32.0980986,24.2543662 32.9980986,24.844507 32.9980986,26.0543662 L32.9980986,27.853662 L34.8762676,27.853662 C36.0861268,27.853662 36.6762676,28.7226761 36.6762676,29.6219718 C36.6762676,30.5219718 36.0861268,31.4219718 34.8762676,31.4219718" id="Fill-6" fill="#FEFEFE"></path>
                <path d="M41.7546479,14.6233099 L38.3123944,14.6233099 C37.8623944,14.6233099 37.4947887,14.9916197 37.4947887,15.4416197 C37.4947887,15.8852817 37.8546479,16.2451408 38.2983099,16.2451408 L40.7250704,16.2451408 L38.4961972,23.3972535 C38.4539437,23.4958451 38.4539437,23.5803521 38.4539437,23.6648592 C38.4539437,24.1585211 38.8771831,24.455 39.3004225,24.455 C39.6102817,24.455 39.9208451,24.2859859 40.0476056,23.876831 L42.4595775,16.1747183 C42.5025352,16.0338732 42.558169,15.8366901 42.558169,15.6810563 L42.558169,15.4416197 C42.558169,15.0042958 42.1778873,14.6233099 41.7546479,14.6233099" id="Fill-8" fill="#FEFEFE"></path>
                <path d="M39.2999296,24.8153521 C38.7069718,24.8153521 38.0935915,24.3850704 38.0935915,23.6653521 C38.0935915,23.5625352 38.0935915,23.4223944 38.1647183,23.255493 L40.2351408,16.605493 L38.2985211,16.605493 C37.6562676,16.605493 37.1344366,16.083662 37.1344366,15.4414085 C37.1344366,14.7914085 37.6633099,14.2632394 38.3126056,14.2632394 L41.7548592,14.2632394 C42.3745775,14.2632394 42.9189437,14.8139437 42.9189437,15.4414085 L42.9189437,15.6815493 C42.9189437,15.8723944 42.8640141,16.0808451 42.8055634,16.2780282 L40.3914789,23.9843662 C40.2323239,24.496338 39.8147183,24.8153521 39.2999296,24.8153521 L39.2999296,24.8153521 Z M38.3126056,14.983662 C38.060493,14.983662 37.8548592,15.1885915 37.8548592,15.4414085 C37.8548592,15.6857746 38.0541549,15.8850704 38.2985211,15.8850704 L41.2147183,15.8850704 L38.8400704,23.5040845 C38.8154225,23.5674648 38.8147183,23.5928169 38.8147183,23.6653521 C38.8147183,23.9780282 39.1119014,24.0949296 39.2999296,24.0949296 C39.4379577,24.0949296 39.6203521,24.0385915 39.7034507,23.7695775 L42.1161268,16.0674648 C42.1400704,15.9885915 42.1978169,15.7928169 42.1978169,15.6815493 L42.1978169,15.4414085 C42.1978169,15.2061972 41.9830282,14.983662 41.7548592,14.983662 L38.3126056,14.983662 Z" id="Fill-10" fill="#FEFEFE"></path>
            </g>
        </g>
    </g>
</svg>