<svg width="40" height="40" viewBox="0 0 40 40" fill="none" xmlns="http://www.w3.org/2000/svg">
<g filter="url(#filter0_d_2594_9203)">
<rect x="4" y="2" width="32" height="32" rx="8" fill="#4197D3" fill-opacity="0.2" shape-rendering="crispEdges"/>
<rect x="4.25" y="2.25" width="31.5" height="31.5" rx="7.75" stroke="#4197D3" stroke-width="0.5" shape-rendering="crispEdges"/>
<path d="M16 22.5C16 22.9125 16.3375 23.25 16.75 23.25H17.5V25.875C17.5 26.4975 18.0025 27 18.625 27C19.2475 27 19.75 26.4975 19.75 25.875V23.25H21.25V25.875C21.25 26.4975 21.7525 27 22.375 27C22.9975 27 23.5 26.4975 23.5 25.875V23.25H24.25C24.6625 23.25 25 22.9125 25 22.5V15H16V22.5ZM14.125 15C13.5025 15 13 15.5025 13 16.125V21.375C13 21.9975 13.5025 22.5 14.125 22.5C14.7475 22.5 15.25 21.9975 15.25 21.375V16.125C15.25 15.5025 14.7475 15 14.125 15ZM26.875 15C26.2525 15 25.75 15.5025 25.75 16.125V21.375C25.75 21.9975 26.2525 22.5 26.875 22.5C27.4975 22.5 28 21.9975 28 21.375V16.125C28 15.5025 27.4975 15 26.875 15ZM23.1475 10.62L24.1225 9.645C24.2725 9.495 24.2725 9.2625 24.1225 9.1125C23.9725 8.9625 23.74 8.9625 23.59 9.1125L22.48 10.2225C21.8875 9.9225 21.2125 9.75 20.5 9.75C19.78 9.75 19.105 9.9225 18.505 10.2225L17.3875 9.1125C17.2375 8.9625 17.005 8.9625 16.855 9.1125C16.705 9.2625 16.705 9.495 16.855 9.645L17.8375 10.6275C16.7275 11.445 16 12.7575 16 14.25H25C25 12.7575 24.2725 11.4375 23.1475 10.62ZM19 12.75H18.25V12H19V12.75ZM22.75 12.75H22V12H22.75V12.75Z" fill="white"/>
</g>
<defs>
<filter id="filter0_d_2594_9203" x="0" y="0" width="40" height="40" filterUnits="userSpaceOnUse" color-interpolation-filters="sRGB">
<feFlood flood-opacity="0" result="BackgroundImageFix"/>
<feColorMatrix in="SourceAlpha" type="matrix" values="0 0 0 0 0 0 0 0 0 0 0 0 0 0 0 0 0 0 127 0" result="hardAlpha"/>
<feOffset dy="2"/>
<feGaussianBlur stdDeviation="2"/>
<feComposite in2="hardAlpha" operator="out"/>
<feColorMatrix type="matrix" values="0 0 0 0 0.2 0 0 0 0 0.2 0 0 0 0 0.2 0 0 0 0.1 0"/>
<feBlend mode="normal" in2="BackgroundImageFix" result="effect1_dropShadow_2594_9203"/>
<feBlend mode="normal" in="SourceGraphic" in2="effect1_dropShadow_2594_9203" result="shape"/>
</filter>
</defs>
</svg>
