<svg width="115" height="35" viewBox="0 0 115 35" fill="none" xmlns="http://www.w3.org/2000/svg">
<g clip-path="url(#clip0_114_279)">
<path d="M105.865 0H9.13462C8.84615 0 8.46154 0 8.07692 0C7.78846 0 7.5 0 7.21154 0C6.53846 0 5.96154 0.0860485 5.28846 0.172097C4.71154 0.258145 4.03846 0.430242 3.46154 0.688388C2.88462 0.946534 2.40385 1.29073 1.92308 1.72097C1.44231 2.15121 1.05769 2.58145 0.769231 3.09775C0.480769 3.61404 0.288462 4.21638 0.192308 4.73267C0.0961538 5.33501 0 5.93735 0 6.45364C0 6.71178 0 6.96993 0 7.22807V27.1053C0 27.3634 0 27.6216 0 27.8797C0 28.4821 0.0961538 28.9983 0.192308 29.6007C0.288462 30.203 0.480769 30.7193 0.769231 31.2356C1.05769 31.8379 1.44231 32.2682 1.92308 32.6984C2.40385 33.1287 2.88462 33.4729 3.46154 33.731C4.03846 33.9892 4.61538 34.1613 5.28846 34.2473C5.96154 34.3333 6.53846 34.4194 7.21154 34.4194C7.5 34.4194 7.78846 34.4194 8.07692 34.4194C8.46154 34.4194 8.75 34.4194 9.13462 34.4194H105.865C106.25 34.4194 106.538 34.4194 106.923 34.4194C107.212 34.4194 107.5 34.4194 107.788 34.4194C108.462 34.4194 109.038 34.3333 109.712 34.2473C110.385 34.1613 110.962 33.9892 111.538 33.731C112.115 33.4729 112.596 33.1287 113.077 32.6984C113.558 32.2682 113.942 31.8379 114.231 31.3217C114.519 30.8054 114.712 30.2891 114.808 29.6867C114.904 29.0844 115 28.5681 115 27.9658C115 27.7076 115 27.4495 115 27.1913C115 26.8471 115 26.589 115 26.2448V8.17461C115 7.83041 115 7.57227 115 7.22807C115 6.96993 115 6.71178 115 6.45364C115 5.8513 114.904 5.33501 114.808 4.73267C114.712 4.13033 114.519 3.61404 114.231 3.09775C113.654 2.06516 112.692 1.20468 111.538 0.688388C110.962 0.430242 110.385 0.258145 109.712 0.172097C109.038 0.0860485 108.462 0 107.788 0C107.5 0 107.212 0 106.923 0C106.635 0 106.25 0 105.865 0Z" fill="#A6A6A6"/>
<path d="M8.07673 33.645C7.78827 33.645 7.49981 33.645 7.21135 33.645C6.63443 33.645 5.96135 33.5589 5.38443 33.4729C4.8075 33.3868 4.32674 33.2147 3.74981 33.0426C3.26904 32.7845 2.78827 32.5263 2.40366 32.1821C2.01904 31.8379 1.63443 31.4077 1.44212 30.9775C1.15366 30.5472 1.0575 30.0309 0.961351 29.5146C0.865197 28.9983 0.769043 28.4821 0.769043 27.8797C0.769043 27.7076 0.769043 27.1053 0.769043 27.1053V7.22807C0.769043 7.22807 0.769043 6.62573 0.769043 6.45364C0.769043 5.93735 0.865197 5.33501 0.961351 4.81872C1.0575 4.38847 1.24981 3.87218 1.53827 3.44194C1.82674 3.0117 2.1152 2.58146 2.49981 2.23726C2.88443 1.89307 3.3652 1.63492 3.84597 1.37678C4.32674 1.11863 4.90366 1.03258 5.48058 0.946534C6.0575 0.860485 6.63443 0.774437 7.3075 0.774437H8.17289H107.019H107.884C108.461 0.774437 109.038 0.860485 109.711 0.946534C110.288 1.03258 110.769 1.20468 111.346 1.37678C112.308 1.80702 113.173 2.58146 113.654 3.44194C113.942 3.87218 114.038 4.38847 114.134 4.81872C114.231 5.33501 114.327 5.93735 114.327 6.45364C114.327 6.71178 114.327 6.96993 114.327 7.22807C114.327 7.57227 114.327 7.83041 114.327 8.17461V26.1587C114.327 26.5029 114.327 26.7611 114.327 27.1053C114.327 27.3634 114.327 27.6216 114.327 27.8797C114.327 28.396 114.231 28.9123 114.134 29.5146C114.038 30.0309 113.846 30.4612 113.654 30.9775C113.365 31.4077 113.077 31.8379 112.692 32.1821C112.307 32.5263 111.827 32.8705 111.346 33.0426C110.865 33.3008 110.288 33.4729 109.711 33.4729C109.134 33.5589 108.557 33.645 107.884 33.645C107.596 33.645 107.308 33.645 107.019 33.645H105.961H8.07673Z" fill="black"/>
<path d="M21.34 17.4678C21.34 16.005 22.1144 14.6282 23.4051 13.8538C22.6307 12.7352 21.34 12.0468 19.9632 11.9607C18.5004 11.7886 17.1236 12.8212 16.3491 12.8212C15.5747 12.8212 14.4561 11.9607 13.2514 11.9607C11.6165 12.0468 10.1537 12.9073 9.37922 14.2841C7.7443 17.1237 8.94898 21.4261 10.5839 23.7494C11.3583 24.868 12.3049 26.1587 13.5095 26.1587C14.7142 26.0727 15.1445 25.3843 16.6073 25.3843C18.0701 25.3843 18.4143 26.1587 19.705 26.1587C20.9958 26.1587 21.7702 25.0401 22.5446 23.8354C23.147 23.061 23.5772 22.1145 23.8354 21.1679C22.2865 20.6516 21.34 19.1028 21.34 17.4678Z" fill="white"/>
<path d="M18.9301 10.4979C19.6185 9.63743 19.9627 8.60485 19.8767 7.48622C18.8441 7.57227 17.8115 8.08856 17.1231 8.94904C16.4347 9.72348 16.0905 10.7561 16.1766 11.8747C17.2952 11.8747 18.2417 11.3584 18.9301 10.4979Z" fill="white"/>
<path d="M39.3983 23.3191H35.354L34.4075 26.2448H32.6865L36.5587 15.5748H38.2797L42.1519 26.2448H40.4309L39.3983 23.3191ZM35.7843 22.0284H39.0541L37.4192 17.2957H37.3331L35.7843 22.0284Z" fill="white"/>
<path d="M50.4987 22.3726C50.4987 24.782 49.208 26.3308 47.2288 26.3308C46.1963 26.4169 45.2497 25.8145 44.8195 24.9541V28.8262H43.1846V18.5004H44.7334V19.7912C45.2497 18.9307 46.1963 18.4144 47.2288 18.4144C49.1219 18.3283 50.4987 19.9633 50.4987 22.3726ZM48.7777 22.3726C48.7777 20.8237 48.0033 19.7912 46.7126 19.7912C45.5079 19.7912 44.6474 20.8237 44.6474 22.3726C44.6474 23.9215 45.5079 24.9541 46.7126 24.9541C48.0033 24.9541 48.7777 23.9215 48.7777 22.3726Z" fill="white"/>
<path d="M59.0172 22.3726C59.0172 24.782 57.7265 26.3308 55.7474 26.3308C54.7148 26.4169 53.7683 25.8145 53.338 24.9541V28.8262H51.7031V18.5004H53.252V19.7912C53.7683 18.9307 54.7148 18.4144 55.7474 18.4144C57.7265 18.3283 59.0172 19.9633 59.0172 22.3726ZM57.3823 22.3726C57.3823 20.8237 56.6079 19.7912 55.3172 19.7912C54.1125 19.7912 53.252 20.8237 53.252 22.3726C53.252 23.9215 54.1125 24.9541 55.3172 24.9541C56.6079 24.9541 57.3823 23.9215 57.3823 22.3726Z" fill="white"/>
<path d="M64.6962 23.2331C64.7823 24.2657 65.8149 24.9541 67.2777 24.9541C68.6545 24.9541 69.601 24.2657 69.601 23.3191C69.601 22.4587 68.9986 22.0284 67.6219 21.6842L66.2451 21.34C64.266 20.8237 63.4055 19.9633 63.4055 18.5004C63.4055 16.6934 65.0404 15.4027 67.2777 15.4027C69.5149 15.4027 71.0638 16.6934 71.1499 18.5004H69.5149C69.4289 17.4678 68.5684 16.7795 67.2777 16.7795C65.9869 16.7795 65.1265 17.4678 65.1265 18.4144C65.1265 19.1888 65.7288 19.6191 67.1056 19.9633L68.3103 20.2214C70.4615 20.7377 71.408 21.5982 71.408 23.147C71.408 25.1262 69.7731 26.4169 67.2777 26.4169C64.8683 26.4169 63.3194 25.2122 63.2334 23.2331H64.6962Z" fill="white"/>
<path d="M74.6783 16.6074V18.4144H76.1411V19.7051H74.6783V24.0075C74.6783 24.6959 74.9364 24.9541 75.6248 24.9541C75.7969 24.9541 75.969 24.9541 76.1411 24.9541V26.2448C75.8829 26.3308 75.5387 26.3308 75.2806 26.3308C73.7317 26.3308 73.1294 25.7285 73.1294 24.2657V19.7912H72.0107V18.5004H73.1294V16.6934H74.6783V16.6074Z" fill="white"/>
<path d="M77.0874 22.3726C77.0874 19.9633 78.5502 18.4144 80.7875 18.4144C83.0247 18.4144 84.4876 19.9633 84.4876 22.3726C84.4876 24.868 83.0247 26.3308 80.7875 26.3308C78.4642 26.3308 77.0874 24.782 77.0874 22.3726ZM82.8527 22.3726C82.8527 20.6516 82.0782 19.7051 80.7875 19.7051C79.4968 19.7051 78.7223 20.6516 78.7223 22.3726C78.7223 24.0936 79.4968 25.0401 80.7875 25.0401C82.0782 25.0401 82.8527 24.0075 82.8527 22.3726Z" fill="white"/>
<path d="M85.7783 18.4144H87.3272V19.7912C87.4993 18.9307 88.3598 18.3283 89.2203 18.4144C89.3924 18.4144 89.5645 18.4144 89.7366 18.5004V19.9633C89.4784 19.8772 89.2203 19.8772 89.0482 19.8772C88.1877 19.8772 87.4132 20.5656 87.4132 21.4261C87.4132 21.5121 87.4132 21.5982 87.4132 21.6842V26.3308H85.7783V18.4144Z" fill="white"/>
<path d="M97.1365 23.9215C96.9644 25.2983 95.5016 26.3308 93.7807 26.3308C91.5434 26.3308 90.0806 24.782 90.0806 22.3726C90.0806 19.9633 91.4573 18.3283 93.6946 18.3283C95.8458 18.3283 97.2226 19.7912 97.2226 22.2005V22.7168H91.7155V22.8029C91.6294 23.9215 92.4039 24.868 93.5225 25.0401C93.6086 25.0401 93.6946 25.0401 93.7807 25.0401C94.5551 25.1262 95.3295 24.6959 95.5877 23.9215H97.1365ZM91.7155 21.5982H95.5877C95.6737 20.5656 94.8132 19.7051 93.7807 19.6191C93.6946 19.6191 93.6946 19.6191 93.6086 19.6191C92.576 19.6191 91.7155 20.4795 91.7155 21.5982Z" fill="white"/>
<path d="M35.5264 7.48622C36.8171 7.40017 37.8497 8.3467 37.9357 9.55138C37.9357 9.72348 37.9357 9.80953 37.9357 9.98163C37.9357 11.6165 37.0752 12.5631 35.5264 12.5631H33.6333V7.40017H35.5264V7.48622ZM34.4938 11.9607H35.4403C36.3008 12.0468 37.0752 11.3584 37.1613 10.4119C37.1613 10.3258 37.1613 10.1537 37.1613 10.0677C37.2473 9.20719 36.645 8.3467 35.7845 8.26066C35.6985 8.26066 35.6124 8.26066 35.4403 8.26066H34.4938V11.9607Z" fill="white"/>
<path d="M38.8822 10.67C38.7962 9.63743 39.4846 8.77695 40.5172 8.6909C41.5497 8.60485 42.4102 9.29324 42.4963 10.3258C42.4963 10.4119 42.4963 10.584 42.4963 10.67C42.5823 11.7026 41.8939 12.5631 40.8614 12.6491C39.8288 12.7352 38.9683 12.0468 38.8822 11.0142C38.8822 10.9282 38.8822 10.8421 38.8822 10.67ZM41.7218 10.67C41.7218 9.80953 41.3776 9.37929 40.6893 9.37929C40.0009 9.37929 39.6567 9.89558 39.6567 10.67C39.6567 11.5305 40.0009 12.0468 40.6893 12.0468C41.3776 12.0468 41.7218 11.5305 41.7218 10.67Z" fill="white"/>
<path d="M47.4009 12.6491H46.6265L45.8521 9.80953H45.766L44.9916 12.6491H44.2172L43.1846 8.77695H43.959L44.6474 11.7026H44.7334L45.5079 8.77695H46.2823L47.0568 11.7026H47.1428L47.8312 8.77695H48.6056L47.4009 12.6491Z" fill="white"/>
<path d="M49.3804 8.77695H50.1548V9.37929H50.2409C50.413 8.94904 50.9292 8.6909 51.3595 8.6909C52.0479 8.60485 52.6502 9.12114 52.7363 9.89558C52.7363 9.98163 52.7363 10.0677 52.7363 10.1537V12.6491H51.9618V10.3258C51.9618 9.72348 51.7037 9.37929 51.1013 9.37929C50.585 9.37929 50.1548 9.72348 50.1548 10.2398C50.1548 10.3258 50.1548 10.3258 50.1548 10.4119V12.6491H49.3804V8.77695Z" fill="white"/>
<path d="M53.8545 7.22807H54.6289V12.6491H53.8545V7.22807Z" fill="white"/>
<path d="M55.662 10.67C55.576 9.63743 56.2644 8.77695 57.2969 8.6909C58.3295 8.60485 59.19 9.29324 59.2761 10.3258C59.2761 10.4119 59.2761 10.584 59.2761 10.67C59.3621 11.7026 58.6737 12.5631 57.6411 12.6491C56.6086 12.7352 55.7481 12.0468 55.662 11.0142C55.662 10.9282 55.662 10.8421 55.662 10.67ZM58.5877 10.67C58.5877 9.80953 58.2435 9.37929 57.5551 9.37929C56.8667 9.37929 56.5225 9.89558 56.5225 10.67C56.5225 11.5305 56.8667 12.0468 57.5551 12.0468C58.1574 12.0468 58.5877 11.5305 58.5877 10.67Z" fill="white"/>
<path d="M60.1363 11.5305C60.1363 10.8421 60.6526 10.4119 61.5992 10.4119L62.6317 10.3258V9.98163C62.6317 9.55138 62.3736 9.37929 61.8573 9.37929C61.4271 9.37929 61.1689 9.55138 61.0829 9.80953H60.3084C60.3945 9.12114 60.9968 8.6909 61.8573 8.6909C62.8038 8.6909 63.4062 9.20719 63.4062 9.98163V12.6491H62.6317V12.1328H62.5457C62.2875 12.5631 61.8573 12.7352 61.341 12.7352C60.7387 12.8212 60.1363 12.3049 60.0503 11.7026C60.1363 11.6165 60.1363 11.6165 60.1363 11.5305ZM62.6317 11.1863V10.8421L61.6852 10.9282C61.1689 10.9282 60.9108 11.1863 60.9108 11.4444C60.9108 11.7886 61.255 11.9607 61.5992 11.9607C62.1155 12.1328 62.5457 11.7886 62.6317 11.1863C62.6317 11.2724 62.6317 11.2724 62.6317 11.1863Z" fill="white"/>
<path d="M64.3525 10.67C64.3525 9.46533 64.9549 8.6909 65.9875 8.6909C66.5037 8.6909 66.934 8.94904 67.1921 9.37929H67.2782V7.22807H68.0526V12.6491H67.2782V12.0468H67.1921C66.934 12.477 66.5037 12.7352 65.9875 12.7352C65.0409 12.7352 64.3525 11.9607 64.3525 10.67ZM65.213 10.67C65.213 11.5305 65.6433 11.9607 66.2456 11.9607C66.8479 11.9607 67.2782 11.4444 67.2782 10.67C67.2782 9.89558 66.8479 9.37929 66.2456 9.37929C65.5572 9.37929 65.213 9.89558 65.213 10.67Z" fill="white"/>
<path d="M71.1503 10.67C71.0643 9.63743 71.7527 8.77695 72.7852 8.6909C73.8178 8.60485 74.6783 9.29324 74.7644 10.3258C74.7644 10.4119 74.7644 10.584 74.7644 10.67C74.8504 11.7026 74.162 12.5631 73.1294 12.6491C72.0968 12.7352 71.2364 12.0468 71.1503 11.0142C71.1503 10.9282 71.1503 10.8421 71.1503 10.67ZM74.076 10.67C74.076 9.80953 73.7318 9.37929 73.0434 9.37929C72.355 9.37929 72.0108 9.89558 72.0108 10.67C72.0108 11.5305 72.355 12.0468 73.0434 12.0468C73.6457 12.0468 74.076 11.5305 74.076 10.67Z" fill="white"/>
<path d="M75.8828 8.77695H76.6572V9.37929H76.7433C76.9154 8.94904 77.4317 8.6909 77.8619 8.6909C78.5503 8.60485 79.1527 9.12114 79.2387 9.89558C79.2387 9.98163 79.2387 10.0677 79.2387 10.1537V12.6491H78.4643V10.3258C78.4643 9.72348 78.2061 9.37929 77.6038 9.37929C77.0875 9.37929 76.6572 9.72348 76.6572 10.2398C76.6572 10.3258 76.6572 10.3258 76.6572 10.4119V12.6491H75.8828V8.77695Z" fill="white"/>
<path d="M83.455 7.83041V8.77695H84.3155V9.46534H83.455V11.4445C83.455 11.8747 83.6271 12.0468 83.9713 12.0468C84.0573 12.0468 84.1434 12.0468 84.2294 12.0468V12.6491C84.0573 12.6491 83.9713 12.6491 83.7992 12.6491C82.9387 12.6491 82.5945 12.391 82.5945 11.6165V9.46534H81.9922V8.863H82.5945V7.83041H83.455Z" fill="white"/>
<path d="M85.3486 7.22807H86.1231V9.37929H86.2091C86.3812 8.94904 86.8975 8.60485 87.4138 8.6909C88.1022 8.6909 88.7045 9.20719 88.7906 9.89558C88.7906 9.98163 88.7906 10.0677 88.7906 10.1537V12.6491H88.0161V10.3258C88.0161 9.72348 87.758 9.37929 87.1557 9.37929C86.6394 9.37929 86.2091 9.72348 86.2091 10.2398C86.2091 10.3258 86.2091 10.3258 86.2091 10.4119V12.6491H85.4347L85.3486 7.22807Z" fill="white"/>
<path d="M93.1789 11.6165C93.0068 12.3049 92.2323 12.8212 91.4579 12.7352C90.5114 12.7352 89.6509 11.9607 89.6509 11.0142C89.6509 10.9282 89.6509 10.8421 89.6509 10.7561C89.4788 9.80953 90.1672 8.863 91.1997 8.77695C91.2858 8.77695 91.3718 8.77695 91.4579 8.77695C92.5765 8.77695 93.1789 9.55138 93.1789 10.7561V11.0142H90.4253C90.3393 11.6165 90.7695 12.0468 91.3718 12.1328H91.4579C91.8021 12.2189 92.2323 11.9607 92.4044 11.7026L93.1789 11.6165ZM90.4253 10.3258H92.4044C92.4044 9.80953 92.0602 9.37929 91.5439 9.29324H91.4579C90.9416 9.37929 90.4253 9.80953 90.4253 10.3258Z" fill="white"/>
</g>
<defs>
<clipPath id="clip0_114_279">
<rect width="115" height="34.4194" fill="white"/>
</clipPath>
</defs>
</svg>
