<svg width="662" height="514" viewBox="0 0 662 514" fill="none" xmlns="http://www.w3.org/2000/svg">
<path d="M5.56369 -18C-11.607 95.8174 9.89232 204.922 85.079 304.664C191.569 445.852 368.767 486.058 518.704 403.776C531.015 397.021 542.436 388.801 553.931 380.527C558.346 377.35 562.772 374.164 567.264 371.051C429.775 414.165 281.376 365.279 205.199 224.253C162.979 146.233 153.657 60.323 170.622 -18H5.56369Z" fill="#C1B5A6"/>
<path d="M752.801 -18C754.547 -9.71683 756.031 -1.27182 757.241 7.32887C775.983 137.296 739.351 254.173 657.567 351.415C562.152 465.487 442.884 514.108 302.318 493.538C276.994 489.567 252.096 482.318 227.324 475.105C217.095 472.127 206.887 469.155 196.68 466.423C335.542 570.21 484.628 592.65 637.973 522.524C806.652 445.852 903.771 302.794 921.661 102.7C925.402 61.6355 924.598 21.1918 919.661 -18H752.801Z" fill="#C1B5A6"/>
</svg>
