<svg width="360" height="100" viewBox="0 0 360 100" fill="none" xmlns="http://www.w3.org/2000/svg">
<path d="M-42.6947 0.421875C-42.6947 29.649 -42.6947 50.0969 -42.6947 81.1748C-42.6947 101.071 -42.6947 122.077 -42.6947 136.222C-44.4418 138.478 -4.58811 137.953 47.6725 137.778C124.483 137.522 199.025 137.342 265.033 108.572C174.794 126.364 77.3946 106.19 27.3965 47.99C14.1883 32.6432 5.88565 16.5566 2.01871 0.421875H-42.6947Z" fill="#C1B5A6"/>
<path d="M391.904 0.421875C386.988 37.4036 363.578 71.1051 324.302 100.468C261.678 147.544 183.398 167.61 91.1392 159.121C74.5181 157.482 58.1771 154.49 41.918 151.514C35.2043 150.285 28.5047 149.058 21.805 147.93C112.946 190.762 210.796 200.023 311.442 171.083C420.99 139.774 484.551 81.6406 497.25 0.421875H391.904Z" fill="#C1B5A6"/>
</svg>
