<?xml version="1.0" encoding="UTF-8"?>
<svg version="1.1" xmlns="http://www.w3.org/2000/svg" width="130" height="70">
<path d="M0 0 C42.9 0 85.8 0 130 0 C130 23.1 130 46.2 130 70 C87.1 70 44.2 70 0 70 C0 46.9 0 23.8 0 0 Z " fill="#F5F5F7" transform="translate(0,0)"/>
<path d="M0 0 C1.76923828 0.31904297 1.76923828 0.31904297 3.57421875 0.64453125 C4.92966797 0.91330078 4.92966797 0.91330078 6.3125 1.1875 C5.9825 3.4975 5.6525 5.8075 5.3125 8.1875 C4.3225 8.1875 3.3325 8.1875 2.3125 8.1875 C2.3125 7.1975 2.3125 6.2075 2.3125 5.1875 C1.6525 5.1875 0.9925 5.1875 0.3125 5.1875 C0.3125 6.1775 0.3125 7.1675 0.3125 8.1875 C-0.6775 8.6825 -0.6775 8.6825 -1.6875 9.1875 C-0.78386719 9.1875 0.11976562 9.1875 1.05078125 9.1875 C6.13802083 9.1875 11.22526042 9.1875 16.3125 9.1875 C16.9725 6.8775 17.6325 4.5675 18.3125 2.1875 C17.6525 2.1875 16.9925 2.1875 16.3125 2.1875 C16.3125 4.1675 16.3125 6.1475 16.3125 8.1875 C15.6525 7.5275 14.9925 6.8675 14.3125 6.1875 C13.3225 6.5175 12.3325 6.8475 11.3125 7.1875 C11.3125 5.2075 11.3125 3.2275 11.3125 1.1875 C11.9725 1.1875 12.6325 1.1875 13.3125 1.1875 C13.3125 2.1775 13.3125 3.1675 13.3125 4.1875 C13.9725 4.1875 14.6325 4.1875 15.3125 4.1875 C14.9825 3.1975 14.6525 2.2075 14.3125 1.1875 C16.2925 1.1875 18.2725 1.1875 20.3125 1.1875 C20.6425 0.5275 20.9725 -0.1325 21.3125 -0.8125 C21.8075 -0.3175 21.8075 -0.3175 22.3125 0.1875 C23.99433948 0.42037008 25.6837416 0.60014166 27.375 0.75 C28.29410156 0.83378906 29.21320313 0.91757812 30.16015625 1.00390625 C31.22556641 1.09478516 31.22556641 1.09478516 32.3125 1.1875 C31.9825 3.4975 31.6525 5.8075 31.3125 8.1875 C30.3225 8.5175 29.3325 8.8475 28.3125 9.1875 C28.8075 12.6525 28.8075 12.6525 29.3125 16.1875 C28.3225 16.5175 27.3325 16.8475 26.3125 17.1875 C27.3025 18.5075 28.2925 19.8275 29.3125 21.1875 C29.9725 18.2175 30.6325 15.2475 31.3125 12.1875 C32.6325 12.1875 33.9525 12.1875 35.3125 12.1875 C35.8075 19.1175 35.8075 19.1175 36.3125 26.1875 C35.6525 26.1875 34.9925 26.1875 34.3125 26.1875 C34.3125 25.5275 34.3125 24.8675 34.3125 24.1875 C33.6525 24.1875 32.9925 24.1875 32.3125 24.1875 C32.3125 24.8475 32.3125 25.5075 32.3125 26.1875 C29.3425 26.1875 26.3725 26.1875 23.3125 26.1875 C23.3125 24.8675 23.3125 23.5475 23.3125 22.1875 C23.9725 21.8575 24.6325 21.5275 25.3125 21.1875 C24.6525 20.5275 23.9925 19.8675 23.3125 19.1875 C22.6525 21.4975 21.9925 23.8075 21.3125 26.1875 C19.6625 26.1875 18.0125 26.1875 16.3125 26.1875 C15.07362452 23.70974905 15.14508331 21.95096293 15.125 19.1875 C15.11082031 18.300625 15.09664062 17.41375 15.08203125 16.5 C15.3125 14.1875 15.3125 14.1875 17.3125 12.1875 C7.0825 11.8575 -3.1475 11.5275 -13.6875 11.1875 C-13.6875 10.8575 -13.6875 10.5275 -13.6875 10.1875 C-9.2325 9.6925 -9.2325 9.6925 -4.6875 9.1875 C-5.925 8.56875 -5.925 8.56875 -7.1875 7.9375 C-8.0125 7.36 -8.8375 6.7825 -9.6875 6.1875 C-9.6875 2.1875 -9.6875 2.1875 -8.60546875 0.38671875 C-5.62141924 -1.47907188 -3.38039418 -0.63591574 0 0 Z " fill="#CCD0D3" transform="translate(84.6875,22.8125)"/>
<path d="M0 0 C1.32 0 2.64 0 4 0 C4 7.59 4 15.18 4 23 C-2.27 23 -8.54 23 -15 23 C-15 15.74 -15 8.48 -15 1 C-12.69 1 -10.38 1 -8 1 C-6 3 -6 3 -5.83984375 5.09375 C-5.87207031 5.8878125 -5.90429688 6.681875 -5.9375 7.5 C-6.1199046 10.88207958 -6.1199046 10.88207958 -5 14 C-4.01 11.36 -3.02 8.72 -2 6 C-1.67 6 -1.34 6 -1 6 C-0.67 4.02 -0.34 2.04 0 0 Z " fill="#000453" transform="translate(28,26)"/>
<path d="M0 0 C1.65 0 3.3 0 5 0 C5.33 2.64 5.66 5.28 6 8 C7.96822886 6.03177114 7.66248381 2.65191291 8 0 C9.65 0 11.3 0 13 0 C13 7.26 13 14.52 13 22 C12.01 22 11.02 22 10 22 C9.67 19.69 9.34 17.38 9 15 C8.67 17.31 8.34 19.62 8 22 C5.36 22 2.72 22 0 22 C0 14.74 0 7.48 0 0 Z " fill="#080D5B" transform="translate(39,27)"/>
<path d="M0 0 C1.98 0 3.96 0 6 0 C6.33923576 2.35344806 6.67150534 4.7075484 7 7.0625 C7.09539063 7.71927734 7.19078125 8.37605469 7.2890625 9.05273438 C7.88887674 13.40138763 8.09127093 17.61329071 8 22 C7.01 22 6.02 22 5 22 C4.67 21.01 4.34 20.02 4 19 C3.01 18.67 2.02 18.34 1 18 C1 19.32 1 20.64 1 22 C-0.32 22 -1.64 22 -3 22 C-2.01 14.74 -1.02 7.48 0 0 Z " fill="#121861" transform="translate(56,27)"/>
<path d="M0 0 C1.32 0 2.64 0 4 0 C4 7.59 4 15.18 4 23 C0.7 23 -2.6 23 -6 23 C-7.55932272 19.88135455 -6.65549131 17.33704665 -6 14 C-5.34 13.34 -4.68 12.68 -4 12 C-3.28591666 10.01643517 -2.61382258 8.01684563 -2 6 C-1.67 6 -1.34 6 -1 6 C-0.67 4.02 -0.34 2.04 0 0 Z " fill="#BCC0D0" transform="translate(28,26)"/>
<path d="M0 0 C2 0.25 2 0.25 4 1 C4.33 1.99 4.66 2.98 5 4 C4.01 4.33 3.02 4.66 2 5 C2.99 6.32 3.98 7.64 5 9 C5.66 6.03 6.32 3.06 7 0 C8.32 0 9.64 0 11 0 C11.33 4.62 11.66 9.24 12 14 C11.34 14 10.68 14 10 14 C10 13.34 10 12.68 10 12 C9.34 12 8.68 12 8 12 C8 12.66 8 13.32 8 14 C5.03 14 2.06 14 -1 14 C-1 12.68 -1 11.36 -1 10 C-0.34 9.67 0.32 9.34 1 9 C0.34 8.34 -0.32 7.68 -1 7 C-1.1875 3.9375 -1.1875 3.9375 -1 1 C-0.67 0.67 -0.34 0.34 0 0 Z " fill="#B52A23" transform="translate(109,35)"/>
<path d="M0 0 C1.65 0 3.3 0 5 0 C5 7.26 5 14.52 5 22 C4.01 22 3.02 22 2 22 C1.8046875 19.94921875 1.609375 17.8984375 1.4140625 15.84765625 C1.20910156 14.93306641 1.20910156 14.93306641 1 14 C0.34 13.67 -0.32 13.34 -1 13 C-0.67 8.71 -0.34 4.42 0 0 Z " fill="#000556" transform="translate(47,27)"/>
<path d="M0 0 C0.33 0 0.66 0 1 0 C1 7.26 1 14.52 1 22 C-0.98 22 -2.96 22 -5 22 C-5 15.07 -5 8.14 -5 1 C-3.16163081 4.67673838 -2.06348187 8.04992447 -1 12 C-0.67 8.04 -0.34 4.08 0 0 Z " fill="#C6CAD5" transform="translate(38,27)"/>
<path d="M0 0 C0.66 0.33 1.32 0.66 2 1 C3.70363822 1.22622081 5.41328701 1.40888473 7.125 1.5625 C8.03507812 1.64628906 8.94515625 1.73007812 9.8828125 1.81640625 C10.58148438 1.87699219 11.28015625 1.93757813 12 2 C11.67 4.31 11.34 6.62 11 9 C10.01 9 9.02 9 8 9 C8 8.34 8 7.68 8 7 C7.34 7 6.68 7 6 7 C5.67 7.66 5.34 8.32 5 9 C4 6 4 6 5 3 C4.01 3 3.02 3 2 3 C2 4.98 2 6.96 2 9 C1.34 8.01 0.68 7.02 0 6 C-0.66 6.66 -1.32 7.32 -2 8 C-2.33 7.01 -2.66 6.02 -3 5 C-2.67 4.34 -2.34 3.68 -2 3 C-2.66 3 -3.32 3 -4 3 C-4 4.98 -4 6.96 -4 9 C-4.66 8.34 -5.32 7.68 -6 7 C-6.99 7.33 -7.98 7.66 -9 8 C-9 6.02 -9 4.04 -9 2 C-8.34 2 -7.68 2 -7 2 C-7 2.99 -7 3.98 -7 5 C-6.34 5 -5.68 5 -5 5 C-5.33 4.01 -5.66 3.02 -6 2 C-4.02 2 -2.04 2 0 2 C0 1.34 0 0.68 0 0 Z " fill="#282A2A" transform="translate(105,22)"/>
<path d="M0 0 C1.65 0 3.3 0 5 0 C6 1 6 1 6.09765625 3.94140625 C6.08605469 5.13636719 6.07445313 6.33132812 6.0625 7.5625 C6.05347656 8.76003906 6.04445313 9.95757812 6.03515625 11.19140625 C6.02355469 12.11824219 6.01195313 13.04507813 6 14 C4.02 14 2.04 14 0 14 C0 9.38 0 4.76 0 0 Z " fill="#B11911" transform="translate(70,35)"/>
<path d="M0 0 C1.32 0.33 2.64 0.66 4 1 C4 5.29 4 9.58 4 14 C2.35 14 0.7 14 -1 14 C-2.23887548 11.52224905 -2.16741669 9.76346293 -2.1875 7 C-2.20167969 6.113125 -2.21585937 5.22625 -2.23046875 4.3125 C-2 2 -2 2 0 0 Z " fill="#C24E48" transform="translate(102,35)"/>
<path d="M0 0 C1.65 0 3.3 0 5 0 C6 1 6 1 6.09765625 3.94140625 C6.08605469 5.13636719 6.07445313 6.33132812 6.0625 7.5625 C6.05347656 8.76003906 6.04445313 9.95757812 6.03515625 11.19140625 C6.02355469 12.11824219 6.01195313 13.04507813 6 14 C5.34 14 4.68 14 4 14 C4 12.35 4 10.7 4 9 C3.34 9 2.68 9 2 9 C2 10.65 2 12.3 2 14 C1.34 14 0.68 14 0 14 C0 9.38 0 4.76 0 0 Z " fill="#B21D15" transform="translate(93,35)"/>
<path d="M0 0 C0.99 0 1.98 0 3 0 C3 7.59 3 15.18 3 23 C2.01 23 1.02 23 0 23 C0 15.41 0 7.82 0 0 Z " fill="#00025A" transform="translate(29,26)"/>
<path d="M0 0 C1.76923828 0.31904297 1.76923828 0.31904297 3.57421875 0.64453125 C4.92966797 0.91330078 4.92966797 0.91330078 6.3125 1.1875 C5.9825 3.4975 5.6525 5.8075 5.3125 8.1875 C4.3225 8.1875 3.3325 8.1875 2.3125 8.1875 C2.3125 7.1975 2.3125 6.2075 2.3125 5.1875 C1.6525 5.1875 0.9925 5.1875 0.3125 5.1875 C0.3125 5.8475 0.3125 6.5075 0.3125 7.1875 C-0.3475 6.8575 -1.0075 6.5275 -1.6875 6.1875 C-1.3575 4.8675 -1.0275 3.5475 -0.6875 2.1875 C-1.6775 2.6825 -1.6775 2.6825 -2.6875 3.1875 C-3.34305119 5.71483235 -3.34305119 5.71483235 -3.6875 8.1875 C-5.3375 7.8575 -6.9875 7.5275 -8.6875 7.1875 C-9.375 4.875 -9.375 4.875 -9.6875 2.1875 C-7.17498103 -1.87686892 -4.25785472 -0.80098257 0 0 Z " fill="#3E3F41" transform="translate(84.6875,22.8125)"/>
<path d="M0 0 C1.32 0 2.64 0 4 0 C4.33 4.62 4.66 9.24 5 14 C4.34 14 3.68 14 3 14 C3 13.34 3 12.68 3 12 C2.01 12 1.02 12 0 12 C0 12.66 0 13.32 0 14 C-0.66 14 -1.32 14 -2 14 C-1.34 9.38 -0.68 4.76 0 0 Z " fill="#B3221B" transform="translate(87,35)"/>
<path d="M0 0 C0.99 0 1.98 0 3 0 C3 1.65 3 3.3 3 5 C3.99 4.67 4.98 4.34 6 4 C6 5.98 6 7.96 6 10 C4.68 10.33 3.36 10.66 2 11 C1.34 14.63 0.68 18.26 0 22 C-0.33 22 -0.66 22 -1 22 C-1.03738281 21.15695313 -1.07476562 20.31390625 -1.11328125 19.4453125 C-1.17902344 18.34960938 -1.24476562 17.25390625 -1.3125 16.125 C-1.37050781 15.03445312 -1.42851563 13.94390625 -1.48828125 12.8203125 C-1.74158203 11.42425781 -1.74158203 11.42425781 -2 10 C-2.99 9.34 -3.98 8.68 -5 8 C-4.0409375 7.690625 -4.0409375 7.690625 -3.0625 7.375 C-0.65074923 6.10461791 -0.65074923 6.10461791 -0.25 2.875 C-0.1675 1.92625 -0.085 0.9775 0 0 Z " fill="#CACED2" transform="translate(107,25)"/>
<path d="M0 0 C1.98 0 3.96 0 6 0 C6.33 3.63 6.66 7.26 7 11 C6.01 11 5.02 11 4 11 C4 12.32 4 13.64 4 15 C3.34 15 2.68 15 2 15 C1.34 10.05 0.68 5.1 0 0 Z " fill="#303576" transform="translate(56,27)"/>
<path d="M0 0 C0.66 0 1.32 0 2 0 C2 1.98 2 3.96 2 6 C2.66 6 3.32 6 4 6 C4 4.02 4 2.04 4 0 C4.66 0 5.32 0 6 0 C6 4.62 6 9.24 6 14 C5.34 14 4.68 14 4 14 C4 12.02 4 10.04 4 8 C3.34 8 2.68 8 2 8 C2 9.98 2 11.96 2 14 C1.34 14 0.68 14 0 14 C0 9.38 0 4.76 0 0 Z " fill="#AD0F08" transform="translate(78,35)"/>
<path d="M0 0 C1.32 0.33 2.64 0.66 4 1 C4.05399736 2.45792884 4.09279177 3.91642712 4.125 5.375 C4.14820313 6.18710937 4.17140625 6.99921875 4.1953125 7.8359375 C4 10 4 10 2 12 C-1 10 -1 10 -2 9 C-2.04092937 6.66702567 -2.04241723 4.33294775 -2 2 C-1.34 2 -0.68 2 0 2 C0 1.34 0 0.68 0 0 Z " fill="#0C115C" transform="translate(18,37)"/>
<path d="M0 0 C0.66 0.33 1.32 0.66 2 1 C3.32 0.67 4.64 0.34 6 0 C6 2.97 6 5.94 6 9 C2.7 9 -0.6 9 -4 9 C-3.34 8.01 -2.68 7.02 -2 6 C-1.34 6 -0.68 6 0 6 C0 4.02 0 2.04 0 0 Z " fill="#DCE1E4" transform="translate(114,25)"/>
<path d="M0 0 C1.32 0 2.64 0 4 0 C4.33 4.62 4.66 9.24 5 14 C4.34 14 3.68 14 3 14 C3 13.34 3 12.68 3 12 C2.34 11.67 1.68 11.34 1 11 C1 10.34 1 9.68 1 9 C0.67 9 0.34 9 0 9 C0 6.03 0 3.06 0 0 Z " fill="#B62922" transform="translate(116,35)"/>
<path d="M0 0 C0.99 0 1.98 0 3 0 C4.17571451 3.67410785 4.07366746 7.16929183 4 11 C3.01 11 2.02 11 1 11 C0.67 10.01 0.34 9.02 0 8 C-0.99 7.34 -1.98 6.68 -3 6 C-2.67 5.34 -2.34 4.68 -2 4 C-1.34 4 -0.68 4 0 4 C0 2.68 0 1.36 0 0 Z " fill="#050957" transform="translate(60,38)"/>
<path d="M0 0 C1.98 0.99 1.98 0.99 4 2 C4.609375 4.6015625 4.609375 4.6015625 4.75 7.625 C4.80671875 8.62789062 4.8634375 9.63078125 4.921875 10.6640625 C4.94765625 11.43492188 4.9734375 12.20578125 5 13 C4.01 12.67 3.02 12.34 2 12 C1.34 12.66 0.68 13.32 0 14 C0 9.38 0 4.76 0 0 Z " fill="#CC6D67" transform="translate(70,35)"/>
<path d="M0 0 C0.66 0 1.32 0 2 0 C2 0.99 2 1.98 2 3 C2.66 3 3.32 3 4 3 C3.67 2.01 3.34 1.02 3 0 C5.31 0 7.62 0 10 0 C9.34 1.98 8.68 3.96 8 6 C7.34 5.67 6.68 5.34 6 5 C6.33 3.68 6.66 2.36 7 1 C6.34 1 5.68 1 5 1 C5 2.98 5 4.96 5 7 C4.34 6.34 3.68 5.68 3 5 C2.01 5.33 1.02 5.66 0 6 C0 4.02 0 2.04 0 0 Z " fill="#292A2B" transform="translate(96,24)"/>
<path d="M0 0 C2.31 0 4.62 0 7 0 C6.360625 0.309375 5.72125 0.61875 5.0625 0.9375 C3.06389179 1.8345163 3.06389179 1.8345163 2 3 C1.92769007 5.81556784 2.00376369 8.61792211 2.0625 11.43359375 C2 14 2 14 1 16 C0.01 15.67 -0.98 15.34 -2 15 C-1.34 15 -0.68 15 0 15 C-0.12568359 13.62714844 -0.12568359 13.62714844 -0.25390625 12.2265625 C-0.40666016 10.44378906 -0.40666016 10.44378906 -0.5625 8.625 C-0.66691406 7.44164062 -0.77132812 6.25828125 -0.87890625 5.0390625 C-1 2 -1 2 0 0 Z " fill="#F4E5E4" transform="translate(99,34)"/>
<path d="M0 0 C0.99 0.99 1.98 1.98 3 3 C1.7260411 5.03833424 0.38938077 7.03852126 -1 9 C-1.66 9 -2.32 9 -3 9 C-3.1875 5.625 -3.1875 5.625 -3 2 C-2.01 1.34 -1.02 0.68 0 0 Z " fill="#676B9B" transform="translate(19,27)"/>
<path d="M0 0 C0.99 0.33 1.98 0.66 3 1 C3.33 2.98 3.66 4.96 4 7 C3.34 7 2.68 7 2 7 C2 7.99 2 8.98 2 10 C0.68 9.67 -0.64 9.34 -2 9 C-1.855625 8.443125 -1.71125 7.88625 -1.5625 7.3125 C-0.97230872 4.88615805 -0.476571 2.45093655 0 0 Z " fill="#C8645E" transform="translate(115,39)"/>
<path d="M0 0 C2.32845886 3.63821698 2.23553948 6.76028942 2 11 C1.67 11.66 1.34 12.32 1 13 C0.34 13 -0.32 13 -1 13 C-1.0272415 11.58344207 -1.04650467 10.16672955 -1.0625 8.75 C-1.07410156 7.96109375 -1.08570313 7.1721875 -1.09765625 6.359375 C-1.00385306 4.09308998 -0.63241063 2.1711105 0 0 Z " fill="#060956" transform="translate(56,29)"/>
<path d="M0 0 C0.99 0.33 1.98 0.66 3 1 C2.34 1 1.68 1 1 1 C1 3.97 1 6.94 1 10 C1.66 10.33 2.32 10.66 3 11 C1.625 12.5 1.625 12.5 0 14 C-0.66 14 -1.32 14 -2 14 C-1.34 9.38 -0.68 4.76 0 0 Z " fill="#B22019" transform="translate(87,35)"/>
<path d="M0 0 C0.66 0 1.32 0 2 0 C1.67 4.29 1.34 8.58 1 13 C-1 11 -1 11 -1.23046875 8.65234375 C-1.21628906 7.75644531 -1.20210938 6.86054687 -1.1875 5.9375 C-1.18105469 5.03902344 -1.17460938 4.14054687 -1.16796875 3.21484375 C-1 1 -1 1 0 0 Z " fill="#F5E6E6" transform="translate(85,34)"/>
<path d="M0 0 C1.32 0.66 2.64 1.32 4 2 C3.67 3.65 3.34 5.3 3 7 C1.68 6.67 0.36 6.34 -1 6 C-1.042721 4.33388095 -1.04063832 2.66617115 -1 1 C-0.67 0.67 -0.34 0.34 0 0 Z " fill="#BA4729" transform="translate(29,18)"/>
<path d="M0 0 C0.66 0 1.32 0 2 0 C2 1.32 2 2.64 2 4 C2.66 4.33 3.32 4.66 4 5 C4 7.31 4 9.62 4 12 C3.34 12 2.68 12 2 12 C2 10.35 2 8.7 2 7 C1.34 6.67 0.68 6.34 0 6 C0 4.02 0 2.04 0 0 Z " fill="#C14A45" transform="translate(95,37)"/>
<path d="M0 0 C1.09658936 3.28976808 0.79953138 4.71303767 0 8 C-2.31 7.67 -4.62 7.34 -7 7 C-6.67 5.68 -6.34 4.36 -6 3 C-4.02 3.495 -4.02 3.495 -2 4 C-1.34 2.68 -0.68 1.36 0 0 Z " fill="#484A86" transform="translate(65,54)"/>
<path d="M0 0 C1.134375 0.020625 2.26875 0.04125 3.4375 0.0625 C2.48617187 0.38347656 2.48617187 0.38347656 1.515625 0.7109375 C-0.81863111 1.91688953 -0.81863111 1.91688953 -1.390625 4.6640625 C-1.52984375 5.66179688 -1.6690625 6.65953125 -1.8125 7.6875 C-2.03679687 9.19183594 -2.03679687 9.19183594 -2.265625 10.7265625 C-2.36359375 11.49742188 -2.4615625 12.26828125 -2.5625 13.0625 C-2.8925 13.0625 -3.2225 13.0625 -3.5625 13.0625 C-3.75647476 11.08395742 -3.94251321 9.1046352 -4.125 7.125 C-4.22941406 6.02285156 -4.33382812 4.92070313 -4.44140625 3.78515625 C-4.48136719 2.88667969 -4.52132812 1.98820312 -4.5625 1.0625 C-3.5625 0.0625 -3.5625 0.0625 0 0 Z " fill="#E7C1BF" transform="translate(109.5625,33.9375)"/>
<path d="M0 0 C2.31 0.33 4.62 0.66 7 1 C5.515 2.485 5.515 2.485 4 4 C4 3.34 4 2.68 4 2 C3.34 2 2.68 2 2 2 C2 2.66 2 3.32 2 4 C1.01 4 0.02 4 -1 4 C-0.67 2.68 -0.34 1.36 0 0 Z " fill="#595C95" transform="translate(24,57)"/>
<path d="M0 0 C0 1.98 0 3.96 0 6 C-1.65 6 -3.3 6 -5 6 C-5 4.68 -5 3.36 -5 2 C-1.125 0 -1.125 0 0 0 Z " fill="#B3211A" transform="translate(113,43)"/>
<path d="M0 0 C1.98 0.495 1.98 0.495 4 1 C4.33 2.32 4.66 3.64 5 5 C2.03 4.505 2.03 4.505 -1 4 C-0.67 2.68 -0.34 1.36 0 0 Z " fill="#595C91" transform="translate(72,57)"/>
<path d="M0 0 C0.22036864 3.85645121 -0.39644899 6.49223216 -2 10 C-2.33 10 -2.66 10 -3 10 C-3 7.03 -3 4.06 -3 1 C-1 0 -1 0 0 0 Z " fill="#C9645F" transform="translate(91,35)"/>
<path d="M0 0 C2.09350689 3.4019487 2.17942163 6.05272412 2 10 C1.34 10 0.68 10 0 10 C0 9.34 0 8.68 0 8 C-0.66 7.67 -1.32 7.34 -2 7 C-1.34 7 -0.68 7 0 7 C0 4.69 0 2.38 0 0 Z " fill="#B3211A" transform="translate(119,39)"/>
<path d="M0 0 C0.99 0.33 1.98 0.66 3 1 C3 2.65 3 4.3 3 6 C2.67 5.34 2.34 4.68 2 4 C1.34 4 0.68 4 0 4 C-0.33 4.66 -0.66 5.32 -1 6 C-1.33 5.01 -1.66 4.02 -2 3 C-1.34 3 -0.68 3 0 3 C0 2.01 0 1.02 0 0 Z " fill="#636567" transform="translate(111,25)"/>
<path d="M0 0 C1.32 1.32 2.64 2.64 4 4 C3.67 4.99 3.34 5.98 3 7 C3 6.34 3 5.68 3 5 C2.34 5 1.68 5 1 5 C1 5.99 1 6.98 1 8 C0.34 7.67 -0.32 7.34 -1 7 C-0.67 4.69 -0.34 2.38 0 0 Z " fill="#F6EAE9" transform="translate(107,40)"/>
<path d="M0 0 C0.99 0 1.98 0 3 0 C3 1.65 3 3.3 3 5 C2.01 5.33 1.02 5.66 0 6 C0 4.02 0 2.04 0 0 Z " fill="#E6E6ED" transform="translate(16,40)"/>
<path d="M0 0 C0.33 0 0.66 0 1 0 C1 2.31 1 4.62 1 7 C-0.32 6.34 -1.64 5.68 -3 5 C-2.67 4.01 -2.34 3.02 -2 2 C-1.34 2 -0.68 2 0 2 C0 1.34 0 0.68 0 0 Z " fill="#252626" transform="translate(78,24)"/>
<path d="M0 0 C2.31 0 4.62 0 7 0 C6.34 1.98 5.68 3.96 5 6 C4.34 5.67 3.68 5.34 3 5 C3.33 3.68 3.66 2.36 4 1 C2.68 0.67 1.36 0.34 0 0 Z " fill="#464849" transform="translate(99,24)"/>
</svg>
