<svg width="41" height="40" viewBox="0 0 41 40" fill="none" xmlns="http://www.w3.org/2000/svg">
<path d="M14.3252 35.9986C16.8822 35.9986 18.9551 33.9256 18.9551 31.3684C18.9551 28.8113 16.8822 26.7383 14.3252 26.7383C11.7682 26.7383 9.69531 28.8113 9.69531 31.3684C9.69531 33.9256 11.7682 35.9986 14.3252 35.9986Z" stroke="black" stroke-width="1.06667" stroke-miterlimit="10"/>
<path d="M14.3251 34.7718C16.2025 34.7718 17.7245 33.2497 17.7245 31.3722C17.7245 29.4947 16.2025 27.9727 14.3251 27.9727C12.4477 27.9727 10.9258 29.4947 10.9258 31.3722C10.9258 33.2497 12.4477 34.7718 14.3251 34.7718Z" stroke="black" stroke-width="1.06667" stroke-miterlimit="10"/>
<path d="M14.4315 34.2853C16.0409 34.2853 17.3455 32.9806 17.3455 31.3712C17.3455 29.7617 16.0409 28.457 14.4315 28.457C12.8222 28.457 11.5176 29.7617 11.5176 31.3712C11.5176 32.9806 12.8222 34.2853 14.4315 34.2853Z" stroke="black" stroke-width="1.06667" stroke-miterlimit="10"/>
<path d="M30.0338 19.6308L29.8877 20.4523L30.9868 21.3793L32.4478 21.941C32.4478 21.941 32.9689 21.8371 33.1345 21.4004L33.3017 18.0706C33.3017 18.0706 33.3439 17.2167 32.7611 16.6761C32.7611 16.6761 28.1199 13.9292 26.1004 10.9728C26.1004 10.9728 22.6459 9.39155 17.8374 4.37502C17.8374 4.37502 17.5468 4.02111 17.1929 4L16.5273 4.16722C16.5273 4.16722 16.9429 6.14461 19.2335 8.2259C21.5241 10.3072 25.3325 13.3252 25.3325 13.3252C25.3325 13.3252 27.3098 14.9909 28.0387 15.7815C28.7644 16.5705 29.8049 19.1941 30.0338 19.6308Z" stroke="black" stroke-width="1.06667" stroke-miterlimit="10"/>
<path d="M10.7173 14.7462L10.8959 15.3387C10.9219 15.4231 10.9397 15.454 10.9657 15.48L12.4381 16.9395C12.4381 16.9395 13.1881 17.5499 12.6329 18.2999L10.779 20.7303C10.6134 20.9478 10.6232 21.2498 10.8001 21.4576L11.2173 21.943H10.9105C10.8017 21.943 10.693 21.9609 10.5907 21.9966L10.4105 22.0583C10.3764 22.0696 10.3456 22.0891 10.3212 22.1151L9.0079 23.5097C9.00303 23.5162 8.99654 23.5227 8.99167 23.5291L8.53225 24.1428C8.51115 24.1704 8.48355 24.1932 8.45271 24.2094L8.33745 24.2646C8.14913 24.3555 8.18323 24.6347 8.38939 24.6769C8.38939 24.6769 9.25141 24.8036 9.25141 24.8523C9.25141 24.8945 8.69134 24.9497 8.69134 24.9497C8.54849 24.974 8.44459 25.0958 8.43972 25.2387L8.42835 25.6121C8.42348 25.7728 8.55336 25.9059 8.71407 25.9059H8.75303L8.39913 26.518C8.36017 26.5861 8.28712 26.6267 8.2092 26.6267H8.08095C7.99816 26.6267 7.92349 26.6722 7.88615 26.7452L6.78387 28.8996C6.76439 28.9369 6.75628 28.9808 6.76115 29.023L6.84394 29.7893C6.8553 29.8997 6.94946 29.9841 7.06147 29.9841C7.12965 29.9841 7.19459 29.9516 7.23517 29.898L10.3829 25.7452C10.4852 25.6104 10.6134 25.4936 10.7644 25.4189C10.9592 25.3215 11.2498 25.2387 11.6378 25.2939C12.4137 25.4043 15.1021 25.4043 20.891 26.8995C20.9008 26.9027 20.9105 26.9043 20.9202 26.9092C21.0826 26.9839 22.818 27.7339 24.9186 26.5975C27.0615 25.4384 29.6638 22.9691 29.8099 22.8294C29.8147 22.8246 29.8196 22.8213 29.8245 22.8164L30.8439 22.008C30.8959 21.9657 30.9267 21.9041 30.9267 21.8359V21.4462C30.9267 21.3845 30.9024 21.3277 30.8586 21.2871C30.5517 21.003 29.2433 19.8504 27.43 19.076C25.3943 18.2074 20.5404 17.6311 20.3326 17.6051C20.3277 17.6051 20.3228 17.6035 20.318 17.6035C20.1264 17.5661 16.3245 16.8275 13.9982 15.7462C11.9576 14.7965 11.4998 14.4978 10.9413 14.4653C10.7855 14.4556 10.6735 14.6033 10.7173 14.7462Z" stroke="black" stroke-width="1.06667" stroke-miterlimit="10"/>
<path d="M27.4583 19.089C20.2975 18.9429 18.0021 19.8992 15.3381 20.982C13.494 21.7304 10.6758 24.5829 10.6758 24.5829L10.8219 25.3995" stroke="black" stroke-width="1.06667" stroke-miterlimit="10"/>
</svg>
