<svg id="b0e03525-395e-430d-8591-a211f6a7da4d" data-name="a3180b9c-7929-45b3-9152-a699702bae6e" xmlns="http://www.w3.org/2000/svg" viewBox="0 0 20 20"><defs><style>.bad41b87-99fb-43c0-ad15-4d96acf7a3ed{fill:none;}.b1710cad-1312-46a6-8305-2a1e40bf1c20{fill:#fff;}</style></defs><rect class="bad41b87-99fb-43c0-ad15-4d96acf7a3ed" width="20" height="20"></rect><path class="b1710cad-1312-46a6-8305-2a1e40bf1c20" d="M19.29,10v.27a.28.28,0,0,1-.27.28h-.55a.28.28,0,0,1-.27-.28h0V10A8.22,8.22,0,0,0,10,1.79H9.71a.27.27,0,0,1-.27-.27h0V1A.27.27,0,0,1,9.71.7H10A9.3,9.3,0,0,1,19.29,10ZM16,10v.27a.28.28,0,0,1-.27.28h-.55a.29.29,0,0,1-.28-.28h0V10A4.93,4.93,0,0,0,10,5.07H9.71a.27.27,0,0,1-.27-.27V4.25A.27.27,0,0,1,9.71,4H10A6,6,0,0,1,16,10Zm-1.58,8.73c-1.64,1.64-6.9-.51-9.77-3.38s-5-8.14-3.39-9.78L2.72,4.13a1.09,1.09,0,0,1,1.55,0l.07.08L7.13,7.62a1.09,1.09,0,0,1-.08,1.46L5.52,10.62a.26.26,0,0,0,0,.33A9.9,9.9,0,0,0,7,13a9.9,9.9,0,0,0,2,1.54.27.27,0,0,0,.33,0L10.92,13a1.1,1.1,0,0,1,1.47-.07l3.41,2.79A1.09,1.09,0,0,1,16,17.21l-.07.08Z"></path></svg>