<?xml version="1.0" encoding="UTF-8"?>
<svg version="1.1" xmlns="http://www.w3.org/2000/svg" width="56" height="38">
<path d="M0 0 C18.48 0 36.96 0 56 0 C56 12.54 56 25.08 56 38 C37.52 38 19.04 38 0 38 C0 25.46 0 12.92 0 0 Z " fill="#FDFCFC" transform="translate(0,0)"/>
<path d="M0 0 C3.12820628 0.61923537 4.32167104 1.19488157 6.875 3.25 C8.74727144 7.07594599 9.11441132 10.00911996 8.3125 14.1875 C6.875 17.125 6.875 17.125 4.3125 19.1875 C0.32719062 20.1514557 -3.60595927 20.1875 -7.6875 20.1875 C-8.46071882 23.16991547 -9.09946203 26.16330475 -9.6875 29.1875 C-11.0075 28.8575 -12.3275 28.5275 -13.6875 28.1875 C-14.25 26.25 -14.25 26.25 -14.6875 24.1875 C-14.3575 23.8575 -14.0275 23.5275 -13.6875 23.1875 C-15.6675 23.1875 -17.6475 23.1875 -19.6875 23.1875 C-19.48125 23.80625 -19.275 24.425 -19.0625 25.0625 C-18.93875 25.76375 -18.815 26.465 -18.6875 27.1875 C-19.3475 27.8475 -20.0075 28.5075 -20.6875 29.1875 C-22.8125 28.8125 -22.8125 28.8125 -24.6875 28.1875 C-25.51388376 25.29515685 -25.6875 23.30007569 -25.6875 20.1875 C-26.11574833 18.75461881 -26.59878846 17.33737376 -27.125 15.9375 C-28.63004901 11.65662947 -29.27730253 7.69967212 -29.6875 3.1875 C-31.3375 3.1875 -32.9875 3.1875 -34.6875 3.1875 C-34.6875 2.5275 -34.6875 1.8675 -34.6875 1.1875 C-32.3125 1.0625 -32.3125 1.0625 -29.6875 1.1875 C-27.6875 3.1875 -27.6875 3.1875 -27.6875 6.1875 C-18.21246753 7.24359036 -18.21246753 7.24359036 -9.3828125 4.81640625 C-8.32514551 3.72078471 -7.28464849 2.6082149 -6.265625 1.4765625 C-4.10195667 -0.29079034 -2.75169045 -0.18640484 0 0 Z " fill="#F0612C" transform="translate(40.6875,5.8125)"/>
<path d="M0 0 C2.375 -0.125 2.375 -0.125 5 0 C7 2 7 2 7 5 C12.28 5 17.56 5 23 5 C22.67 5.66 22.34 6.32 22 7 C19.05859375 7.4140625 19.05859375 7.4140625 15.4375 7.625 C14.23996094 7.69976563 13.04242188 7.77453125 11.80859375 7.8515625 C10.41833984 7.92503906 10.41833984 7.92503906 9 8 C9.66 11.3 10.32 14.6 11 18 C16.28 18 21.56 18 27 18 C26.33333333 21.33333333 25.66666667 24.66666667 25 28 C23.68 27.67 22.36 27.34 21 27 C20.4375 25.0625 20.4375 25.0625 20 23 C20.33 22.67 20.66 22.34 21 22 C19.02 22 17.04 22 15 22 C15.20625 22.61875 15.4125 23.2375 15.625 23.875 C15.74875 24.57625 15.8725 25.2775 16 26 C15.34 26.66 14.68 27.32 14 28 C11.875 27.625 11.875 27.625 10 27 C9.17361624 24.10765685 9 22.11257569 9 19 C8.57175167 17.56711881 8.08871154 16.14987376 7.5625 14.75 C6.05745099 10.46912947 5.41019747 6.51217212 5 2 C3.35 2 1.7 2 0 2 C0 1.34 0 0.68 0 0 Z " fill="#272727" transform="translate(6,7)"/>
<path d="M0 0 C4.95 0 9.9 0 15 0 C17 7 17 7 17 11 C12.38 11 7.76 11 3 11 C2.01 7.37 1.02 3.74 0 0 Z " fill="#FDFCFC" transform="translate(14,14)"/>
<path d="M0 0 C3.2578125 -0.29296875 3.2578125 -0.29296875 7.125 -0.1875 C9.04699219 -0.14689453 9.04699219 -0.14689453 11.0078125 -0.10546875 C11.99523438 -0.07066406 12.98265625 -0.03585938 14 0 C14.33 2.31 14.66 4.62 15 7 C13.125 7.625 13.125 7.625 11 8 C10.34 7.34 9.68 6.68 9 6 C9.375 3.875 9.375 3.875 10 2 C8.02 2 6.04 2 4 2 C4.309375 2.928125 4.309375 2.928125 4.625 3.875 C4.74875 4.57625 4.8725 5.2775 5 6 C4.34 6.66 3.68 7.32 3 8 C0.875 7.625 0.875 7.625 -1 7 C-1.625 5.1875 -1.625 5.1875 -2 3 C-1.34 2.01 -0.68 1.02 0 0 Z " fill="#6B6B6B" transform="translate(17,27)"/>
<path d="M0 0 C0.598125 0.226875 1.19625 0.45375 1.8125 0.6875 C2.8451802 3.47573655 2.85759293 4.5552274 1.875 7.4375 C1.524375 8.18 1.17375 8.9225 0.8125 9.6875 C-1.1675 9.6875 -3.1475 9.6875 -5.1875 9.6875 C-5.5508218 3.26881488 -5.5508218 3.26881488 -3.9375 0.6875 C-2.1875 -0.3125 -2.1875 -0.3125 0 0 Z " fill="#FCE7E0" transform="translate(41.1875,9.3125)"/>
<path d="M0 0 C1.2065625 0.0309375 1.2065625 0.0309375 2.4375 0.0625 C3.0625 1.9375 3.0625 1.9375 3.4375 4.0625 C2.7775 4.7225 2.1175 5.3825 1.4375 6.0625 C-0.6875 5.6875 -0.6875 5.6875 -2.5625 5.0625 C-3.125 3.125 -3.125 3.125 -3.5625 1.0625 C-2.5625 0.0625 -2.5625 0.0625 0 0 Z " fill="#414141" transform="translate(18.5625,28.9375)"/>
<path d="M0 0 C0.99 0.33 1.98 0.66 3 1 C2.34 3.31 1.68 5.62 1 8 C0.34 8 -0.32 8 -1 8 C-1.04241723 5.66705225 -1.04092937 3.33297433 -1 1 C-0.67 0.67 -0.34 0.34 0 0 Z " fill="#F9B188" transform="translate(39,9)"/>
<path d="M0 0 C0.33 0 0.66 0 1 0 C1 1.98 1 3.96 1 6 C1.66 6.33 2.32 6.66 3 7 C1.68 7.33 0.36 7.66 -1 8 C-1.04241723 5.66705225 -1.04092937 3.33297433 -1 1 C-0.67 0.67 -0.34 0.34 0 0 Z " fill="#FBE8F2" transform="translate(37,11)"/>
</svg>
