<?xml version="1.0" encoding="UTF-8"?>
<svg version="1.1" xmlns="http://www.w3.org/2000/svg" width="48" height="48">
<path d="M0 0 C0.80232056 -0.00241196 1.60464111 -0.00482391 2.43127441 -0.00730896 C4.12236489 -0.00633237 5.81348807 0.00701667 7.50439453 0.03198242 C10.08607073 0.06630416 12.6643234 0.05263157 15.24609375 0.03320312 C16.89324367 0.04010196 18.54038479 0.0497747 20.1875 0.0625 C20.95533813 0.05754013 21.72317627 0.05258026 22.51428223 0.04747009 C27.48642674 0.15618995 30.11272626 1.05818691 33.59375 4.62890625 C35.18332359 7.80805342 34.79908722 11.24875007 34.83203125 14.7421875 C34.840103 15.5487529 34.84817474 16.3553183 34.85649109 17.18632507 C34.87033143 18.89527232 34.88105382 20.60424721 34.88891602 22.31323242 C34.90611506 24.92094655 34.94999794 27.52738812 34.99414062 30.13476562 C35.00426897 31.7955636 35.01278463 33.45637235 35.01953125 35.1171875 C35.03703934 35.8944368 35.05454742 36.6716861 35.07258606 37.4724884 C35.05864148 40.97075464 34.67249715 43.46794534 33.12963867 46.62158203 C29.39736035 49.57592808 26.2321117 49.33086958 21.59375 49.2578125 C20.72105469 49.26022446 19.84835938 49.26263641 18.94921875 49.26512146 C17.10672454 49.26414329 15.26420084 49.2507568 13.421875 49.22583008 C10.60315016 49.19152067 7.78756063 49.205171 4.96875 49.22460938 C3.17707 49.21771075 1.38539809 49.20803821 -0.40625 49.1953125 C-1.24800781 49.20027237 -2.08976563 49.20523224 -2.95703125 49.21034241 C-6.54423358 49.13821583 -8.80552756 48.98280495 -11.93334961 47.14013672 C-14.07503801 43.48865207 -13.99766013 40.00022782 -13.97265625 35.8828125 C-13.97885483 35.03468491 -13.98505341 34.18655731 -13.99143982 33.31272888 C-13.99853375 31.52156724 -13.99537135 29.73033961 -13.98266602 27.93920898 C-13.96881214 25.20367553 -14.00285859 22.47157203 -14.04101562 19.73632812 C-14.04196699 17.99348875 -14.04010704 16.2506451 -14.03515625 14.5078125 C-14.04841446 13.69308975 -14.06167267 12.878367 -14.07533264 12.03895569 C-14.00925318 7.99228534 -13.69233328 6.05728553 -11.39233398 2.61328125 C-7.57477014 0.07635386 -4.43738915 -0.0766201 0 0 Z M-2.40625 11.62890625 C-1.94476563 12.03625 -1.48328125 12.44359375 -1.0078125 12.86328125 C3.15172931 17.44892247 3.95893121 24.66160959 4.59375 30.62890625 C5.25375 29.96890625 5.91375 29.30890625 6.59375 28.62890625 C9.90923351 28.35960599 13.20174064 28.31392985 16.52734375 28.265625 C19.72001249 27.92965339 19.72001249 27.92965339 21.44140625 25.4609375 C22.64848526 22.4943874 23.22458388 19.80373484 23.59375 16.62890625 C23.00360107 16.61956055 22.41345215 16.61021484 21.80541992 16.60058594 C19.12984795 16.54687968 16.45602447 16.46323773 13.78125 16.37890625 C12.85248047 16.36472656 11.92371094 16.35054687 10.96679688 16.3359375 C10.07412109 16.30371094 9.18144531 16.27148438 8.26171875 16.23828125 C7.02844849 16.20686035 7.02844849 16.20686035 5.77026367 16.17480469 C2.87774455 15.44932261 2.27940143 13.99831239 0.59375 11.62890625 C-0.39625 11.62890625 -1.38625 11.62890625 -2.40625 11.62890625 Z M5.59375 30.62890625 C5.92375 31.28890625 6.25375 31.94890625 6.59375 32.62890625 C11.21375 32.62890625 15.83375 32.62890625 20.59375 32.62890625 C20.92375 31.96890625 21.25375 31.30890625 21.59375 30.62890625 C16.31375 30.62890625 11.03375 30.62890625 5.59375 30.62890625 Z M4.59375 34.62890625 C4.59375 35.61890625 4.59375 36.60890625 4.59375 37.62890625 C5.58375 37.62890625 6.57375 37.62890625 7.59375 37.62890625 C7.26375 36.63890625 6.93375 35.64890625 6.59375 34.62890625 C5.93375 34.62890625 5.27375 34.62890625 4.59375 34.62890625 Z M18.59375 34.62890625 C18.59375 35.61890625 18.59375 36.60890625 18.59375 37.62890625 C19.58375 37.62890625 20.57375 37.62890625 21.59375 37.62890625 C21.59375 36.63890625 21.59375 35.64890625 21.59375 34.62890625 C20.60375 34.62890625 19.61375 34.62890625 18.59375 34.62890625 Z " fill="#222220" transform="translate(13.40625,-0.62890625)"/>
</svg>
