<?xml version="1.0" encoding="UTF-8"?>
<svg xmlns="http://www.w3.org/2000/svg" xmlns:xlink="http://www.w3.org/1999/xlink" width="15px" height="15px" viewBox="0 0 15 15" version="1.1">
<g id="surface1">
<path style="fill:none;stroke-width:2;stroke-linecap:butt;stroke-linejoin:miter;stroke:rgb(100%,100%,100%);stroke-opacity:1;stroke-miterlimit:4;" d="M 21 12 C 21 7.03125 16.96875 3 12 3 C 7.03125 3 3 7.03125 3 12 C 3 16.96875 7.03125 21 12 21 C 16.96875 21 21 16.96875 21 12 Z M 21 12 " transform="matrix(0.625,0,0,0.625,0,0)"/>
<path style=" stroke:none;fill-rule:nonzero;fill:rgb(100%,100%,100%);fill-opacity:1;" d="M 8.25 4.6875 C 8.25 4.273438 7.914062 3.9375 7.5 3.9375 C 7.085938 3.9375 6.75 4.273438 6.75 4.6875 C 6.75 5.101562 7.085938 5.4375 7.5 5.4375 C 7.914062 5.4375 8.25 5.101562 8.25 4.6875 Z M 8.25 4.6875 "/>
<path style=" stroke:none;fill-rule:nonzero;fill:rgb(100%,100%,100%);fill-opacity:1;" d="M 7.5 6.25 C 7.84375 6.25 8.125 6.53125 8.125 6.875 L 8.125 10 C 8.125 10.34375 7.84375 10.625 7.5 10.625 C 7.15625 10.625 6.875 10.34375 6.875 10 L 6.875 6.875 C 6.875 6.53125 7.15625 6.25 7.5 6.25 Z M 7.5 6.25 "/>
</g>
</svg>
