 <svg  version="1.0" xmlns="http://www.w3.org/2000/svg"  width="50.000000pt" height="50.000000pt" viewBox="0 0 50.000000 50.000000"  preserveAspectRatio="xMidYMid meet">  <g transform="translate(0.000000,50.000000) scale(0.100000,-0.100000)" fill="#499cd5" stroke="none"> <path d="M222 458 c-16 -17 -34 -23 -64 -23 -40 0 -43 -2 -50 -35 -6 -24 -19 -41 -40 -53 -26 -15 -29 -21 -23 -45 9 -34 9 -70 0 -104 -6 -23 -3 -29 23 -42 20 -10 33 -26 37 -45 9 -40 28 -54 63 -47 21 5 33 2 47 -14 23 -26 57 -26 80 0 14 16 26 19 47 14 35 -7 54 7 63 47 4 19 17 35 37 45 26 13 29 19 23 42 -9 34 -9 70 0 103 6 23 2 30 -24 45 -21 12 -33 29 -37 51 -7 35 -37 52 -70 39 -9 -4 -28 4 -46 19 -36 31 -38 31 -66 3z m65 -28 c19 -15 35 -19 58 -14 31 5 33 4 39 -30 5 -26 15 -40 37 -52 23 -11 29 -20 24 -32 -16 -36 -17 -64 -5 -88 8 -13 11 -25 9 -27 -2 -2 -16 -11 -31 -20 -16 -10 -31 -31 -36 -49 -7 -30 -11 -33 -43 -30 -25 2 -40 -3 -53 -17 -24 -26 -38 -26 -62 0 -13 14 -28 19 -53 17 -32 -3 -36 0 -45 31 -6 21 -21 40 -38 50 -22 12 -27 21 -22 36 9 28 9 77 0 97 -6 12 0 20 22 32 18 9 32 27 38 48 9 30 14 33 47 33 21 0 43 7 54 18 22 22 29 21 60 -3z"/> <path d="M178 359 c-18 -10 -24 -45 -10 -65 15 -22 42 -24 62 -4 25 25 25 42 2 63 -21 19 -30 20 -54 6z m42 -24 c15 -18 5 -35 -21 -35 -12 0 -19 7 -19 18 0 33 20 42 40 17z"/> <path d="M247 262 c-72 -72 -102 -112 -84 -112 7 0 187 184 187 192 0 19 -20 3 -103 -80z"/> <path d="M277 212 c-30 -33 -15 -72 28 -72 44 0 63 60 26 80 -27 14 -35 13 -54 -8z m53 -33 c0 -12 -7 -19 -19 -19 -26 0 -36 17 -21 35 15 18 40 8 40 -16z"/> <path d="M57 103 c-4 -3 -7 -12 -7 -20 0 -15 26 -18 34 -4 7 11 -18 33 -27 24z"/> </g> </svg> 