<svg width="100" height="100" viewBox="0 0 24 24" fill="none" xmlns="http://www.w3.org/2000/svg">
  <path d="M12 2C12.5523 2 13 2.44772 13 3V15.5858L16.2929 12.2929C16.6834 11.9024 17.3166 11.9024 17.7071 12.2929C18.0976 12.6834 18.0976 13.3166 17.7071 13.7071L12.7071 18.7071C12.3166 19.0976 11.6834 19.0976 11.2929 18.7071L6.29289 13.7071C5.90237 13.3166 5.90237 12.6834 6.29289 12.2929C6.68342 11.9024 7.31658 11.9024 7.70711 12.2929L11 15.5858V3C11 2.44772 11.4477 2 12 2Z" fill="#000"/>
  <path d="M4 20C4 19.4477 4.44772 19 5 19H19C19.5523 19 20 19.4477 20 20C20 20.5523 19.5523 21 19 21H5C4.44772 21 4 20.5523 4 20Z" fill="#000"/>
</svg>
