<?xml version="1.0" encoding="UTF-8"?>
<svg width="44px" height="47px" viewBox="0 0 44 47" version="1.1" xmlns="http://www.w3.org/2000/svg" xmlns:xlink="http://www.w3.org/1999/xlink">
    <title>eligibilty criteria icon</title>
    <defs>
        <polygon id="path-1" points="0 0 30 0 30 37 0 37"></polygon>
        <polygon id="path-3" points="0 0 22 0 22 22 0 22"></polygon>
    </defs>
    <g id="desktop" stroke="none" stroke-width="1" fill="none" fill-rule="evenodd">
        <g id="category-page-mob" transform="translate(-45.000000, -18332.000000)">
            <g id="eligibilty-criteria-icon" transform="translate(45.000000, 18332.000000)">
                <g id="Group-3">
                    <mask id="mask-2" fill="white">
                        <use xlink:href="#path-1"></use>
                    </mask>
                    <g id="Clip-2"></g>
                    <path d="M9.79591837,10.4520542 C9.79591837,5.69992621 13.6394558,1.83882222 18.3560091,1.83882222 C23.0725624,1.83882222 26.9047619,5.69992621 26.9047619,10.4520542 C26.9047619,15.2041822 23.0725624,19.0652862 18.3560091,19.0652862 C13.6394558,19.0652862 9.79591837,15.2041822 9.79591837,10.4520542 M28.8208617,22.3780677 C27.4489796,21.40708 25.952381,20.6417133 24.3537415,20.0819674 L23.2993197,19.7049957 L24.2176871,19.0652862 C27.0408163,17.1118874 28.7301587,13.890493 28.7301587,10.4520542 C28.7301587,4.69466837 24.0702948,-0.000342701536 18.3560091,-0.000342701536 C12.6303855,-0.000342701536 7.98185941,4.69466837 7.98185941,10.4520542 C7.98185941,13.890493 9.65986395,17.1118874 12.4829932,19.0652862 L13.4126984,19.7049957 L12.3469388,20.0819674 C9.71655329,20.9958382 7.36961451,22.4808782 5.37414966,24.4913939 C2.04081633,27.8498689 0.14739229,32.2707188 0,37 L1.82539683,37 C2.13151927,28.0669132 9.42176871,20.9044511 18.3560091,20.9044511 C21.5646259,20.9044511 24.5464853,21.8297453 27.0861678,23.4290191 C27.5283447,23.7031803 27.9591837,24.0001883 28.3673469,24.3200431 C28.9795918,23.9659182 29.5238095,23.6117933 30,23.2805151 C29.6258503,22.9492369 29.2290249,22.6522289 28.8208617,22.3780677" id="Fill-1" fill="#4196D2" mask="url(#mask-2)"></path>
                </g>
                <path d="M20.6726787,41 L1.32732131,41 C1.14584725,41 1,40.5525 1,40 L1,40 C1,39.4475 1.14584725,39 1.32732131,39 L20.6726787,39 C20.8541527,39 21,39.4475 21,40 L21,40 C21,40.5525 20.8541527,41 20.6726787,41" id="Fill-4" fill="#EA9AA6"></path>
                <g id="Group-8" transform="translate(22.000000, 25.000000)">
                    <mask id="mask-4" fill="white">
                        <use xlink:href="#path-3"></use>
                    </mask>
                    <g id="Clip-7"></g>
                    <path d="M11.0000572,2.00281955 C6.03852897,2.00281955 2.00292375,6.03935931 2.00292375,10.999485 C2.00292375,15.9607551 6.03852897,19.9972949 11.0000572,19.9972949 C15.9615855,19.9972949 19.9971907,15.9607551 19.9971907,10.999485 C19.9971907,6.03935931 15.9615855,2.00281955 11.0000572,2.00281955 M11.0000572,22.0001144 C4.93405959,22.0001144 0,17.0651671 0,10.999485 C0,4.93494738 4.93405959,0 11.0000572,0 C17.0660549,0 22.0001145,4.93494738 22.0001145,10.999485 C22.0001145,17.0651671 17.0660549,22.0001144 11.0000572,22.0001144" id="Fill-6" fill="#4196D2" mask="url(#mask-4)"></path>
                </g>
                <path d="M28.4420312,37.9545407 L31.2919202,40.853984 C31.7314211,41.1366827 32.3071216,40.9965211 32.5806652,40.5404022 L37.8592548,32.4834897 C38.1316538,32.0273708 37.9965989,31.4287147 37.5582424,31.146016 C37.1187415,30.8633173 36.5418965,31.0034789 36.2694974,31.4595978 L31.4842019,38.6909827 L29.4286192,36.3046732 C28.9902628,36.0219745 28.4134178,36.162136 28.1410188,36.6170671 C27.8686198,37.073186 28.0025302,37.671842 28.4420312,37.9545407" id="Fill-9" fill="#EA9AA6"></path>
            </g>
        </g>
    </g>
</svg>