<?xml version="1.0" encoding="UTF-8"?>
<svg version="1.1" xmlns="http://www.w3.org/2000/svg" width="48" height="48">
<path d="M0 0 C0.80232056 -0.00241196 1.60464111 -0.00482391 2.43127441 -0.00730896 C4.12236489 -0.00633237 5.81348807 0.00701667 7.50439453 0.03198242 C10.08607073 0.06630416 12.6643234 0.05263157 15.24609375 0.03320312 C16.89324367 0.04010196 18.54038479 0.0497747 20.1875 0.0625 C20.95533813 0.05754013 21.72317627 0.05258026 22.51428223 0.04747009 C27.48642674 0.15618995 30.11272626 1.05818691 33.59375 4.62890625 C35.18332359 7.80805342 34.79908722 11.24875007 34.83203125 14.7421875 C34.840103 15.5487529 34.84817474 16.3553183 34.85649109 17.18632507 C34.87033143 18.89527232 34.88105382 20.60424721 34.88891602 22.31323242 C34.90611506 24.92094655 34.94999794 27.52738812 34.99414062 30.13476562 C35.00426897 31.7955636 35.01278463 33.45637235 35.01953125 35.1171875 C35.03703934 35.8944368 35.05454742 36.6716861 35.07258606 37.4724884 C35.05864148 40.97075464 34.67249715 43.46794534 33.12963867 46.62158203 C29.39736035 49.57592808 26.2321117 49.33086958 21.59375 49.2578125 C20.72105469 49.26022446 19.84835938 49.26263641 18.94921875 49.26512146 C17.10672454 49.26414329 15.26420084 49.2507568 13.421875 49.22583008 C10.60315016 49.19152067 7.78756063 49.205171 4.96875 49.22460938 C3.17707 49.21771075 1.38539809 49.20803821 -0.40625 49.1953125 C-1.24800781 49.20027237 -2.08976563 49.20523224 -2.95703125 49.21034241 C-6.54423358 49.13821583 -8.80552756 48.98280495 -11.93334961 47.14013672 C-14.07503801 43.48865207 -13.99766013 40.00022782 -13.97265625 35.8828125 C-13.97885483 35.03468491 -13.98505341 34.18655731 -13.99143982 33.31272888 C-13.99853375 31.52156724 -13.99537135 29.73033961 -13.98266602 27.93920898 C-13.96881214 25.20367553 -14.00285859 22.47157203 -14.04101562 19.73632812 C-14.04196699 17.99348875 -14.04010704 16.2506451 -14.03515625 14.5078125 C-14.04841446 13.69308975 -14.06167267 12.878367 -14.07533264 12.03895569 C-14.00925318 7.99228534 -13.69233328 6.05728553 -11.39233398 2.61328125 C-7.57477014 0.07635386 -4.43738915 -0.0766201 0 0 Z M7.59375 13.62890625 C7.17649322 17.25490047 7.17649322 17.25490047 7.59375 20.62890625 C6.60375 20.62890625 5.61375 20.62890625 4.59375 20.62890625 C4.59375 21.94890625 4.59375 23.26890625 4.59375 24.62890625 C5.58375 24.62890625 6.57375 24.62890625 7.59375 24.62890625 C7.59375 29.24890625 7.59375 33.86890625 7.59375 38.62890625 C8.91375 38.62890625 10.23375 38.62890625 11.59375 38.62890625 C11.59375 34.00890625 11.59375 29.38890625 11.59375 24.62890625 C13.24375 24.29890625 14.89375 23.96890625 16.59375 23.62890625 C16.59375 22.63890625 16.59375 21.64890625 16.59375 20.62890625 C14.94375 20.62890625 13.29375 20.62890625 11.59375 20.62890625 C11.92375 18.97890625 12.25375 17.32890625 12.59375 15.62890625 C13.91375 15.29890625 15.23375 14.96890625 16.59375 14.62890625 C16.59375 13.30890625 16.59375 11.98890625 16.59375 10.62890625 C12.2873073 10.62890625 10.81272087 10.85701467 7.59375 13.62890625 Z " fill="#222220" transform="translate(13.40625,-0.62890625)"/>
</svg>
