<svg width="1283" height="56" viewBox="0 0 1283 56" fill="none" xmlns="http://www.w3.org/2000/svg">
<rect width="1282.66" height="56" rx="16" fill="white"/>
<path d="M0 12C0 5.37258 5.37258 0 12 0H1270.66C1277.28 0 1282.66 5.37258 1282.66 12V44C1282.66 50.6274 1277.28 56 1270.66 56H12C5.3726 56 0 50.6274 0 44V12Z" fill="white"/>
<path d="M30.8105 27.5942H32.5432C33.4259 27.5942 34.0471 28.1664 34.0471 28.9837C34.0471 29.801 33.4259 30.3732 32.5432 30.3732H31.6115V31.8117H30.8105V27.5942ZM31.6115 29.7357H32.4125C32.8865 29.7357 33.2134 29.4251 33.2134 28.9837C33.2134 28.5423 32.8865 28.2318 32.4125 28.2318H31.6115V29.7357Z" fill="#00205B"/>
<path d="M35.5835 27.5942H36.3518L38.0845 31.8117H37.2508L36.8585 30.8145H35.0932L34.7008 31.8117H33.8672L35.5835 27.5942ZM35.3057 30.2097H36.6297L35.9758 28.526L35.3057 30.2097Z" fill="#00205B"/>
<path d="M38.5259 27.5942H39.3268V31.4848V31.8117H38.5259V27.5942Z" fill="#00205B"/>
<path d="M40.2915 27.5942H41.1088L43.3482 30.6674V27.5942H44.1165V31.8117H43.2992L41.0598 28.7385V31.8117H40.2915V27.5942Z" fill="#00205B"/>
<path d="M46.1267 28.2652H44.7373V27.6113H48.3171V28.2652H46.9277V31.8288H46.1267V28.2652Z" fill="#00205B"/>
<path d="M53.8255 24.3745C53.8255 25.437 52.8774 26.1563 51.537 26.1563C50.8341 26.1563 50.0658 26.0091 49.2485 25.6822L49.5918 24.5216C50.262 24.7831 50.8995 24.9466 51.4062 24.9466C51.962 24.9466 52.2726 24.7341 52.2726 24.3908C52.2726 23.4264 49.2649 24.1456 49.2649 21.9552C49.2649 20.9253 50.1966 20.2061 51.5207 20.2061C52.1908 20.2061 52.861 20.3368 53.5966 20.6147L53.2533 21.7753C52.6649 21.5465 52.1255 21.4321 51.6351 21.4321C51.1283 21.4321 50.8014 21.6282 50.8014 21.9552C50.8178 22.8706 53.8255 22.1186 53.8255 24.3745Z" fill="#00205B"/>
<path d="M60.5278 20.3047V26.0587H62.0971V25.6828V20.3047H60.5278Z" fill="#00205B"/>
<path d="M46.879 23.6067C45.8002 22.1028 44.4434 20.5008 44.2473 20.3047H42.7598V26.0587H44.2146V22.4625C44.9665 23.3452 46.2905 25.2087 46.8136 26.0587H48.3338V20.3047H46.8954L46.879 23.6067Z" fill="#00205B"/>
<path d="M40.0296 20.3039H38.4113C37.3815 22.4454 36.5478 24.7993 36.2372 25.9272L33.7853 22.9685C34.5372 22.2329 35.6815 20.9251 36.1555 20.2876H34.2921C33.8997 20.778 32.6084 22.1348 32.3305 22.38V20.2876H30.8267V26.0416H32.3305V24.3579C32.3305 24.3579 32.6574 24.0637 32.7882 23.9329L34.5372 26.0416H37.7247C37.7411 25.9599 37.9863 25.2407 38.1007 24.881H40.3728C40.5036 25.2407 40.7324 25.9599 40.7488 26.0416H42.2526C41.9421 24.9791 41.0921 22.5271 40.0296 20.3039ZM38.493 23.7531C38.5257 23.6714 38.9997 22.4617 39.2122 21.9713C39.4247 22.4617 39.8988 23.655 39.9315 23.7531H38.493Z" fill="#00205B"/>
<path d="M57.7977 20.3047H56.1794C55.1169 22.5442 54.2505 24.9962 53.9727 26.0587H55.4765C55.4929 25.977 55.738 25.2577 55.8525 24.8981H58.1246C58.2554 25.2577 58.4842 25.977 58.5005 26.0587H60.0044C59.7265 24.9799 58.8765 22.5278 57.7977 20.3047ZM56.2775 23.7538C56.3102 23.6721 56.7842 22.4625 56.9967 21.9721C57.2092 22.4625 57.6832 23.6558 57.7159 23.7538H56.2775Z" fill="#00205B"/>
<path d="M21.2798 32.9895H17.5692C17.2423 32.9895 16.85 32.6626 16.5394 32.352C16.3269 32.1558 16 31.7798 16 31.4202C16 31.4202 16 31.3875 16 31.3548C16.049 30.9789 16.6375 30.2433 17.4712 29.3442C17.7654 29.6711 18.125 30.0634 18.5827 30.5375C19.2692 31.2731 20.4135 32.352 21.2798 32.9895ZM17.8308 22.168C16.2942 23.7046 16 24.293 16 24.6363C16 24.996 16.2615 25.4864 16.7029 26.0421C17.226 25.4046 18.0106 24.62 18.9587 23.6882C18.4192 23.018 18.0433 22.5113 17.8308 22.168ZM20.9039 25.9114C20.1519 26.647 19.3673 27.3989 18.6481 28.1182C19.0894 28.5432 19.5471 28.9846 20.0375 29.4586C21.2635 30.6192 23.5519 32.5154 24.2712 32.9895H28.9625C28.1779 32.401 24.8923 29.9654 22.0154 27.072C21.6231 26.6633 21.2471 26.271 20.9039 25.9114Z" fill="url(#paint0_linear_1771_17846)"/>
<path d="M28.9625 19.1265C28.1452 19.6986 24.925 21.9708 21.7865 25.044C19.3183 27.4796 16 30.5365 16 31.4029C16 31.4846 16 27.3816 16 27.3816C16 26.4988 17.6346 24.9786 19.9394 22.7064C22.6365 20.1727 24.0587 19.2245 24.2712 19.1265H28.9625ZM21.2798 19.1265H17.5692C17.3567 19.1265 16.9154 19.3553 16.5558 19.7476C16.3106 20.0092 16 20.3852 16 20.6958C16 20.7938 16 23.6382 16 24.6353C16 24.243 16.3596 23.5728 18.3865 21.6112C19.1221 20.9083 20.4135 19.764 21.2798 19.1265Z" fill="url(#paint1_linear_1771_17846)"/>
<path d="M74.1866 25.7205C74.1702 25.9167 74.1376 26.1292 74.1376 26.3253C74.1376 29.4639 74.1376 32.6025 74.1376 35.7411C74.1376 36.4767 74.0395 36.5747 73.3202 36.5747C72.8135 36.5747 72.3068 36.5747 71.8001 36.5747C71.2116 36.5747 71.1135 36.4767 71.0972 35.8555C71.0972 35.4141 71.0972 34.9891 71.0972 34.5477C71.0972 29.6764 71.0972 24.8051 71.1135 19.9338C71.1135 19.7213 71.2279 19.3943 71.3751 19.3126C71.6693 19.1655 72.0289 19.1491 72.3231 19.4597C74.6279 21.9281 76.9491 24.3801 79.2539 26.8484C80.1529 27.8129 81.052 28.761 81.9674 29.7091C82.0654 29.8072 82.1799 29.8889 82.3924 30.0524C82.4087 29.6928 82.4414 29.4639 82.4414 29.2351C82.4414 26.3417 82.4414 23.432 82.4414 20.5386C82.4414 19.5088 82.4414 19.5088 83.4549 19.4924C83.9289 19.4924 84.4193 19.4924 84.8933 19.4924C85.4001 19.4924 85.5145 19.6232 85.5308 20.1463C85.5308 20.4242 85.5308 20.7184 85.5308 20.9963C85.5308 26.0311 85.5308 31.0659 85.5308 36.117C85.5308 36.7382 85.351 36.9017 84.7626 36.8199C84.6155 36.8036 84.4683 36.6892 84.3703 36.5911C82.6376 34.6949 80.9049 32.7986 79.1722 30.9024C77.701 29.2841 76.2299 27.6821 74.7587 26.0638C74.6279 25.933 74.4808 25.8186 74.3337 25.6878C74.2847 25.6878 74.2356 25.7042 74.1866 25.7205Z" fill="#E91A4E"/>
<path d="M102.662 28.0248C102.662 25.4747 102.662 22.9083 102.662 20.3582C102.662 19.5736 102.711 19.5082 103.495 19.5082C105.735 19.5082 107.974 19.4755 110.23 19.5082C113.205 19.5409 115.542 21.9929 115.412 24.9516C115.314 26.9296 114.235 28.3191 112.567 29.2835C112.453 29.3489 112.339 29.4143 112.208 29.4633C111.897 29.5941 111.815 29.7739 111.995 30.1009C112.649 31.3105 113.303 32.5202 113.94 33.7298C114.316 34.4164 114.692 35.0866 115.052 35.7732C115.346 36.329 115.183 36.5905 114.578 36.5905C113.859 36.5905 113.14 36.5742 112.42 36.5905C112.077 36.6069 111.897 36.4434 111.75 36.1655C110.835 34.351 109.936 32.5365 109.02 30.722C108.939 30.5749 108.873 30.4278 108.808 30.2807C108.677 29.9701 108.465 29.8393 108.121 29.8393C107.549 29.872 106.993 29.8393 106.421 29.8393C105.784 29.8393 105.751 29.8557 105.751 30.4768C105.751 32.2096 105.751 33.9423 105.751 35.6751C105.751 35.8059 105.751 35.9366 105.751 36.0838C105.735 36.378 105.588 36.5578 105.277 36.5578C104.574 36.5578 103.871 36.5742 103.168 36.5578C102.76 36.5578 102.694 36.2799 102.694 35.9366C102.694 34.6779 102.694 33.4192 102.694 32.1769C102.678 30.8038 102.678 29.4143 102.662 28.0248C102.678 28.0248 102.678 28.0248 102.662 28.0248ZM105.751 24.8045C105.751 25.4584 105.767 26.1123 105.751 26.7825C105.735 27.1585 105.865 27.3219 106.258 27.3219C107.467 27.3056 108.677 27.3219 109.887 27.3056C110.933 27.3056 111.636 26.7498 112.077 25.8507C112.878 24.1997 111.717 22.3689 109.821 22.3198C108.644 22.2871 107.467 22.3198 106.29 22.3035C105.865 22.3035 105.735 22.4833 105.751 22.8756C105.767 23.5131 105.751 24.167 105.751 24.8045Z" fill="#E91A4E"/>
<path d="M120.528 35.1852C121.198 35.3487 121.869 35.5612 122.555 35.6593C125.252 36.0189 127.541 35.1689 129.371 33.1746C130.941 31.4745 131.644 29.4312 131.284 27.159C130.63 22.9252 125.808 20.8491 122.31 23.3338C119.956 25.0176 119.09 28.2542 120.692 30.9514C122.048 33.24 124.795 34.2861 127.23 33.5178C127.345 33.4852 127.459 33.4525 127.573 33.4198C127.59 33.4525 127.622 33.4852 127.639 33.5178C127.328 33.714 127.034 33.9265 126.707 34.09C123.83 35.5285 120.43 34.8256 118.387 32.3572C116.507 30.085 116.376 27.5349 117.357 24.8868C118.746 21.1761 122.277 18.8712 126.233 19.1491C131.349 19.5251 134.929 23.9223 134.439 28.8263C134.096 32.3245 132.232 34.8256 128.996 36.166C126.053 37.392 123.193 36.9997 120.528 35.1852Z" fill="#E91A4E"/>
<path d="M89.0942 28.0093C89.0942 25.4429 89.0942 22.8601 89.0942 20.2937C89.0942 19.5744 89.176 19.4927 89.8952 19.4927C93.0173 19.4927 96.1394 19.4927 99.2779 19.4927C99.801 19.4927 99.9154 19.6071 99.9154 20.1302C99.9154 20.6206 99.9154 21.111 99.9154 21.6178C99.9154 22.2389 99.8337 22.3207 99.2289 22.3207C97.1856 22.3207 95.126 22.3207 93.0827 22.3207C92.1837 22.3207 92.1837 22.3207 92.1837 23.2361C92.1837 24.0861 92.1837 24.9361 92.1837 25.7862C92.1837 26.4564 92.2164 26.4727 92.8539 26.4727C94.5375 26.4727 96.2375 26.4727 97.9212 26.4727C98.6404 26.4727 98.7385 26.5708 98.7385 27.2574C98.7385 27.6987 98.7385 28.1564 98.7385 28.5978C98.7385 29.2026 98.6404 29.3171 98.0356 29.3171C96.3029 29.3171 94.5702 29.3171 92.8375 29.3171C92.1837 29.3171 92.1837 29.3171 92.1837 29.9709C92.1837 31.0498 92.2 32.1287 92.1837 33.2076C92.1837 33.6162 92.3308 33.7634 92.7394 33.7634C94.8808 33.747 97.0221 33.7634 99.1471 33.7634C99.8664 33.7634 99.9154 33.8288 99.9318 34.5153C99.9318 35.0057 99.9481 35.4961 99.9481 36.0029C99.9481 36.3952 99.7683 36.6077 99.3433 36.6077C96.1394 36.6077 92.9519 36.5913 89.7481 36.6077C89.2904 36.6077 89.1433 36.3788 89.1433 35.9702C89.1433 34.3028 89.1269 32.6191 89.1269 30.9517C89.0942 29.9546 89.0942 28.9738 89.0942 28.0093Z" fill="#E91A4E"/>
<path d="M161.753 36.5912C161.606 36.5912 161.458 36.5749 161.311 36.5912C160.543 36.722 160.167 36.3297 159.906 35.6595C159.66 35.0383 159.35 34.4335 159.072 33.8286C158.957 33.5507 158.778 33.4527 158.483 33.4527C156.293 33.4527 154.086 33.4527 151.896 33.4527C151.553 33.4527 151.389 33.5998 151.258 33.894C150.948 34.6133 150.588 35.3325 150.278 36.0518C150.098 36.4278 149.836 36.6239 149.411 36.6076C148.823 36.5912 148.251 36.6076 147.662 36.6076C147.09 36.5912 146.927 36.3624 147.172 35.8393C148.234 33.5344 149.313 31.2295 150.376 28.9246C151.732 26.0149 153.073 23.1052 154.413 20.1791C154.495 19.9993 154.544 19.8031 154.675 19.656C154.838 19.4925 155.051 19.2964 155.263 19.2964C155.443 19.2964 155.688 19.4925 155.803 19.656C156.031 20.032 156.179 20.4734 156.358 20.882C158.451 25.4428 160.543 30.0035 162.635 34.5642C162.848 35.0056 163.028 35.4633 163.224 35.921C163.404 36.346 163.257 36.5749 162.799 36.5912C162.439 36.5912 162.096 36.5749 161.753 36.5912C161.753 36.5749 161.753 36.5749 161.753 36.5912ZM155.132 30.8372C155.819 30.8372 156.506 30.8372 157.192 30.8372C157.503 30.8372 157.682 30.7227 157.519 30.3631C156.8 28.7938 156.081 27.2082 155.361 25.6389C155.329 25.5572 155.214 25.4264 155.165 25.4428C155.067 25.4591 154.969 25.5572 154.92 25.6553C154.217 27.2245 153.531 28.7938 152.828 30.3468C152.664 30.7227 152.795 30.8372 153.155 30.8372C153.825 30.8372 154.479 30.8372 155.132 30.8372Z" fill="#E91A4E"/>
<path d="M162.767 28.0253C162.783 23.8569 165.66 20.277 169.779 19.4433C172.574 18.8875 175.157 19.4269 177.347 21.3885C177.723 21.7318 177.74 21.9116 177.38 22.2876C177.004 22.6799 176.645 23.0723 176.269 23.4482C175.86 23.8569 175.746 23.8569 175.288 23.4973C173.768 22.304 172.051 21.9116 170.188 22.4184C167.899 23.0559 166.265 25.1319 166.134 27.5186C166.003 29.8235 166.87 31.7033 168.847 32.913C170.727 34.0736 172.672 33.9919 174.601 32.913C174.879 32.7659 175.141 32.5861 175.386 32.4062C175.68 32.2101 175.942 32.2101 176.187 32.4553C176.628 32.8966 177.07 33.3544 177.495 33.8121C177.789 34.1226 177.642 34.4169 177.364 34.6131C176.546 35.1525 175.762 35.7737 174.879 36.1823C173.245 36.9179 171.512 36.9997 169.746 36.64C165.644 35.7737 162.75 32.2101 162.767 28.0253Z" fill="#E91A4E"/>
<path d="M136.711 28.0423C136.711 25.574 136.711 23.1056 136.711 20.6536C136.711 20.4738 136.727 20.294 136.727 20.1141C136.711 19.6728 136.923 19.493 137.365 19.5093C137.97 19.5257 138.591 19.5257 139.196 19.5093C139.621 19.5093 139.8 19.7055 139.8 20.0978C139.8 20.343 139.8 20.5719 139.8 20.8171C139.8 24.9037 139.8 28.9741 139.8 33.0608C139.8 33.7473 139.8 33.7637 140.503 33.7637C142.138 33.7637 143.756 33.7637 145.391 33.7637C145.947 33.7637 146.077 33.8944 146.077 34.4502C146.077 34.957 146.077 35.4637 146.077 35.9705C146.061 36.4445 145.93 36.5916 145.456 36.5916C142.743 36.5916 140.013 36.5916 137.299 36.5916C136.842 36.5916 136.711 36.4282 136.711 35.8887C136.711 33.731 136.711 31.5895 136.711 29.4318C136.711 28.9577 136.711 28.5 136.711 28.0423Z" fill="#E91A4E"/>
<defs>
<linearGradient id="paint0_linear_1771_17846" x1="16" y1="27.5787" x2="28.9625" y2="27.5787" gradientUnits="userSpaceOnUse">
<stop stop-color="#8A2432"/>
<stop offset="0.0364" stop-color="#991F31"/>
<stop offset="0.1438" stop-color="#BF132E"/>
<stop offset="0.2" stop-color="#CE0E2D"/>
</linearGradient>
<linearGradient id="paint1_linear_1771_17846" x1="16" y1="25.2653" x2="28.9625" y2="25.2653" gradientUnits="userSpaceOnUse">
<stop stop-color="#00AAE7"/>
<stop offset="0.067" stop-color="#009EDE"/>
<stop offset="0.2576" stop-color="#0080C9"/>
<stop offset="0.4219" stop-color="#006EBD"/>
<stop offset="0.54" stop-color="#0068B8"/>
</linearGradient>
</defs>
</svg>
