<svg width="16" height="16" viewBox="0 0 16 16" fill="none" xmlns="http://www.w3.org/2000/svg">
<g id="Star">
<path id="Base" d="M7.6328 1.13009C7.74837 0.774388 8.2516 0.774386 8.36718 1.13009L9.70942 5.26109C9.7611 5.42016 9.90934 5.52786 10.0766 5.52786H14.4202C14.7942 5.52786 14.9497 6.00646 14.6471 6.2263L11.1331 8.77939C10.9978 8.87771 10.9411 9.05197 10.9928 9.21105L12.3351 13.342C12.4507 13.6977 12.0435 13.9935 11.741 13.7737L8.22692 11.2206C8.09161 11.1223 7.90837 11.1223 7.77305 11.2206L4.25902 13.7737C3.95644 13.9935 3.54933 13.6978 3.6649 13.342L5.00714 9.21105C5.05883 9.05197 5.00221 8.87771 4.86689 8.77939L1.35286 6.2263C1.05028 6.00646 1.20578 5.52786 1.57979 5.52786H5.92337C6.09063 5.52786 6.23887 5.42016 6.29056 5.26109L7.6328 1.13009Z" fill="url(#paint0_radial_865_11757)"/>
<g id="Highlight" style="mix-blend-mode:screen">
<path d="M7.63383 1.13009C7.74941 0.774388 8.25263 0.774386 8.36821 1.13009L9.71045 5.26109C9.76213 5.42016 9.91037 5.52786 10.0776 5.52786H15.0583L12.361 6.51392C9.51718 7.55352 7.04174 9.40613 5.24246 11.8414L4.00472 13.5166C3.87461 13.6927 3.59821 13.5505 3.66586 13.3423L5.00817 9.21105C5.05986 9.05197 5.00324 8.87771 4.86792 8.77939L1.35389 6.2263C1.05131 6.00646 1.20681 5.52786 1.58082 5.52786H5.9244C6.09167 5.52786 6.2399 5.42016 6.29159 5.26109L7.63383 1.13009Z" fill="url(#paint1_radial_865_11757)"/>
</g>
</g>
<defs>
<radialGradient id="paint0_radial_865_11757" cx="0" cy="0" r="1" gradientUnits="userSpaceOnUse" gradientTransform="translate(7.33559 2.31651) rotate(68.1986) scale(12.4748 12.4748)">
<stop stop-color="#FF7C02"/>
<stop offset="1" stop-color="#FFA800"/>
</radialGradient>
<radialGradient id="paint1_radial_865_11757" cx="0" cy="0" r="1" gradientUnits="userSpaceOnUse" gradientTransform="translate(6.17837 5.40518) rotate(53.7462) scale(7.18158 7.18158)">
<stop stop-color="white"/>
<stop offset="1" stop-color="white" stop-opacity="0"/>
</radialGradient>
</defs>
</svg>
