<svg width="48" height="48" viewBox="0 0 48 48" fill="none" xmlns="http://www.w3.org/2000/svg">
<rect width="48" height="48" rx="8" fill="white"/>
<path fill-rule="evenodd" clip-rule="evenodd" d="M30.1312 20.6405H33.8119V34.8458H30.1312V20.6405ZM28.751 19.8354V35.651C28.751 35.9692 29.0826 36.2262 29.3836 36.2262H34.5596C34.887 36.2262 35.1923 35.9081 35.1923 35.5935V19.9504C35.1923 19.5003 34.8947 19.2028 34.4446 19.2028H29.4987C29.0993 19.2028 28.7511 19.4465 28.7511 19.8354H28.751Z" fill="#0073BB"/>
<path fill-rule="evenodd" clip-rule="evenodd" d="M22.4247 24.3213H26.1054V34.8459H22.4247V24.3213ZM21.0444 23.5162V35.5936C21.0444 35.9297 21.341 36.2262 21.6771 36.2262H26.8531C27.1891 36.2262 27.4857 35.9297 27.4857 35.5936V23.5162C27.4857 23.1516 27.1192 22.8836 26.7381 22.8836H21.7921C21.3993 22.8836 21.0445 23.1477 21.0445 23.5162H21.0444Z" fill="#0073BB"/>
<path fill-rule="evenodd" clip-rule="evenodd" d="M30.4189 13.1641C30.376 13.2225 30.048 13.51 29.9673 13.5751L26.9598 16.0887C26.0687 16.8085 22.8815 19.6241 22.4823 19.8354C21.7713 19.3593 20.2864 17.3624 19.7218 17.3624C19.4148 17.3624 19.2937 17.4148 19.0731 17.634L17.3482 19.1872C17.1763 19.3528 17.0879 19.4647 16.9037 19.6053C15.3763 20.7708 16.5592 21.4269 17.0285 21.2875C17.3499 21.192 18.4114 20.0935 18.7773 19.811C19.1076 19.5559 19.3271 19.2559 19.6642 19.0302C19.8383 19.2901 21.1725 20.5669 21.5764 20.9712C21.8987 21.2938 22.0016 21.5031 22.4823 21.5031C22.8528 21.5031 23.9339 20.4326 24.2566 20.1719C24.4553 20.0114 24.6698 19.8531 24.8546 19.6772L28.8166 16.3351C29.0267 16.1654 29.19 16.0053 29.4008 15.8267L31.372 14.1746C31.5128 14.0643 31.5493 14.0018 31.684 13.9115C31.684 14.43 31.6844 14.9483 31.6816 15.4667C31.68 15.7753 31.7061 15.9344 31.8435 16.11C32.2065 16.5741 33.1218 16.4806 33.1218 15.4644V12.5888C33.1218 12.1246 32.9395 11.7261 32.4891 11.7261H28.9809C28.4484 11.7261 28.0449 12.4376 28.5309 12.9237C28.8826 13.2754 29.7279 13.1639 30.4187 13.1639L30.4189 13.1641Z" fill="#0073BB"/>
<path fill-rule="evenodd" clip-rule="evenodd" d="M14.7181 28.002H18.3988V34.8459H14.7181V28.002ZM13.3379 27.3119V35.5935C13.3379 35.9081 13.6431 36.2262 13.9705 36.2262H19.1466C19.4475 36.2262 19.7792 35.9692 19.7792 35.651V27.1969C19.7792 26.8079 19.4309 26.5643 19.0315 26.5643H14.0856C13.6355 26.5643 13.338 26.8619 13.338 27.3119H13.3379Z" fill="#0073BB"/>
<path fill-rule="evenodd" clip-rule="evenodd" d="M12.7627 23.6312C12.7627 24.0352 13.1532 24.363 13.5105 24.3541C13.906 24.3442 14.1344 23.9769 14.3899 23.7632C14.7911 23.4277 15.8108 22.624 15.8108 22.1935C15.8108 21.8201 15.2379 20.9919 14.33 21.9204C13.8863 22.3742 12.7627 23.1578 12.7627 23.6313V23.6312Z" fill="#0073BB"/>
</svg>
