<svg width="24" height="24" viewBox="0 0 24 24" fill="none" xmlns="http://www.w3.org/2000/svg">
<path d="M6.83519 12.428C6.81599 12.4088 6.81599 12.3888 6.81599 12.3696C6.79679 12.3504 6.77759 12.3112 6.77759 12.292C6.77759 12.2728 6.75839 12.2528 6.75839 12.2144C6.75839 12.1944 6.73919 12.156 6.73919 12.136C6.73919 12.0976 6.71999 12.0584 6.71999 12.0192V11.9808V11.9416C6.71999 11.9024 6.71999 11.864 6.73919 11.8248C6.73919 11.7856 6.75839 11.7664 6.75839 11.7472C6.75839 11.7272 6.77759 11.708 6.77759 11.6888C6.79679 11.6496 6.81599 11.6304 6.83519 11.5912C6.83519 11.572 6.85439 11.572 6.85439 11.5528C6.89279 11.5128 6.91199 11.4744 6.95039 11.436L10.4256 7.9136C10.7328 7.6016 11.2128 7.6016 11.52 7.9136C11.8272 8.2256 11.8272 8.7112 11.52 9.0224L9.35039 11.2216H17.472C17.8944 11.2216 18.24 11.572 18.24 12C18.24 12.428 17.8944 12.7784 17.472 12.7784H9.35039L11.52 14.9776C11.8272 15.2888 11.8272 15.7752 11.52 16.0864C11.3664 16.2424 11.1744 16.32 10.9824 16.32C10.7904 16.32 10.5984 16.2424 10.4448 16.0864L6.95039 12.5448L6.83519 12.428Z" fill="#333333"/>
</svg>
