<svg width="18" height="18" viewBox="0 0 18 18" fill="none" xmlns="http://www.w3.org/2000/svg">
<g id="Group">
<path id="Vector" fill-rule="evenodd" clip-rule="evenodd" d="M7.41222 2.11734C4.48779 2.11734 2.11734 4.48781 2.11734 7.41222C2.11734 10.3356 4.48781 12.7061 7.41222 12.7061C10.3356 12.7061 12.7061 10.3356 12.7061 7.41222C12.7061 4.48779 10.3356 2.11734 7.41222 2.11734ZM0 7.41222C0 3.31857 3.31857 0 7.41222 0C11.5048 0 14.8234 3.31857 14.8234 7.41222C14.8234 11.5048 11.5048 14.8234 7.41222 14.8234C3.31857 14.8234 0 11.5048 0 7.41222Z" fill="#3F3F3F"/>
<path id="Vector_2" fill-rule="evenodd" clip-rule="evenodd" d="M11.4276 11.4274C11.8416 11.0144 12.5116 11.0144 12.9255 11.4274L17.6903 16.1922C18.1033 16.6061 18.1033 17.2761 17.6903 17.6901C17.2764 18.103 16.6063 18.103 16.1924 17.6901L11.4276 12.9253C11.0147 12.5114 11.0147 11.8413 11.4276 11.4274Z" fill="#3F3F3F"/>
</g>
</svg>
