<svg width="24" height="24" viewBox="0 0 24 24" fill="none" xmlns="http://www.w3.org/2000/svg">
<path fill-rule="evenodd" clip-rule="evenodd" d="M23.8166 9.90583C23.3096 7.0791 21.9561 4.73195 19.7853 2.8625C18.0214 1.34298 15.9783 0.389936 13.6703 0.108579C9.39108 -0.412801 5.78176 0.943726 2.91421 4.17346C1.35697 5.92737 0.428815 8.00115 0.122717 10.3248C-0.318119 13.671 0.474823 16.7138 2.5546 19.3813C4.39728 21.7444 6.81508 23.2062 9.75493 23.791C10.0165 23.8431 10.2825 23.8737 10.5485 23.9043C10.6854 23.92 10.8224 23.9358 10.9587 23.9544C11.0051 23.9608 11.0509 23.9725 11.0968 23.9842L11.0969 23.9842L11.097 23.9842C11.1183 23.9897 11.1396 23.9951 11.161 24H12.8478C12.9829 23.9803 13.1181 23.9619 13.2534 23.9434C13.5412 23.9041 13.8289 23.8648 14.1145 23.814C16.4313 23.4016 18.4538 22.3879 20.1721 20.7839C22.1589 18.929 23.3758 16.6495 23.8434 13.9717C23.8885 13.7124 23.9215 13.4509 23.9545 13.1894L23.9546 13.1889C23.9693 13.0725 23.984 12.9562 23.9997 12.8401V11.152C23.9809 11.0227 23.9632 10.8933 23.9454 10.7638L23.9454 10.7637C23.9061 10.477 23.8668 10.1903 23.8157 9.90583H23.8166ZM18.8435 14.8533C18.8332 15.4888 18.7214 16.1126 18.4473 16.6932C17.8336 17.991 16.7661 18.666 15.3731 18.7871C14.5927 18.8552 13.8079 18.874 13.026 18.8928H13.026L13.0256 18.8928C12.6798 18.9011 12.3346 18.9094 11.9906 18.9219C11.6433 18.9093 11.297 18.8991 10.9514 18.8891L10.9512 18.8891L10.9509 18.8891C10.1837 18.8667 9.42007 18.8444 8.65824 18.7942C6.76203 18.6688 5.34421 17.2413 5.20713 15.3451C5.05408 13.2304 5.09774 11.113 5.17098 8.99694C5.19492 8.30599 5.34609 7.63289 5.69585 7.02509C6.34701 5.89355 7.36436 5.27118 8.63429 5.21059C10.0887 5.14124 11.5463 5.13839 13.0037 5.13554H13.0037C13.412 5.13474 13.8203 5.13394 14.2286 5.13168C14.9065 5.12792 15.5853 5.16268 16.2407 5.37499C17.6721 5.83953 18.498 6.84002 18.7435 8.29988C18.8529 8.95043 18.8754 9.62118 18.8792 10.283C18.8876 11.8063 18.8684 13.33 18.8435 14.8533ZM15.6535 6.50623C15.1183 6.38974 14.5549 6.36297 14.0047 6.36297L13.7716 6.36302H13.7715C12.1173 6.36333 10.4619 6.36363 8.8095 6.42779C7.44286 6.48087 6.52222 7.42827 6.43631 8.79701C6.38988 9.54033 6.36986 10.2852 6.34978 11.0329C6.34102 11.3586 6.33226 11.6849 6.32129 12.0117C6.33276 12.3429 6.34208 12.6747 6.35141 13.007V13.007C6.37223 13.7489 6.39312 14.4928 6.43819 15.2354C6.50908 16.4012 7.20672 17.2349 8.34613 17.4815C8.88931 17.5989 9.45973 17.6285 10.0179 17.6285C11.7578 17.6281 13.4981 17.6252 15.2366 17.5628C16.43 17.5196 17.3032 16.7342 17.5159 15.574C17.6136 15.0404 17.6384 14.4871 17.637 13.9432L17.6366 13.747C17.6326 12.087 17.6286 10.4259 17.5694 8.76742C17.5272 7.58798 16.8079 6.75799 15.6535 6.50717V6.50623ZM12.009 15.5238C10.0405 15.5252 8.47289 13.9521 8.47946 11.9812C8.48604 10.0211 10.0527 8.46352 12.0141 8.46775C13.9742 8.4715 15.5329 10.0361 15.5314 11.9986C15.53 13.9591 13.9681 15.5228 12.009 15.5242V15.5238ZM15.6723 9.13755C15.2235 9.13286 14.8596 8.76225 14.8615 8.31133C14.8634 7.86229 15.2324 7.49356 15.6807 7.49262C16.1371 7.49168 16.5136 7.87544 16.5051 8.33153C16.4967 8.77917 16.1216 9.14178 15.6723 9.13708V9.13755ZM9.70971 11.9685C9.71534 10.7074 10.7451 9.69608 12.0208 9.69937H12.0213C13.2962 9.70265 14.3071 10.7327 14.301 12.023C14.2949 13.2856 13.2661 14.2959 11.9899 14.2927C10.716 14.2894 9.70407 13.2579 9.70971 11.9685Z" fill="#222222"/>
</svg>
