<svg xmlns="http://www.w3.org/2000/svg" width="18" height="18" viewBox="0 0 18 18" fill="none">
<path fill-rule="evenodd" clip-rule="evenodd" d="M6.0216 6.21395H9.42118V7.85731C10.142 6.77478 11.3321 6.07917 12.6928 6.07917H13.6269C15.7938 6.07917 17.5341 7.89644 17.5341 10.0659V17.9914H14.1345V11.6266C14.0919 10.2832 13.2004 9.24418 11.8824 9.24418C10.5643 9.24418 9.45957 10.2832 9.41692 11.6266V17.9914H6.01733V6.21395H6.0216ZM2.23812 0.236084C3.38553 0.236084 4.31967 1.1882 4.31967 2.35768C4.31967 3.52717 3.38553 4.47928 2.23812 4.47928C1.0907 4.47928 0.199219 3.52717 0.199219 2.35768C0.199219 1.1882 1.0907 0.236084 2.23812 0.236084ZM0.540457 6.21395H3.9827V17.9914H0.540457V6.21395Z" fill="white"/>
</svg>