<?xml version="1.0" encoding="UTF-8"?>
<svg version="1.1" xmlns="http://www.w3.org/2000/svg" width="48" height="48">
<path d="M0 0 C0.80232056 -0.00241196 1.60464111 -0.00482391 2.43127441 -0.00730896 C4.12236489 -0.00633237 5.81348807 0.00701667 7.50439453 0.03198242 C10.08607073 0.06630416 12.6643234 0.05263157 15.24609375 0.03320312 C16.89324367 0.04010196 18.54038479 0.0497747 20.1875 0.0625 C20.95533813 0.05754013 21.72317627 0.05258026 22.51428223 0.04747009 C27.48642674 0.15618995 30.11272626 1.05818691 33.59375 4.62890625 C35.18332359 7.80805342 34.79908722 11.24875007 34.83203125 14.7421875 C34.840103 15.5487529 34.84817474 16.3553183 34.85649109 17.18632507 C34.87033143 18.89527232 34.88105382 20.60424721 34.88891602 22.31323242 C34.90611506 24.92094655 34.94999794 27.52738812 34.99414062 30.13476562 C35.00426897 31.7955636 35.01278463 33.45637235 35.01953125 35.1171875 C35.03703934 35.8944368 35.05454742 36.6716861 35.07258606 37.4724884 C35.05864148 40.97075464 34.67249715 43.46794534 33.12963867 46.62158203 C29.39736035 49.57592808 26.2321117 49.33086958 21.59375 49.2578125 C20.72105469 49.26022446 19.84835938 49.26263641 18.94921875 49.26512146 C17.10672454 49.26414329 15.26420084 49.2507568 13.421875 49.22583008 C10.60315016 49.19152067 7.78756063 49.205171 4.96875 49.22460938 C3.17707 49.21771075 1.38539809 49.20803821 -0.40625 49.1953125 C-1.24800781 49.20027237 -2.08976563 49.20523224 -2.95703125 49.21034241 C-6.54423358 49.13821583 -8.80552756 48.98280495 -11.93334961 47.14013672 C-14.07503801 43.48865207 -13.99766013 40.00022782 -13.97265625 35.8828125 C-13.97885483 35.03468491 -13.98505341 34.18655731 -13.99143982 33.31272888 C-13.99853375 31.52156724 -13.99537135 29.73033961 -13.98266602 27.93920898 C-13.96881214 25.20367553 -14.00285859 22.47157203 -14.04101562 19.73632812 C-14.04196699 17.99348875 -14.04010704 16.2506451 -14.03515625 14.5078125 C-14.04841446 13.69308975 -14.06167267 12.878367 -14.07533264 12.03895569 C-14.00925318 7.99228534 -13.69233328 6.05728553 -11.39233398 2.61328125 C-7.57477014 0.07635386 -4.43738915 -0.0766201 0 0 Z M-0.3828125 14.72265625 C-2.89161431 18.32603182 -2.98809568 20.33775435 -2.84375 24.69140625 C-2.82183594 25.89925781 -2.79992188 27.10710938 -2.77734375 28.3515625 C-2.43219358 31.39978348 -2.18679139 33.16572919 -0.40625 35.62890625 C2.9799617 38.07667591 6.44991558 37.99235856 10.53125 38.06640625 C11.73652344 38.10636719 12.94179688 38.14632812 14.18359375 38.1875 C17.70354174 37.8625808 17.70354174 37.8625808 20.5 35.60546875 C23.11618686 31.88618817 23.30506526 28.95444531 23.15625 24.56640625 C23.16720703 23.85935547 23.17816406 23.15230469 23.18945312 22.42382812 C23.1434523 19.15776948 22.79555899 16.95159575 21.0546875 14.16796875 C17.64671683 12.03663471 14.55430337 12.00599886 10.65625 12.06640625 C9.95306641 12.04255859 9.24988281 12.01871094 8.52539062 11.99414062 C4.7316241 12.00480726 2.73351551 12.5305935 -0.3828125 14.72265625 Z " fill="#222220" transform="translate(13.40625,-0.62890625)"/>
<path d="M0 0 C1.1240625 0.00386719 2.248125 0.00773438 3.40625 0.01171875 C6.36551545 0.29942511 8.08586984 0.61008274 10.5 2.3125 C11.6066598 5.63247939 11.70240272 8.25556627 11.75 11.75 C11.77578125 12.88308594 11.8015625 14.01617187 11.828125 15.18359375 C11.5 18.3125 11.5 18.3125 10.51953125 20.69921875 C7.31430797 23.25967758 3.84995791 22.81088042 -0.0625 22.6875 C-0.84302734 22.68621094 -1.62355469 22.68492188 -2.42773438 22.68359375 C-8.21884586 22.59365414 -8.21884586 22.59365414 -10.5 20.3125 C-10.75214344 17.45389702 -10.8702778 14.7342894 -10.875 11.875 C-10.89949219 11.09833984 -10.92398437 10.32167969 -10.94921875 9.52148438 C-10.97822616 3.90855 -10.97822616 3.90855 -8.8828125 1.296875 C-5.79328355 0.02054501 -3.33888071 -0.04977689 0 0 Z M-3.75 6.4375 C-5.78308178 8.2589041 -5.78308178 8.2589041 -5.9375 11.3125 C-5.70737857 14.23983832 -5.70737857 14.23983832 -4.375 16.1875 C-1.58893958 17.85913625 0.31988862 17.77626624 3.5 17.3125 C5.5785608 15.73554368 5.5785608 15.73554368 6.5 13.3125 C6.35908107 10.42366189 5.88249395 8.84070593 4.1875 6.5 C1.4124785 4.54720709 -0.8407572 4.9828786 -3.75 6.4375 Z " fill="#222220" transform="translate(23.5,12.6875)"/>
<path d="M0 0 C2.9375 0.1875 2.9375 0.1875 3.9375 1.1875 C4.125 4.125 4.125 4.125 3.9375 7.1875 C1.9375 9.1875 1.9375 9.1875 -0.5625 9.4375 C-3.0625 9.1875 -3.0625 9.1875 -5.0625 7.1875 C-5.3125 4.6875 -5.3125 4.6875 -5.0625 2.1875 C-3.0625 0.1875 -3.0625 0.1875 0 0 Z " fill="#222220" transform="translate(24.0625,19.8125)"/>
</svg>
