<svg xmlns="http://www.w3.org/2000/svg" viewBox="0 0 24 24" width="24" height="24">
  <path fill="#7698a8" d="M12 2.2c3.2 0 3.6 0 4.8.1 1.1.1 1.7.2 2.1.4.6.2 1.1.5 1.5.9s.7.9.9 1.5c.2.4.3 1 .4 2.1.1 1.2.1 1.6.1 4.8s0 3.6-.1 4.8c-.1 1.1-.2 1.7-.4 2.1-.2.6-.5 1.1-.9 1.5s-.9.7-1.5.9c-.4.2-1 .3-2.1.4-1.2.1-1.6.1-4.8.1s-3.6 0-4.8-.1c-1.1-.1-1.7-.2-2.1-.4-.6-.2-1.1-.5-1.5-.9s-.7-.9-.9-1.5c-.2-.4-.3-1-.4-2.1-.1-1.2-.1-1.6-.1-4.8s0-3.6.1-4.8c.1-1.1.2-1.7.4-2.1.2-.6.5-1.1.9-1.5s.9-.7 1.5-.9c.4-.2 1-.3 2.1-.4C8.4 2.2 8.8 2.2 12 2.2m0-2.2C8.7 0 8.3 0 7 .1 5.8.2 4.9.4 4.2.6a6.8 6.8 0 0 0-2.5 1.6A6.8 6.8 0 0 0 .6 4.2C.4 4.9.2 5.8.1 7 .1 8.3 0 8.7 0 12c0 3.3.1 3.7.1 5 .1 1.2.3 2.1.5 2.8a6.8 6.8 0 0 0 1.6 2.5 6.8 6.8 0 0 0 2.5 1.6c.7.2 1.6.4 2.8.5 1.2.1 1.6.1 5 .1s3.7 0 5-.1c1.2-.1 2.1-.3 2.8-.5a6.8 6.8 0 0 0 2.5-1.6 6.8 6.8 0 0 0 1.6-2.5c.2-.7.4-1.6.5-2.8.1-1.2.1-1.6.1-5s0-3.7-.1-5c-.1-1.2-.3-2.1-.5-2.8A6.8 6.8 0 0 0 22 2.2 6.8 6.8 0 0 0 19.5.6c-.7-.2-1.6-.4-2.8-.5C15.3.1 14.9 0 12 0zM12 5.8a6.2 6.2 0 1 0 0 12.4 6.2 6.2 0 0 0 0-12.4zm0 10.2a4 4 0 1 1 0-8 4 4 0 0 1 0 8zm6.4-11.8a1.4 1.4 0 1 1-2.8 0 1.4 1.4 0 0 1 2.8 0z"/>
</svg>
