<svg width="20" height="20" viewBox="0 0 20 20" fill="none" xmlns="http://www.w3.org/2000/svg">
<g id="instagram 1" clip-path="url(#clip0_2373_11093)">
<g id="instagram">
<path id="Rectangle" d="M20.0234 9.99993C20.0234 4.47711 15.5462 -3.05176e-05 10.0234 -3.05176e-05C4.50057 -3.05176e-05 0.0234375 4.47711 0.0234375 9.99993C0.0234375 15.5228 4.50057 19.9999 10.0234 19.9999C15.5462 19.9999 20.0234 15.5228 20.0234 9.99993Z" fill="url(#paint0_radial_2373_11093)"/>
<g id="Group">
<path id="Shape" fill-rule="evenodd" clip-rule="evenodd" d="M8.37974 14.7786H12.4854C13.9809 14.7786 15.1975 13.562 15.1981 12.0659V7.96025C15.1981 6.46407 13.9809 5.2475 12.4854 5.2475H8.37974C6.88361 5.2475 5.66699 6.46472 5.66699 7.96025V12.0659C5.66699 13.562 6.8842 14.7786 8.37974 14.7786ZM6.484 7.96134C6.484 6.91557 7.33473 6.06549 8.37985 6.06549H12.4855C13.5312 6.06549 14.3814 6.91617 14.3814 7.96134V12.067C14.3814 13.1127 13.5306 13.9628 12.4855 13.9628H8.37985C7.33414 13.9628 6.484 13.1121 6.484 12.067V7.96134Z" fill="white"/>
<path id="Shape_2" fill-rule="evenodd" clip-rule="evenodd" d="M7.99219 10.0135C7.99219 11.3593 9.08682 12.4539 10.4326 12.4539C11.7778 12.4539 12.8724 11.3593 12.873 10.0135C12.873 8.66772 11.7784 7.57309 10.4326 7.57309C9.08682 7.57309 7.99219 8.66772 7.99219 10.0135ZM8.8092 10.0138C8.8092 9.11841 9.538 8.39026 10.4328 8.39026C11.3276 8.39026 12.0557 9.11841 12.0563 10.0138C12.0563 10.9092 11.3282 11.6374 10.4328 11.6374C9.53735 11.6374 8.8092 10.9092 8.8092 10.0138Z" fill="white"/>
<path id="Path" d="M13.5631 7.43364C13.5631 7.75785 13.3005 8.01989 12.9769 8.01989C12.6533 8.01989 12.3906 7.75726 12.3906 7.43364C12.3906 7.10942 12.6533 6.84738 12.9769 6.84738C13.3005 6.84738 13.5631 7.11001 13.5631 7.43364Z" fill="white"/>
</g>
</g>
</g>
<defs>
<radialGradient id="paint0_radial_2373_11093" cx="0" cy="0" r="1" gradientUnits="userSpaceOnUse" gradientTransform="translate(3.24996 19.7307) scale(24.1343)">
<stop stop-color="#FEC053"/>
<stop offset="0.3273" stop-color="#F2203E"/>
<stop offset="0.6485" stop-color="#B729A8"/>
<stop offset="1" stop-color="#5342D6"/>
</radialGradient>
<clipPath id="clip0_2373_11093">
<rect width="19.9999" height="19.9999" fill="white"/>
</clipPath>
</defs>
</svg>
