<svg width="37" height="37" viewBox="0 0 37 37" fill="none" xmlns="http://www.w3.org/2000/svg">
<g id="instagram">
<rect id="Rectangle" x="0.0439453" width="36.9565" height="36.9565" rx="18.4783" fill="url(#paint0_radial_104_109)"/>
<g id="Group">
<path id="Shape" fill-rule="evenodd" clip-rule="evenodd" d="M15.4844 27.3087H23.0709C25.8344 27.3087 28.0825 25.0606 28.0836 22.296V14.7095C28.0836 11.9448 25.8344 9.69678 23.0709 9.69678H15.4844C12.7198 9.69678 10.4717 11.946 10.4717 14.7095V22.296C10.4717 25.0606 12.7209 27.3087 15.4844 27.3087ZM11.9814 14.7115C11.9814 12.7791 13.5534 11.2083 15.4846 11.2083H23.0712C25.0035 11.2083 26.5744 12.7802 26.5744 14.7115V22.298C26.5744 24.2303 25.0024 25.8012 23.0712 25.8012H15.4846C13.5523 25.8012 11.9814 24.2292 11.9814 22.298V14.7115Z" fill="white"/>
<path id="Shape_2" fill-rule="evenodd" clip-rule="evenodd" d="M14.7676 18.5039C14.7676 20.9907 16.7903 23.0134 19.2771 23.0134C21.7628 23.0134 23.7855 20.9907 23.7866 18.5039C23.7866 16.0171 21.7639 13.9944 19.2771 13.9944C16.7903 13.9944 14.7676 16.0171 14.7676 18.5039ZM16.2773 18.5044C16.2773 16.8499 17.624 15.5044 19.2774 15.5044C20.9308 15.5044 22.2763 16.8499 22.2774 18.5044C22.2774 20.159 20.9319 21.5045 19.2774 21.5045C17.6228 21.5045 16.2773 20.159 16.2773 18.5044Z" fill="white"/>
<path id="Path" d="M25.0631 13.7366C25.0631 14.3357 24.5778 14.8199 23.9798 14.8199C23.3818 14.8199 22.8965 14.3346 22.8965 13.7366C22.8965 13.1375 23.3818 12.6533 23.9798 12.6533C24.5778 12.6533 25.0631 13.1386 25.0631 13.7366Z" fill="white"/>
</g>
</g>
<defs>
<radialGradient id="paint0_radial_104_109" cx="0" cy="0" r="1" gradientUnits="userSpaceOnUse" gradientTransform="translate(6.00601 36.4591) scale(44.5962)">
<stop stop-color="#FEC053"/>
<stop offset="0.3273" stop-color="#F2203E"/>
<stop offset="0.6485" stop-color="#B729A8"/>
<stop offset="1" stop-color="#5342D6"/>
</radialGradient>
</defs>
</svg>
