<svg xmlns="http://www.w3.org/2000/svg" width="21" height="21" viewBox="0 0 21 21" fill="none">
<path fill-rule="evenodd" clip-rule="evenodd" d="M5.47759 2.22555H14.6612C16.7299 2.22555 18.4105 3.94282 18.4105 6.04703V15.3595C18.4105 17.468 16.7257 19.1809 14.6612 19.1809H5.47759C3.40884 19.1809 1.72824 17.4637 1.72824 15.3595V6.04703C1.72824 3.93848 3.4131 2.22555 5.47759 2.22555ZM10.0459 7.02957H10.0928C12.0635 7.02957 13.7014 8.69468 13.7014 10.7076C13.7014 12.764 12.0678 14.4334 10.0928 14.4334H10.0459C8.07527 14.4334 6.43733 12.7683 6.43733 10.7076C6.43733 8.69903 8.07101 7.02957 10.0459 7.02957ZM10.0459 5.11666H10.0928C13.0744 5.11666 15.574 7.66432 15.574 10.7032C15.574 13.79 13.0744 16.2898 10.0928 16.2898H10.0459C7.06435 16.2898 4.6117 13.79 4.6117 10.7032C4.6117 7.66432 7.06435 5.11666 10.0459 5.11666ZM15.4801 4.03847C16.1072 4.03847 16.6361 4.57757 16.6361 5.21665C16.6361 5.85574 16.1072 6.39483 15.4801 6.39483C14.8062 6.39483 14.3242 5.85574 14.3242 5.21665C14.3242 4.57757 14.8062 4.03847 15.4801 4.03847ZM5.42641 0.460449H14.7081C17.6897 0.460449 20.1423 2.96028 20.1423 5.99921V15.4116C20.1423 18.4505 17.6897 20.9504 14.7081 20.9504H5.42641C2.44484 20.9504 -0.0078125 18.4505 -0.0078125 15.4116V5.99921C-0.0078125 2.96028 2.44484 0.460449 5.42641 0.460449Z" fill="#363636"/>
</svg>