<svg width="40" height="40" viewBox="0 0 40 40" fill="none" xmlns="http://www.w3.org/2000/svg">
<g filter="url(#filter0_d_2594_9207)">
<rect x="4" y="2" width="32" height="32" rx="8" fill="#4197D3" fill-opacity="0.2" shape-rendering="crispEdges"/>
<rect x="4.25" y="2.25" width="31.5" height="31.5" rx="7.75" stroke="#4197D3" stroke-width="0.5" shape-rendering="crispEdges"/>
<path d="M24.2086 24.9C23.392 25.6917 22.5003 25.5667 21.642 25.1917C20.7336 24.8083 19.9003 24.7917 18.942 25.1917C17.742 25.7083 17.1086 25.5583 16.392 24.9C12.3253 20.7083 12.9253 14.325 17.542 14.0917C18.667 14.15 19.4503 14.7083 20.1086 14.7583C21.092 14.5583 22.0336 13.9833 23.0836 14.0583C24.342 14.1583 25.292 14.6583 25.917 15.5583C23.317 17.1167 23.9336 20.5417 26.317 21.5C25.842 22.75 25.2253 23.9917 24.2003 24.9083L24.2086 24.9ZM20.0253 14.0417C19.9003 12.1833 21.4086 10.65 23.142 10.5C23.3836 12.65 21.192 14.25 20.0253 14.0417Z" fill="white"/>
</g>
<defs>
<filter id="filter0_d_2594_9207" x="0" y="0" width="40" height="40" filterUnits="userSpaceOnUse" color-interpolation-filters="sRGB">
<feFlood flood-opacity="0" result="BackgroundImageFix"/>
<feColorMatrix in="SourceAlpha" type="matrix" values="0 0 0 0 0 0 0 0 0 0 0 0 0 0 0 0 0 0 127 0" result="hardAlpha"/>
<feOffset dy="2"/>
<feGaussianBlur stdDeviation="2"/>
<feComposite in2="hardAlpha" operator="out"/>
<feColorMatrix type="matrix" values="0 0 0 0 0.2 0 0 0 0 0.2 0 0 0 0 0.2 0 0 0 0.1 0"/>
<feBlend mode="normal" in2="BackgroundImageFix" result="effect1_dropShadow_2594_9207"/>
<feBlend mode="normal" in="SourceGraphic" in2="effect1_dropShadow_2594_9207" result="shape"/>
</filter>
</defs>
</svg>
