<?xml version="1.0" encoding="UTF-8"?>
<svg width="36px" height="38px" viewBox="0 0 36 38" version="1.1" xmlns="http://www.w3.org/2000/svg" xmlns:xlink="http://www.w3.org/1999/xlink">
    <title>keep the policy icon</title>
    <defs>
        <polygon id="path-1" points="0 0 36 0 36 38 0 38"></polygon>
    </defs>
    <g id="desktop" stroke="none" stroke-width="1" fill="none" fill-rule="evenodd">
        <g id="category-page-mob" transform="translate(-47.000000, -2896.000000)">
            <g id="keep-the-policy-icon" transform="translate(47.000000, 2896.000000)">
                <g id="Group-3">
                    <mask id="mask-2" fill="white">
                        <use xlink:href="#path-1"></use>
                    </mask>
                    <g id="Clip-2"></g>
                    <path d="M23.3915311,35.6060252 L20.8649978,34.7891857 L22.8447183,33.0050134 L23.3915311,35.6060252 Z M17.4738975,18.1792459 C17.4738975,17.8869583 17.7098451,17.6486047 18.0000434,17.6486047 C18.2902416,17.6486047 18.5261892,17.8869583 18.5261892,18.1792459 C18.5261892,18.4724035 18.2902416,18.710757 18.0000434,18.710757 C17.7098451,18.710757 17.4738975,18.4724035 17.4738975,18.1792459 L17.4738975,18.1792459 Z M18.0000434,0 L17.9957378,0 C8.0704403,0.00173980725 -0.00258274754,8.1605659 -1.52766688e-13,18.187945 C0.00172286475,26.1301651 5.03498363,33.089394 12.526749,35.5059863 C12.7876691,35.5877573 13.0804508,35.5503514 13.3146761,35.409427 C13.517901,35.2885104 13.6685974,35.0962617 13.7400706,34.868347 L18.1860458,20.6349839 C18.7767758,20.5932285 19.3270331,20.3392166 19.7472608,19.9103541 C20.205378,19.442346 20.4559646,18.8229746 20.4525201,18.1644576 C20.4490756,17.5068104 20.1924611,16.8891789 19.7300384,16.4263901 C19.2693379,15.967081 18.6613854,15.7139391 18.0146824,15.7139391 L18.0017656,15.7139391 C17.6934838,15.7156789 17.3834797,15.7783119 17.097587,15.8966188 L11.2660657,10.0047616 C10.8863107,9.63505254 10.2809416,9.64636128 9.91324236,10.0291189 C9.55501542,10.4049172 9.55501542,10.9947119 9.91668685,11.3739899 L15.7413192,17.2658471 C15.3546752,18.2157819 15.6104285,19.3231692 16.373383,20.0025639 L12.2055503,33.3468855 C8.26849846,31.8193348 5.13315159,28.856443 3.36268382,24.9801525 C1.55949339,21.0351395 1.38554666,16.6160291 2.87270514,12.5387908 C4.3590025,8.46068265 7.32901386,5.21246251 11.2342042,3.39175423 C15.1393946,1.57017604 19.5138966,1.39445551 23.5499776,2.89590916 C31.8821985,5.99711558 36.1645605,15.3677174 33.0955201,23.7849049 C31.632473,27.7951606 28.6107943,31.1068837 24.7796605,32.909324 L24.3740718,30.9746583 C24.2647093,30.4535861 23.7549248,30.120413 23.2399735,30.2300208 C23.0772214,30.264817 22.9256638,30.3422384 22.8008011,30.454456 L18.3427701,34.4751505 C18.152462,34.6465215 18.0387939,34.8831353 18.0241548,35.1414967 C18.0095157,35.3989882 18.0947668,35.6469107 18.264408,35.8400293 C18.3780761,35.968775 18.5253281,36.0653343 18.6889413,36.1183985 L24.3809608,37.9530252 C24.4782676,37.9843417 24.5755745,38 24.6728813,38 C25.0776089,38 25.4539194,37.738159 25.5839489,37.3284344 C25.6347551,37.1701119 25.6433663,36.9987409 25.6089214,36.8325893 L25.191277,34.8483392 C31.7788638,31.9663485 36.0155863,25.4429412 36.0001285,18.1792459 C35.999225,13.322574 34.1254225,8.75644988 30.7248499,5.32294027 C27.3251385,1.89030057 22.8068289,0 18.0000434,0 L18.0000434,0 Z" id="Fill-1" fill="#4196D2" mask="url(#mask-2)"></path>
                </g>
                <path d="M17,3.84529546 L17,5.15470454 C17,5.62033984 17.4484466,6 17.9995498,6 C18.5515534,6 19,5.62033984 19,5.15470454 L19,3.84529546 C19,3.37966016 18.5515534,3 17.9995498,3 C17.4484466,3 17,3.37966016 17,3.84529546" id="Fill-4" fill="#EA9AA6"></path>
                <path d="M5.15470454,17 L3.84529546,17 C3.37966016,17 3,17.4484466 3,17.9995498 C3,18.5515534 3.37966016,19 3.84529546,19 L5.15470454,19 C5.62033984,19 6,18.5515534 6,17.9995498 C6,17.4484466 5.62033984,17 5.15470454,17" id="Fill-6" fill="#EA9AA6"></path>
                <path d="M30.8452955,19 L32.1547045,19 C32.6203398,19 33,18.5515534 33,17.9995498 C33,17.4484466 32.6203398,17 32.1547045,17 L30.8452955,17 C30.3796602,17 30,17.4484466 30,17.9995498 C30,18.5515534 30.3796602,19 30.8452955,19" id="Fill-8" fill="#EA9AA6"></path>
            </g>
        </g>
    </g>
</svg>