<svg width="40" height="40" viewBox="0 0 40 40" fill="none" xmlns="http://www.w3.org/2000/svg">
<rect x="10.5293" y="21.957" width="19.292" height="14.84" rx="3.71" stroke="#222222" stroke-width="1.875" stroke-linecap="round" stroke-linejoin="round"/>
<path d="M14.9795 18.2477C14.9795 15.3791 17.3049 13.0537 20.1735 13.0537V13.0537C23.0421 13.0537 25.3675 15.3791 25.3675 18.2477V21.9577H14.9795V18.2477Z" stroke="#222222" stroke-width="1.875" stroke-linecap="round" stroke-linejoin="round"/>
<circle cx="20.1742" cy="29.3774" r="2.226" fill="#222222"/>
<path d="M30.6675 7.01255C29.2894 5.63453 27.6535 4.54143 25.853 3.79564C24.0525 3.04986 22.1228 2.66602 20.174 2.66602C18.2252 2.66602 16.2954 3.04986 14.495 3.79564C12.6945 4.54142 11.0585 5.63453 9.68052 7.01255" stroke="#222222" stroke-width="1.875" stroke-linecap="round" stroke-linejoin="round"/>
<path d="M26.9961 9.94341C26.1003 9.0477 25.037 8.33718 23.8667 7.85242C22.6964 7.36767 21.442 7.11816 20.1753 7.11816C18.9086 7.11816 17.6542 7.36767 16.4839 7.85242C15.3136 8.33718 14.2503 9.0477 13.3545 9.94341" stroke="#222222" stroke-width="1.875" stroke-linecap="round" stroke-linejoin="round"/>
</svg>
