<svg width="40" height="40" viewBox="0 0 40 40" fill="none" xmlns="http://www.w3.org/2000/svg">
<path d="M28 24.7998C28 23.7492 27.7931 22.7089 27.391 21.7383C26.989 20.7677 26.3997 19.8858 25.6569 19.143C24.914 18.4001 24.0321 17.8108 23.0615 17.4088C22.0909 17.0067 21.0506 16.7998 20 16.7998C18.9494 16.7998 17.9091 17.0067 16.9385 17.4088C15.9679 17.8108 15.086 18.4001 14.3431 19.1429C13.6003 19.8858 13.011 20.7677 12.609 21.7383C12.2069 22.7089 12 23.7492 12 24.7998L20 24.7998L28 24.7998Z" stroke="#222222" stroke-width="2" stroke-linecap="round" stroke-linejoin="round"/>
<path d="M20 7.20032L20 12.0003" stroke="#222222" stroke-width="2" stroke-linecap="round"/>
<path d="M4 24.7988L7.2 24.7988" stroke="#222222" stroke-width="2" stroke-linecap="round"/>
<path d="M36 24.7988L32.8 24.7988" stroke="#222222" stroke-width="2" stroke-linecap="round"/>
<path d="M8.7998 13.6006L11.0625 15.8633" stroke="#222222" stroke-width="2" stroke-linecap="round"/>
<path d="M31.3926 13.6006L29.1298 15.8633" stroke="#222222" stroke-width="2" stroke-linecap="round"/>
</svg>
