<svg width="36" height="36" viewBox="0 0 36 36" fill="none" xmlns="http://www.w3.org/2000/svg">
<path fill-rule="evenodd" clip-rule="evenodd" d="M16.919 8.20498C17.1297 8.41592 17.248 8.70185 17.248 8.99998C17.248 9.2981 17.1297 9.58404 16.919 9.79498L9.83901 16.875H28.124C28.4224 16.875 28.7085 16.9935 28.9195 17.2045C29.1305 17.4155 29.249 17.7016 29.249 18C29.249 18.2983 29.1305 18.5845 28.9195 18.7955C28.7085 19.0065 28.4224 19.125 28.124 19.125H9.83901L16.919 26.205C17.0295 26.308 17.1182 26.4322 17.1797 26.5702C17.2412 26.7082 17.2742 26.8571 17.2769 27.0082C17.2796 27.1592 17.2518 27.3093 17.1952 27.4494C17.1386 27.5895 17.0544 27.7167 16.9476 27.8235C16.8407 27.9304 16.7135 28.0146 16.5734 28.0712C16.4333 28.1277 16.2833 28.1555 16.1322 28.1529C15.9812 28.1502 15.8322 28.1171 15.6942 28.0556C15.5562 27.9942 15.432 27.9055 15.329 27.795L6.32901 18.795C6.11833 18.584 6 18.2981 6 18C6 17.7019 6.11833 17.4159 6.32901 17.205L15.329 8.20498C15.5399 7.9943 15.8259 7.87597 16.124 7.87597C16.4221 7.87597 16.7081 7.9943 16.919 8.20498Z" fill="white"/>
</svg>
