<svg width="25" height="24" viewBox="0 0 25 24" fill="none" xmlns="http://www.w3.org/2000/svg">
<path d="M12.751 0C6.12348 0 0.750977 5.3725 0.750977 12C0.750977 18.6275 6.12348 24 12.751 24C19.3785 24 24.751 18.6275 24.751 12C24.751 5.3725 19.3785 0 12.751 0ZM9.81348 16.9738H7.38348V9.15375H9.81348V16.9738ZM8.58348 8.19375C7.81598 8.19375 7.31973 7.65 7.31973 6.9775C7.31973 6.29125 7.83098 5.76375 8.61473 5.76375C9.39848 5.76375 9.87848 6.29125 9.89348 6.9775C9.89348 7.65 9.39848 8.19375 8.58348 8.19375ZM18.6885 16.9738H16.2585V12.64C16.2585 11.6313 15.906 10.9462 15.0272 10.9462C14.356 10.9462 13.9572 11.41 13.781 11.8563C13.716 12.015 13.6997 12.24 13.6997 12.4638V16.9725H11.2685V11.6475C11.2685 10.6713 11.2372 9.855 11.2047 9.1525H13.316L13.4272 10.2387H13.476C13.796 9.72875 14.5797 8.97625 15.891 8.97625C17.4897 8.97625 18.6885 10.0475 18.6885 12.35V16.9738V16.9738Z" fill="#222222"/>
</svg>
