<svg xmlns="http://www.w3.org/2000/svg" xmlns:xlink="http://www.w3.org/1999/xlink" version="1.1" id="Layer_1" x="0px" y="0px" viewBox="0 0 100 100" style="enable-background:new 0 0 100 100;" xml:space="preserve">
<g>
	<g>
		<path class="st0" fill="#E7194F" d="M55.47,40.65c1.34-1.5,2.44-3.03,3.81-4.32c4.22-3.98,9.22-5.99,15.05-5.94c3.21,0.03,6.37,0.26,9.47,1.15    c7.07,2.04,11.18,6.91,13.14,13.82c1.47,5.18,1.74,10.5,1.75,15.83c0.02,11.25-0.03,22.5-0.01,33.75c0,1.05-0.29,1.33-1.33,1.32    c-5.8-0.05-11.59-0.05-17.39,0c-1.02,0.01-1.24-0.31-1.24-1.27c0.03-10.71,0.04-21.41,0.01-32.12c-0.01-2.68-0.18-5.36-0.93-7.97    c-1.39-4.81-4.83-7.25-9.86-6.99c-6.87,0.36-10.45,3.77-11.32,10.76c-0.21,1.67-0.31,3.34-0.31,5.02    c0.01,10.41-0.01,20.82,0.03,31.24c0,1.04-0.26,1.34-1.32,1.34c-5.84-0.05-11.68-0.05-17.52,0c-0.94,0.01-1.21-0.25-1.21-1.19    c0.03-20.61,0.03-41.23,0-61.84c0-1.02,0.33-1.26,1.3-1.25c5.54,0.04,11.09,0.05,16.63,0c1.02-0.01,1.28,0.32,1.26,1.29    C55.43,35.72,55.47,38.19,55.47,40.65z"/>
		<path class="st0" d="M23.71,64.21c0,10.2-0.02,20.4,0.02,30.59c0,1.13-0.28,1.48-1.45,1.46c-5.79-0.06-11.59-0.05-17.38-0.01    c-0.93,0.01-1.21-0.23-1.21-1.19c0.03-20.65,0.03-41.3,0.01-61.94c0-0.85,0.21-1.16,1.11-1.15c5.88,0.04,11.76,0.05,17.63-0.01    c1.13-0.01,1.28,0.43,1.28,1.4C23.7,43.65,23.71,53.93,23.71,64.21z" fill="#E7194F"/>
		<path class="st0" d="M25.3,11.51c0.01,6.4-5.19,11.62-11.58,11.62c-6.31,0-11.55-5.22-11.57-11.52C2.14,5.24,7.37-0.01,13.75,0    C20.08,0.01,25.3,5.21,25.3,11.51z" fill="#E7194F"/>
	</g>
</g>
</svg>