<svg width="30" height="30" viewBox="0 0 30 30" fill="none" xmlns="http://www.w3.org/2000/svg">
<path d="M10.72 5.36914C9.22592 5.36914 8.01172 6.58334 8.01172 8.07741C8.01172 9.57149 9.22592 10.7857 10.72 10.7857C12.2141 10.7857 13.4283 9.57149 13.4283 8.07741C13.4283 6.58334 12.2141 5.36914 10.72 5.36914ZM10.72 10.1398C9.58329 10.1398 8.65757 9.21411 8.65757 8.07741C8.65757 6.94071 9.58329 6.01499 10.72 6.01499C11.8567 6.01499 12.7824 6.94071 12.7824 8.07741C12.7824 9.21411 11.8567 10.1398 10.72 10.1398Z" fill="#222222" stroke="#222222" stroke-width="0.675"/>
<path d="M10.72 3.66406C8.28725 3.66406 6.30664 5.64468 6.30664 8.07739C6.30664 10.4197 10.2937 15.5564 10.4659 15.7759C10.5262 15.8534 10.6209 15.9008 10.72 15.9008C10.819 15.9008 10.9137 15.8534 10.974 15.7759C11.1419 15.5564 15.1333 10.4197 15.1333 8.07739C15.1333 5.64468 13.1527 3.66406 10.72 3.66406ZM10.72 15.044C9.47132 13.3906 6.95249 9.71785 6.95249 8.07739C6.95249 6.00205 8.64032 4.30991 10.72 4.30991C12.7996 4.30991 14.4874 6.00205 14.4874 8.07739C14.4874 9.88577 11.6026 13.8685 10.72 15.044Z" fill="#222222" stroke="#222222" stroke-width="0.9"/>
<path d="M25.67 25.0056H11.15C10.4812 25.0056 9.94 24.4644 9.94 23.7956C9.94 23.1268 10.4812 22.5856 11.15 22.5856H15.99C17.0196 22.5856 17.86 21.7452 17.86 20.7156C17.86 19.686 17.0196 18.8456 15.99 18.8456H5.87C5.2012 18.8456 4.66 18.3044 4.66 17.6356C4.66 16.9668 5.2012 16.4256 5.87 16.4256H8.95C9.1304 16.4256 9.28 16.276 9.28 16.0956C9.28 15.9152 9.1304 15.7656 8.95 15.7656H5.87C4.8404 15.7656 4 16.606 4 17.6356C4 18.6652 4.8404 19.5056 5.87 19.5056H15.99C16.6588 19.5056 17.2 20.0468 17.2 20.7156C17.2 21.3844 16.6588 21.9256 15.99 21.9256H11.15C10.1204 21.9256 9.28 22.766 9.28 23.7956C9.28 24.8252 10.1204 25.6656 11.15 25.6656H25.67C25.8504 25.6656 26 25.516 26 25.3356C26 25.1552 25.8504 25.0056 25.67 25.0056Z" fill="#222222" stroke="#222222" stroke-width="0.9"/>
</svg>
