<svg xmlns="http://www.w3.org/2000/svg" width="257" height="64" viewBox="0 0 257 64" fill="none">
<path d="M115.479 7.43444L77.8203 44.5868L93.5439 60.949L132.324 21.8773L117.427 5.47705L115.479 7.43444Z" fill="white"/>
<path d="M146.73 15.5543H149.874L153.822 27.883L157.887 15.5068H160.346L164.411 27.883L168.359 15.5543H171.408L165.664 32.3014H163.135L159.069 20.3528L155.004 32.3014H152.498L146.73 15.5543Z" fill="#D6001C"/>
<path d="M171.832 25.9871V25.9396C171.832 22.3526 174.669 19.3833 178.498 19.3833C182.327 19.3833 185.14 22.3051 185.14 25.8921V25.9396C185.14 29.5028 182.303 32.4721 178.451 32.4721C174.598 32.4721 171.832 29.5503 171.832 25.9871ZM182.28 25.9871V25.9396C182.28 23.7304 180.696 21.9013 178.451 21.9013C176.205 21.9013 174.692 23.7067 174.692 25.8921V25.9396C174.692 28.125 176.276 29.9541 178.498 29.9541C180.72 29.9541 182.28 28.1488 182.28 25.9871Z" fill="#D6001C"/>
<path d="M188.051 19.64H190.911V22.4668C191.691 20.5901 193.133 19.3074 195.331 19.4024V22.443H195.166C192.66 22.443 190.911 24.0821 190.911 27.4077V32.1824H188.051V19.64Z" fill="#D6001C"/>
<path d="M197.977 14.8416H200.837V32.1825H197.977V14.8416Z" fill="#D6001C"/>
<path d="M203.938 25.9396V25.8921C203.938 21.7351 206.75 19.3833 209.729 19.3833C211.785 19.3833 213.085 20.4048 213.983 21.5925V14.8462H216.844V32.1871H213.983V30.0967C213.062 31.4032 211.761 32.4484 209.729 32.4484C206.798 32.4484 203.938 30.0967 203.938 25.9396ZM214.031 25.9396V25.8921C214.031 23.4692 212.329 21.8776 210.414 21.8776C208.5 21.8776 206.821 23.3979 206.821 25.8921V25.9396C206.821 28.3626 208.476 29.9542 210.414 29.9542C212.352 29.9542 214.031 28.3389 214.031 25.9396Z" fill="#D6001C"/>
<path d="M153.87 37.7651H156.565L163.845 54.5122H160.772L159.094 50.4977H151.27L149.568 54.5122H146.59L153.87 37.7651ZM158.03 47.9131L155.17 41.2618L152.334 47.9131H158.03Z" fill="#D6001C"/>
<path d="M165.074 48.3169V48.2694C165.074 44.7062 167.816 41.7131 171.575 41.7131C173.915 41.7131 175.38 42.5921 176.562 43.8748L174.766 45.7989C173.891 44.8725 172.969 44.2311 171.551 44.2311C169.471 44.2311 167.934 46.0365 167.934 48.2219V48.2694C167.934 50.5024 169.471 52.284 171.669 52.284C173.016 52.284 174.009 51.6664 174.907 50.7399L176.633 52.4503C175.404 53.828 173.962 54.802 171.527 54.802C167.816 54.802 165.074 51.8802 165.074 48.3169Z" fill="#D6001C"/>
<path d="M178.43 50.9057V50.8582C178.43 48.1501 180.533 46.8199 183.583 46.8199C184.977 46.8199 185.97 47.0337 186.939 47.3425V47.0337C186.939 45.252 185.852 44.3019 183.843 44.3019C182.448 44.3019 181.408 44.6107 180.273 45.0858L179.517 42.8291C180.888 42.2114 182.235 41.8076 184.221 41.8076C186.088 41.8076 187.483 42.3065 188.357 43.2091C189.279 44.1118 189.705 45.4421 189.705 47.0812V54.5164H186.916V52.9486C186.065 53.97 184.765 54.7777 182.85 54.7777C180.51 54.7777 178.43 53.4237 178.43 50.9057ZM186.986 50.003V49.1478C186.254 48.8628 185.285 48.649 184.15 48.649C182.306 48.649 181.219 49.4329 181.219 50.7394V50.7869C181.219 51.9984 182.283 52.6873 183.654 52.6873C185.545 52.6873 186.986 51.5946 186.986 50.003Z" fill="#D6001C"/>
<path d="M192.492 48.2687V48.2212C192.492 44.0642 195.305 41.7124 198.283 41.7124C200.34 41.7124 201.64 42.7339 202.538 43.9216V37.1753H205.398V54.5162H202.538V52.4258C201.616 53.7323 200.316 54.7775 198.283 54.7775C195.352 54.7775 192.492 52.4258 192.492 48.2687ZM202.585 48.2687V48.2212C202.585 45.7983 200.883 44.2067 198.969 44.2067C197.054 44.2067 195.376 45.727 195.376 48.2212V48.2687C195.376 50.6917 197.031 52.2833 198.969 52.2833C200.907 52.2833 202.585 50.668 202.585 48.2687Z" fill="#D6001C"/>
<path d="M208.309 48.2932V48.2457C208.309 44.6587 210.838 41.7131 214.407 41.7131C218.378 41.7131 220.387 44.8488 220.387 48.4595C220.387 48.7208 220.364 48.9821 220.34 49.2671H211.169C211.476 51.31 212.918 52.4503 214.762 52.4503C216.156 52.4503 217.149 51.9277 218.142 50.9537L219.82 52.4503C218.638 53.8755 217.007 54.802 214.714 54.802C211.098 54.802 208.309 52.1652 208.309 48.2932ZM217.551 47.3668C217.362 45.5139 216.274 44.0648 214.383 44.0648C212.634 44.0648 211.405 45.4189 211.145 47.3668H217.551Z" fill="#D6001C"/>
<path d="M223.27 41.9698H226.13V43.8702C226.933 42.7537 228.021 41.7085 229.935 41.7085C231.732 41.7085 233.008 42.5874 233.67 43.9177C234.663 42.5874 235.986 41.7085 237.877 41.7085C240.596 41.7085 242.25 43.4426 242.25 46.5069V54.5123H239.39V47.3859C239.39 45.3905 238.468 44.3215 236.861 44.3215C235.254 44.3215 234.19 45.4142 234.19 47.4334V54.5123H231.33V47.3621C231.33 45.4142 230.384 44.3215 228.801 44.3215C227.217 44.3215 226.13 45.5093 226.13 47.4334V54.5123H223.27V41.9698Z" fill="#D6001C"/>
<path d="M254.021 41.9695H256.999L252.035 54.8683C251.042 57.4338 249.931 58.384 247.922 58.384C246.74 58.384 245.842 58.0989 244.968 57.6238L245.937 55.4859C246.457 55.771 247.024 55.961 247.615 55.961C248.419 55.961 248.915 55.6047 249.388 54.5357L244.188 41.9695H247.26L250.782 51.2813L254.021 41.9695Z" fill="#D6001C"/>
<path d="M117.439 1.49609L74.6172 44.5301L93.5508 63.5576L136.372 20.5236L117.439 1.49609ZM103.899 46.5635H95.5742V54.9299H91.5274V46.5635H83.1834V42.4967H91.5274V34.1113H95.5742V42.4967H103.899V46.5635ZM112.815 36.7101C111.232 38.3016 109.151 39.095 107.071 39.095C104.991 39.095 102.911 38.3016 101.328 36.7101C98.1601 33.5269 98.1601 28.3484 101.328 25.1653C102.798 23.6877 104.745 22.8421 106.821 22.7803L106.892 25.0418C105.393 25.0893 103.98 25.7021 102.921 26.7664C100.633 29.0706 100.633 32.8143 102.921 35.1138C105.213 37.4132 108.939 37.4132 111.227 35.1138C112.291 34.0448 112.9 32.629 112.943 31.123L115.188 31.1942C115.127 33.2799 114.281 35.2373 112.815 36.7148V36.7101ZM108.991 17.2502L110.579 15.6539L120.133 25.2556L127.012 18.3429L128.6 19.9392L120.133 28.4482L108.991 17.2502Z" fill="#D6001C"/>
<path d="M61.7799 44.5249L18.9414 1.47388L0.000876663 20.5084L42.8394 63.5594L61.7799 44.5249Z" fill="#D6001C"/>
<path d="M68.214 -6.636e-05L49.2734 19.0344L68.214 38.0689L87.1545 19.0344L68.214 -6.636e-05Z" fill="#D6001C"/>
</svg>