<?xml version="1.0" encoding="UTF-8"?>
<svg version="1.1" xmlns="http://www.w3.org/2000/svg" width="600" height="59">
<path d="M0 0 C1.25393555 0.03383789 1.25393555 0.03383789 2.53320312 0.06835938 C4.58541149 0.1269939 6.63669202 0.21666785 8.6875 0.3125 C8.6875 0.9725 8.6875 1.6325 8.6875 2.3125 C7.13121556 3.6614745 5.51613873 4.94314589 3.875 6.1875 C0.60769753 8.66744386 -2.0107815 10.90198023 -4.3125 14.3125 C-3.6525 15.6325 -2.9925 16.9525 -2.3125 18.3125 C-1.89742187 17.93480469 -1.48234375 17.55710937 -1.0546875 17.16796875 C0.29940049 15.95835458 1.67478559 14.77244654 3.0625 13.6015625 C4.99868107 11.91316651 6.76882915 10.22413818 8.5625 8.3984375 C14.86525818 2.35845645 19.62517185 -0.28470175 28.52294922 -0.44555664 C32.92737337 -0.3433174 37.30237629 -0.11338474 41.6875 0.3125 C38.2223162 3.92445954 34.66011053 6.94741809 30.625 9.9375 C22.79384547 15.83173544 15.60078839 22.36285228 8.6875 29.3125 C18.28838035 39.30733744 28.11967867 48.60061912 39.6875 56.3125 C39.6875 56.9725 39.6875 57.6325 39.6875 58.3125 C19.21470153 59.98031606 19.21470153 59.98031606 12.5 54.375 C10.8615354 52.72078094 9.25728269 51.0320317 7.6875 49.3125 C5.80554546 47.6095357 3.9100984 45.9213361 2 44.25 C0.56017531 42.94005063 -0.87823744 41.62853701 -2.3125 40.3125 C-3.3025 41.6325 -4.2925 42.9525 -5.3125 44.3125 C-3.52385158 46.12806788 -1.73178379 47.94001622 0.0625 49.75 C0.57039062 50.26626953 1.07828125 50.78253906 1.6015625 51.31445312 C4.37318936 54.169633 4.37318936 54.169633 7.6875 56.3125 C7.6875 56.9725 7.6875 57.6325 7.6875 58.3125 C4.76984109 58.42056144 1.85618875 58.49982877 -1.0625 58.5625 C-1.8875 58.59601562 -2.7125 58.62953125 -3.5625 58.6640625 C-7.18802829 58.72253876 -9.63608801 58.67290883 -12.87109375 56.94921875 C-15.17790361 52.72944461 -14.76981337 48.59591588 -14.625 43.875 C-14.61533203 42.93333984 -14.60566406 41.99167969 -14.59570312 41.02148438 C-14.48347448 34.1072241 -14.48347448 34.1072241 -13.73510742 30.62866211 C-13.07011881 28.29684821 -13.07011881 28.29684821 -14.3125 26.3125 C-14.63127503 22.88223857 -14.63676215 19.44325474 -14.6875 16 C-14.72488281 15.04931641 -14.76226562 14.09863281 -14.80078125 13.11914062 C-14.85714649 8.63810438 -14.76118897 6.04015253 -12.37109375 2.1640625 C-8.14163178 -0.39630145 -4.83871287 -0.24823705 0 0 Z " fill="#FFFFFF" transform="translate(14.3125,-0.3125)"/>
<path d="M0 0 C7.44539866 4.8581945 12.914715 10.63149845 15.63671875 19.265625 C17.03275757 26.68296258 16.65504268 34.62381759 13.0234375 41.3203125 C8.11129669 48.2325444 2.38298183 54.094069 -5.9765625 56.3203125 C-15.2815901 57.45622635 -24.23127604 57.31462789 -31.9765625 51.3203125 C-34.9765625 47.83472492 -34.9765625 47.83472492 -34.9765625 45.3203125 C-35.87487248 44.24466624 -36.82074435 43.20839475 -37.7890625 42.1953125 C-41.88141884 37.53215469 -43.66883668 33.08984486 -44.3515625 26.9453125 C-43.36540829 17.41248852 -40.20555207 10.01700972 -33.01953125 3.5625 C-23.73013332 -3.79086662 -10.73427417 -5.70632418 0 0 Z M-27.7265625 15.1953125 C-31.40565238 20.30515955 -32.62203256 23.97319024 -31.9765625 30.3203125 C-30.00214922 36.20989755 -27.01621395 39.78183382 -21.9765625 43.3203125 C-19.0060388 44.31048707 -17.07019836 44.42424512 -13.9765625 44.3828125 C-12.6771875 44.36927734 -12.6771875 44.36927734 -11.3515625 44.35546875 C-10.5678125 44.34386719 -9.7840625 44.33226562 -8.9765625 44.3203125 C-7.9865625 44.3203125 -6.9965625 44.3203125 -5.9765625 44.3203125 C-6.3065625 44.9803125 -6.6365625 45.6403125 -6.9765625 46.3203125 C-2.43474421 44.80637307 -0.32303628 41.25874021 2.0234375 37.3203125 C4.36787149 32.07324595 5.12803192 26.71568512 3.3359375 21.20703125 C1.11387501 16.29071798 -1.57826905 13.40847599 -5.9765625 10.3203125 C-14.22719101 7.570103 -21.67711556 8.8708907 -27.7265625 15.1953125 Z M-12.9765625 49.3203125 C-10.50389485 48.97586369 -10.50389485 48.97586369 -7.9765625 48.3203125 C-7.6465625 47.6603125 -7.3165625 47.0003125 -6.9765625 46.3203125 C-9.73879528 46.3203125 -10.86937704 47.63456413 -12.9765625 49.3203125 Z M-31.9765625 47.3203125 C-29.15374811 50.56654905 -26.93015923 51.17472384 -22.72265625 51.48828125 C-21.96082031 51.49472656 -21.19898438 51.50117187 -20.4140625 51.5078125 C-19.26744141 51.52908203 -19.26744141 51.52908203 -18.09765625 51.55078125 C-15.67502747 51.45265 -15.67502747 51.45265 -12.9765625 49.3203125 C-14.8946875 49.3821875 -14.8946875 49.3821875 -16.8515625 49.4453125 C-22.06529106 49.46189033 -26.91663922 48.50342608 -31.9765625 47.3203125 Z " fill="#FFFFFF" transform="translate(443.9765625,2.6796875)"/>
<path d="M0 0 C5.39573781 0.31090683 7.86095066 3.35930773 11.375 7.0625 C11.9522583 7.65522705 12.5295166 8.2479541 13.12426758 8.85864258 C16.62081457 12.47353272 19.98470611 16.18017622 23.23828125 20.015625 C26.95531329 24.20243714 31.00838548 28.07720642 35 32 C35.33 32.33 35.66 32.66 36 33 C35.99476318 32.10168457 35.98952637 31.20336914 35.98413086 30.27783203 C35.96710275 26.94937501 35.95455663 23.62096419 35.94506836 20.29248047 C35.94003526 18.8510668 35.93320827 17.40965824 35.92456055 15.96826172 C35.91245017 13.89809915 35.90676153 11.82800399 35.90234375 9.7578125 C35.89710693 8.5114502 35.89187012 7.26508789 35.88647461 5.98095703 C36 3 36 3 37 1 C40.63 1 44.26 1 48 1 C48 20.14 48 39.28 48 59 C43 59 43 59 40.4921875 56.796875 C39.60575662 55.79347631 38.73410462 54.77689234 37.875 53.75 C36.91857643 52.65311567 35.96152551 51.5567781 35.00390625 50.4609375 C34.26938232 49.60773926 34.26938232 49.60773926 33.52001953 48.73730469 C31.99285997 46.99183931 30.42721423 45.29233995 28.83984375 43.6015625 C28.33275879 43.06047852 27.82567383 42.51939453 27.30322266 41.96191406 C26.32208558 40.91746745 25.33874153 39.87508892 24.35302734 38.83496094 C21 35.22287509 21 35.22287509 21 33 C20.34 33 19.68 33 19 33 C16.69 30.36 14.38 27.72 12 25 C11.67 35.89 11.34 46.78 11 58 C7.37 58 3.74 58 0 58 C-1.26942299 55.46115401 -1.12701165 53.68949709 -1.12939453 50.84765625 C-1.13254669 49.77314209 -1.13569885 48.69862793 -1.13894653 47.59155273 C-1.1369223 46.42696533 -1.13489807 45.26237793 -1.1328125 44.0625 C-1.13376923 42.87148682 -1.13472595 41.68047363 -1.13571167 40.45336914 C-1.13639315 37.93147733 -1.1345411 35.40958377 -1.13037109 32.88769531 C-1.12502243 29.01623616 -1.13031721 25.14489302 -1.13671875 21.2734375 C-1.13605796 18.82812474 -1.13477679 16.38281206 -1.1328125 13.9375 C-1.13483673 12.7729126 -1.13686096 11.6083252 -1.13894653 10.40844727 C-1.13579437 9.33393311 -1.13264221 8.25941895 -1.12939453 7.15234375 C-1.12859894 6.20351318 -1.12780334 5.25468262 -1.12698364 4.27709961 C-1 2 -1 2 0 0 Z " fill="#FFFFFF" transform="translate(252,0)"/>
<path d="M0 0 C2.00389649 -0.01705751 4.00750702 -0.06092163 6.01098633 -0.10522461 C13.48041755 -0.15419214 18.70571693 0.083746 24.97387695 4.29516602 C28.66169731 8.09103788 30.7744087 11.84355034 31.0949707 17.18969727 C30.80272641 22.27097701 29.67567513 26.58187064 26.02246094 30.25976562 C25.30388916 30.85797119 24.58531738 31.45617676 23.8449707 32.07250977 C23.12108154 32.68215576 22.39719238 33.29180176 21.65136719 33.91992188 C21.09779541 34.37375244 20.54422363 34.82758301 19.97387695 35.29516602 C20.27680664 35.85502197 20.57973633 36.41487793 20.8918457 36.99169922 C22.25897562 39.52693649 23.61651026 42.06718916 24.97387695 44.60766602 C25.45083008 45.48874023 25.9277832 46.36981445 26.41918945 47.27758789 C27.09594727 48.54892578 27.09594727 48.54892578 27.78637695 49.84594727 C28.20532227 50.62623291 28.62426758 51.40651855 29.0559082 52.21044922 C29.97387695 54.29516602 29.97387695 54.29516602 29.97387695 57.29516602 C25.68387695 57.29516602 21.39387695 57.29516602 16.97387695 57.29516602 C15.30236895 54.00587704 13.63649384 50.71394488 11.97387695 47.42016602 C11.49692383 46.48301758 11.0199707 45.54586914 10.52856445 44.58032227 C9.85180664 43.23647461 9.85180664 43.23647461 9.16137695 41.86547852 C8.74243164 41.03806152 8.32348633 40.21064453 7.8918457 39.3581543 C6.97387695 37.29516602 6.97387695 37.29516602 6.97387695 35.29516602 C4.33387695 35.29516602 1.69387695 35.29516602 -1.02612305 35.29516602 C-1.02612305 42.55516602 -1.02612305 49.81516602 -1.02612305 57.29516602 C-4.65612305 57.29516602 -8.28612305 57.29516602 -12.02612305 57.29516602 C-13.71907649 55.60221257 -13.15362033 53.46620118 -13.15551758 51.14868164 C-13.16024582 49.50192444 -13.16024582 49.50192444 -13.16506958 47.82189941 C-13.16304535 46.62713989 -13.16102112 45.43238037 -13.15893555 44.20141602 C-13.15989227 42.98442017 -13.160849 41.76742432 -13.16183472 40.5135498 C-13.16251677 37.93440703 -13.16066076 35.35526255 -13.15649414 32.77612305 C-13.15114627 28.81237966 -13.15643834 24.8487496 -13.1628418 20.88500977 C-13.16218102 18.3863116 -13.16089987 15.8876135 -13.15893555 13.38891602 C-13.16095978 12.19415649 -13.16298401 10.99939697 -13.16506958 9.76843262 C-13.16191742 8.67059448 -13.15876526 7.57275635 -13.15551758 6.44165039 C-13.15472198 5.46981812 -13.15392639 4.49798584 -13.15310669 3.4967041 C-12.82733293 -2.15129377 -4.29623452 0.02543994 0 0 Z M-1.02612305 11.29516602 C-1.02612305 16.24516602 -1.02612305 21.19516602 -1.02612305 26.29516602 C1.56063421 26.26207959 4.13885133 26.19487709 6.72387695 26.10766602 C7.45348633 26.10186523 8.1830957 26.09606445 8.93481445 26.09008789 C12.80633287 25.93170759 14.6227948 25.62389666 17.48950195 22.93969727 C19.22880718 20.34642795 19.22880718 20.34642795 18.97387695 17.17016602 C17.78475995 13.75145463 17.11530037 13.0229489 13.97387695 11.29516602 C11.28184131 11.08037594 8.89663581 11.00990326 6.22387695 11.10766602 C2.63512695 11.20047852 2.63512695 11.20047852 -1.02612305 11.29516602 Z " fill="#FFFFFF" transform="translate(367.026123046875,0.704833984375)"/>
<path d="M0 0 C1.51815699 0.00015911 3.0363194 0.00585313 4.55444336 0.01586914 C5.35208603 0.01728409 6.1497287 0.01869904 6.97154236 0.02015686 C9.52916146 0.02577223 12.08669429 0.03832727 14.64428711 0.05102539 C16.37410356 0.05603841 18.10392137 0.06060166 19.83374023 0.06469727 C24.08312264 0.07574664 28.33244023 0.09302153 32.58178711 0.11352539 C32.58178711 3.74352539 32.58178711 7.37352539 32.58178711 11.11352539 C24.33178711 11.11352539 16.08178711 11.11352539 7.58178711 11.11352539 C7.58178711 15.07352539 7.58178711 19.03352539 7.58178711 23.11352539 C14.51178711 23.11352539 21.44178711 23.11352539 28.58178711 23.11352539 C28.58178711 26.74352539 28.58178711 30.37352539 28.58178711 34.11352539 C21.65178711 34.11352539 14.72178711 34.11352539 7.58178711 34.11352539 C7.91178711 38.07352539 8.24178711 42.03352539 8.58178711 46.11352539 C10.23049805 46.10192383 11.87920898 46.09032227 13.57788086 46.07836914 C15.72501515 46.06899301 17.87215066 46.05989262 20.01928711 46.05102539 C21.10790039 46.04264648 22.19651367 46.03426758 23.31811523 46.02563477 C24.35258789 46.02241211 25.38706055 46.01918945 26.45288086 46.01586914 C27.41121826 46.01063232 28.36955566 46.00539551 29.35693359 46 C31.58178711 46.11352539 31.58178711 46.11352539 32.58178711 47.11352539 C32.65384222 48.79961505 32.66564779 50.48853198 32.64428711 52.17602539 C32.63526367 53.09512695 32.62624023 54.01422852 32.61694336 54.96118164 C32.6053418 55.67145508 32.59374023 56.38172852 32.58178711 57.11352539 C27.47314815 57.13817549 22.36454352 57.15636146 17.25585938 57.16845703 C15.51659543 57.17349743 13.77733575 57.18032969 12.03808594 57.18896484 C9.54352774 57.20104331 7.04902538 57.20675647 4.55444336 57.21118164 C3.77214859 57.21634293 2.98985382 57.22150421 2.18385315 57.2268219 C0.31611597 57.22701765 -1.55150493 57.17552233 -3.41821289 57.11352539 C-5.11116634 55.42057194 -4.54571018 53.28456056 -4.54760742 50.96704102 C-4.55233566 49.32028381 -4.55233566 49.32028381 -4.55715942 47.64025879 C-4.55513519 46.44549927 -4.55311096 45.25073975 -4.55102539 44.01977539 C-4.55198212 42.80277954 -4.55293884 41.58578369 -4.55392456 40.33190918 C-4.55460661 37.7527664 -4.55275061 35.17362192 -4.54858398 32.59448242 C-4.54323612 28.63073904 -4.54852818 24.66710897 -4.55493164 20.70336914 C-4.55427086 18.20467097 -4.55298971 15.70597287 -4.55102539 13.20727539 C-4.55304962 12.01251587 -4.55507385 10.81775635 -4.55715942 9.58679199 C-4.55400726 8.48895386 -4.5508551 7.39111572 -4.54760742 6.26000977 C-4.54681183 5.28817749 -4.54601624 4.31634521 -4.54519653 3.31506348 C-4.33570086 -0.31700039 -3.76895072 0.12517407 0 0 Z " fill="#FFFFFF" transform="translate(314.418212890625,0.886474609375)"/>
<path d="M0 0 C2.22290039 -0.03808594 2.22290039 -0.03808594 5 1 C6.91026256 3.65946811 8.12892011 6.61691165 9.43359375 9.609375 C9.83401382 10.48716614 10.2344339 11.36495728 10.64698792 12.26934814 C11.928228 15.08859729 13.18313269 17.91870691 14.4375 20.75 C15.27756837 22.61145812 16.11934739 24.47214523 16.96289062 26.33203125 C18.58795692 29.91964238 20.19908204 33.51301282 21.80029297 37.11132812 C23.15069763 40.13561311 24.53057977 43.13974962 25.96923828 46.12304688 C26.52724121 47.28384766 27.08524414 48.44464844 27.66015625 49.640625 C28.14234619 50.62063477 28.62453613 51.60064453 29.12133789 52.61035156 C30 55 30 55 29 58 C25.37 58 21.74 58 18 58 C14 50.25 14 50.25 14 48 C6.08 48 -1.84 48 -10 48 C-10.495 50.475 -10.495 50.475 -11 53 C-11.875 55.8125 -11.875 55.8125 -14 58 C-17.69942365 58.43715494 -21.29210162 58.28328595 -25 58 C-24.43074189 52.36355097 -22.31908323 47.88052193 -19.921875 42.83203125 C-19.51342346 41.9565715 -19.10497192 41.08111176 -18.68414307 40.17912292 C-17.37964592 37.38696421 -16.06510201 34.59967715 -14.75 31.8125 C-13.88082183 29.95800487 -13.01232545 28.10319003 -12.14453125 26.24804688 C-10.4916751 22.71566459 -8.835702 19.18477069 -7.17773438 15.65478516 C-4.74033068 10.45659244 -2.34933592 5.23865249 0 0 Z M2 23 C0.83092416 25.31131066 -0.33535892 27.62395623 -1.5 29.9375 C-1.83386719 30.59685547 -2.16773438 31.25621094 -2.51171875 31.93554688 C-4.24141474 34.83305144 -4.24141474 34.83305144 -5 38 C-0.38 38 4.24 38 9 38 C7.72936448 34.18809343 6.51749676 30.73849288 4.875 27.125 C4.52179687 26.34382813 4.16859375 25.56265625 3.8046875 24.7578125 C3.53914062 24.17773438 3.27359375 23.59765625 3 23 C2.67 23 2.34 23 2 23 Z " fill="#FFFFFF" transform="translate(524,0)"/>
<path d="M0 0 C3.3559947 1.70850639 6.25879263 3.71761915 9.0625 6.25 C8.59047514 10.49822374 6.09594482 12.44989709 3.0625 15.25 C-0.9375 13.25 -0.9375 13.25 -2.7109375 12.203125 C-7.20078689 10.28115438 -12.16102229 10.74417997 -16.9375 11.25 C-21.33230365 13.21196592 -24.02400351 15.79505938 -26.2421875 20.12890625 C-28.06046132 25.6756629 -27.99175449 31.92000719 -25.375 37.1875 C-21.94520615 41.49672817 -18.90171487 43.78773498 -13.5078125 44.62890625 C-7.39088402 44.91708981 -4.00035256 43.55635269 1.0625 40.25 C2.0525 40.25 3.0425 40.25 4.0625 40.25 C9 45.1875 9 45.1875 9.1875 48.375 C6.77341204 52.39847993 2.65287156 54.99880798 -1.66015625 56.70703125 C-9.35852173 58.5424906 -17.86325203 58.31851286 -24.9140625 54.5703125 C-32.35258257 49.71660636 -37.8466026 43.93819105 -40.546875 35.30078125 C-42.31889453 25.9976787 -40.66456387 17.8850833 -35.46484375 10.0234375 C-27.22913081 -0.37341997 -12.52358781 -5.36725192 0 0 Z " fill="#FFFFFF" transform="translate(590.9375,1.75)"/>
<path d="M0 0 C0.9075 0.00257812 1.815 0.00515625 2.75 0.0078125 C4.11125 0.00394531 4.11125 0.00394531 5.5 0 C7.75 0.1328125 7.75 0.1328125 8.75 1.1328125 C8.8428726 2.54506296 8.86746772 3.96190184 8.86352539 5.37719727 C8.86344986 6.27805557 8.86337433 7.17891388 8.86329651 8.10707092 C8.85813522 9.08622971 8.85297394 10.06538849 8.84765625 11.07421875 C8.8462413 12.07162582 8.84482635 13.0690329 8.84336853 14.09666443 C8.83775114 17.29624374 8.82519571 20.49575419 8.8125 23.6953125 C8.80748724 25.85872295 8.80292395 28.02213449 8.79882812 30.18554688 C8.78862505 35.50135024 8.76905308 40.81700389 8.75 46.1328125 C15.35 46.1328125 21.95 46.1328125 28.75 46.1328125 C29.79973814 50.33176505 29.47795155 52.92687024 28.75 57.1328125 C24.35343827 57.15746754 19.9569128 57.17565092 15.56030273 57.18774414 C14.06355082 57.19278371 12.56680384 57.19961537 11.07006836 57.20825195 C8.92300193 57.22033409 6.77600038 57.22604441 4.62890625 57.23046875 C2.68866577 57.23832397 2.68866577 57.23832397 0.70922852 57.24633789 C-2.25 57.1328125 -2.25 57.1328125 -3.25 56.1328125 C-3.34881593 54.41962304 -3.37798969 52.70236447 -3.37939453 50.98632812 C-3.38412277 49.33957092 -3.38412277 49.33957092 -3.38894653 47.6595459 C-3.3869223 46.46478638 -3.38489807 45.27002686 -3.3828125 44.0390625 C-3.38376923 42.82206665 -3.38472595 41.6050708 -3.38571167 40.35119629 C-3.38639372 37.77205351 -3.38453772 35.19290903 -3.38037109 32.61376953 C-3.37502322 28.65002614 -3.38031529 24.68639608 -3.38671875 20.72265625 C-3.38605797 18.22395808 -3.38477682 15.72525998 -3.3828125 13.2265625 C-3.38483673 12.03180298 -3.38686096 10.83704346 -3.38894653 9.6060791 C-3.38579437 8.50824097 -3.38264221 7.41040283 -3.37939453 6.27929688 C-3.37859894 5.3074646 -3.37780334 4.33563232 -3.37698364 3.33435059 C-3.20358945 0.32818455 -3.00713731 0.17750463 0 0 Z " fill="#FFFFFF" transform="translate(468.25,0.8671875)"/>
<path d="M0 0 C-1.45281065 5.32697239 -5.08111378 8.36402802 -9 12 C-8.36771484 12.81404297 -8.36771484 12.81404297 -7.72265625 13.64453125 C-7.17480469 14.35996094 -6.62695312 15.07539063 -6.0625 15.8125 C-5.51722656 16.52019531 -4.97195312 17.22789063 -4.41015625 17.95703125 C-3 20 -3 20 -2 23 C-1.34 23 -0.68 23 0 23 C0.309375 21.1746875 0.309375 21.1746875 0.625 19.3125 C2.04243912 12.78811113 5.07072972 6.95986752 8 1 C10.64 1 13.28 1 16 1 C25 18.00409836 25 18.00409836 25 26 C22.69 26 20.38 26 18 26 C17.34 24.68 16.68 23.36 16 22 C13.36 22 10.72 22 8 22 C7.67 23.32 7.34 24.64 7 26 C-7.51492017 27.07454756 -7.51492017 27.07454756 -11.10546875 24.4765625 C-12.375 22.5625 -12.375 22.5625 -14 19 C-14.66 18.67 -15.32 18.34 -16 18 C-16 20.64 -16 23.28 -16 26 C-18.64 26 -21.28 26 -24 26 C-24 17.75 -24 9.5 -24 1 C-21.36 1 -18.72 1 -16 1 C-15.67 2.98 -15.34 4.96 -15 7 C-14.34 6.030625 -13.68 5.06125 -13 4.0625 C-10.78170653 1.36113975 -9.28341481 0.5359462 -5.8125 0.125 C-3.87559281 0.06149485 -1.93794798 0 0 0 Z M12 11 C11.34 12.32 10.68 13.64 10 15 C11.32 14.67 12.64 14.34 14 14 C13.34 13.01 12.68 12.02 12 11 Z " fill="#FFFFFF" transform="translate(86,4)"/>
<path d="M0 0 C8 0 8 0 10.49609375 1.8984375 C11.13675781 2.71570313 11.77742188 3.53296875 12.4375 4.375 C13.42556641 5.59316406 13.42556641 5.59316406 14.43359375 6.8359375 C16 9 16 9 17 11 C17.33 7.37 17.66 3.74 18 0 C20.31 0 22.62 0 25 0 C25 8.25 25 16.5 25 25 C17 25 17 25 14.46875 22.59375 C13.8190625 21.5728125 13.169375 20.551875 12.5 19.5 C11.8296875 18.4790625 11.159375 17.458125 10.46875 16.40625 C9.9840625 15.6121875 9.499375 14.818125 9 14 C8.67 17.63 8.34 21.26 8 25 C5.36 25 2.72 25 0 25 C0 16.75 0 8.5 0 0 Z " fill="#FFFFFF" transform="translate(112,5)"/>
<path d="M0 0 C2.97 0 5.94 0 9 0 C12.89923788 7.2208109 18 16.66907913 18 25 C15.36 25 12.72 25 10 25 C9.67 23.68 9.34 22.36 9 21 C6.36 21 3.72 21 1 21 C0.34 22.32 -0.32 23.64 -1 25 C-3.64 25 -6.28 25 -9 25 C-8.06630907 22.14453745 -7.12817599 19.29066146 -6.1875 16.4375 C-5.79594727 15.23770508 -5.79594727 15.23770508 -5.39648438 14.01367188 C-3.81339179 9.2253054 -2.05819351 4.60466715 0 0 Z M4 10 C3.67 11.32 3.34 12.64 3 14 C4.32 13.67 5.64 13.34 7 13 C6.01 12.01 5.02 11.02 4 10 Z " fill="#FFFFFF" transform="translate(168,5)"/>
<path d="M0 0 C3 1 3 1 5 2 C4.67 3.98 4.34 5.96 4 8 C0.7 7.67 -2.6 7.34 -6 7 C-5.1902561 9.18718513 -5.1902561 9.18718513 -3.00390625 9.74609375 C-1.37939472 10.20615542 0.24560527 10.66449586 1.87109375 11.12109375 C4 12 4 12 6 15 C6.47834507 18.66731219 6.24978588 20.53165147 4.5 23.8125 C1.19853283 26.70128377 -1.74554476 27.16834175 -6 27 C-8.76879388 26.51969902 -11.30110064 25.81930873 -14 25 C-13.67 22.69 -13.34 20.38 -13 18 C-9.37 18.66 -5.74 19.32 -2 20 C-2 19.01 -2 18.02 -2 17 C-2.61488281 16.89042969 -3.22976562 16.78085937 -3.86328125 16.66796875 C-5.07564453 16.43013672 -5.07564453 16.43013672 -6.3125 16.1875 C-7.11300781 16.03667969 -7.91351563 15.88585938 -8.73828125 15.73046875 C-11.29720725 14.90401078 -12.39066183 14.13899377 -14 12 C-14.4375 8.5625 -14.4375 8.5625 -14 5 C-10.00249523 -0.06350604 -6.22202351 -0.51156216 0 0 Z " fill="#FFFFFF" transform="translate(154,4)"/>
<path d="M0 0 C1.65 0 3.3 0 5 0 C7.01953125 2.1875 7.01953125 2.1875 8.8125 5 C9.41707031 5.928125 10.02164063 6.85625 10.64453125 7.8125 C11.09183594 8.534375 11.53914063 9.25625 12 10 C12.33 6.7 12.66 3.4 13 0 C14.65 0.33 16.3 0.66 18 1 C18 6.94 18 12.88 18 19 C12 19 12 19 10.1015625 17.25 C9.37066406 16.13625 9.37066406 16.13625 8.625 15 C7.87089844 13.88625 7.87089844 13.88625 7.1015625 12.75 C6.73804687 12.1725 6.37453125 11.595 6 11 C5.67 13.64 5.34 16.28 5 19 C3.35 19 1.7 19 0 19 C0 12.73 0 6.46 0 0 Z " fill="#FFFFFF" transform="translate(102,35)"/>
<path d="M0 0 C2.64 0 5.28 0 8 0 C8 8.25 8 16.5 8 25 C5.36 25 2.72 25 0 25 C0 16.75 0 8.5 0 0 Z " fill="#FFFFFF" transform="translate(187,5)"/>
<path d="M0 0 C1.65 0 3.3 0 5 0 C7.64 6.6 10.28 13.2 13 20 C11.02 19.67 9.04 19.34 7 19 C6.67 17.68 6.34 16.36 6 15 C3.69 15 1.38 15 -1 15 C-1.33 16.32 -1.66 17.64 -2 19 C-3.65 19.33 -5.3 19.66 -7 20 C-6.41161801 15.15888235 -4.92346884 11.03928805 -2.9375 6.625 C-2.65583984 5.98433594 -2.37417969 5.34367187 -2.08398438 4.68359375 C-1.39540579 3.11970341 -0.69855289 1.55946059 0 0 Z M2 7 C1.67 8.32 1.34 9.64 1 11 C1.99 11 2.98 11 4 11 C3.34 9.68 2.68 8.36 2 7 Z " fill="#FFFFFF" transform="translate(82,35)"/>
<path d="M0 0 C9.06976744 -0.48372093 9.06976744 -0.48372093 13.125 1.625 C15 4 15 4 15.5 7.0625 C15 10 15 10 13.9375 11.875 C10.99772876 13.58196395 8.32129197 13.18799766 5 13 C5 14.98 5 16.96 5 19 C3.35 19 1.7 19 0 19 C0 12.73 0 6.46 0 0 Z M5 4 C5 5.65 5 7.3 5 9 C6.65 8.67 8.3 8.34 10 8 C9.67 6.68 9.34 5.36 9 4 C7.68 4 6.36 4 5 4 Z " fill="#FFFFFF" transform="translate(62,35)"/>
<path d="M0 0 C5.28 0 10.56 0 16 0 C16 1.32 16 2.64 16 4 C14.02 4 12.04 4 10 4 C10 8.95 10 13.9 10 19 C8.35 19 6.7 19 5 19 C5 14.05 5 9.1 5 4 C3.35 4 1.7 4 0 4 C0 2.68 0 1.36 0 0 Z " fill="#FFFFFF" transform="translate(121,35)"/>
<path d="M0 0 C1.65 0 3.3 0 5 0 C5 6.27 5 12.54 5 19 C3.68 19 2.36 19 1 19 C-0.65497356 15.69005287 -0.10084335 12.00877 -0.0625 8.375 C-0.05798828 7.57320312 -0.05347656 6.77140625 -0.04882812 5.9453125 C-0.03703168 3.96350994 -0.01909605 1.98174567 0 0 Z " fill="#FFFFFF" transform="translate(94,35)"/>
</svg>
