<svg xmlns="http://www.w3.org/2000/svg" width="27" height="15" fill="none"><rect width="26" height="14" x=".5" y=".5" fill="#fff" rx="1.5"/><path fill="#F40F02" d="M7.932 8.67H6.557V11H5.212V4.522h2.821c.65 0 1.17.167 1.556.501.387.334.58.852.58 1.552 0 .764-.193 1.305-.58 1.621-.387.317-.94.475-1.657.475Zm.633-1.348c.176-.155.264-.402.264-.739 0-.336-.09-.577-.268-.72-.176-.144-.424-.216-.743-.216H6.557v1.908h1.26c.32 0 .57-.078.748-.233ZM13.975 11h-2.79V4.522h2.79c.401.006.735.053 1.002.141.454.15.821.423 1.103.822.225.322.379.67.461 1.046.082.375.123.732.123 1.072 0 .861-.173 1.59-.519 2.188-.468.806-1.192 1.209-2.17 1.209Zm1.006-4.825c-.208-.352-.62-.528-1.235-.528h-1.248v4.228h1.248c.639 0 1.084-.315 1.336-.945.138-.346.207-.757.207-1.235 0-.659-.103-1.166-.308-1.52Zm7.3-.506h-3.248v1.49h2.843v1.125h-2.843V11h-1.345V4.531h4.592V5.67Z"/><rect width="26" height="14" x=".5" y=".5" stroke="#F40F02" rx="1.5"/></svg>