<svg width="48" height="48" viewBox="0 0 48 48" fill="none" xmlns="http://www.w3.org/2000/svg">
<rect width="48" height="48" rx="8.61539" fill="white"/>
<path d="M20.0835 24.1944C20.0835 23.5348 20.6183 23 21.2779 23H27.3057C27.9654 23 28.5002 23.5348 28.5002 24.1944V28.9583C28.5002 31.2825 26.616 33.1667 24.2918 33.1667C21.9676 33.1667 20.0835 31.2825 20.0835 28.9583V24.1944Z" stroke="#0073BB" stroke-width="1.5"/>
<path d="M21.75 17.3333C21.75 15.9526 22.8693 14.8333 24.25 14.8333C25.6307 14.8333 26.75 15.9526 26.75 17.3333C26.75 18.714 25.6307 19.8333 24.25 19.8333C22.8693 19.8333 21.75 18.714 21.75 17.3333Z" stroke="#0073BB" stroke-width="1.5"/>
<path d="M14.25 18.1667C14.25 16.97 15.22 16 16.4167 16C17.6133 16 18.5833 16.97 18.5833 18.1667C18.5833 19.3633 17.6133 20.3333 16.4167 20.3333C15.22 20.3333 14.25 19.3633 14.25 18.1667Z" stroke="#0073BB" stroke-width="1.5"/>
<path d="M30.5835 18.1667C30.5835 16.97 31.5535 16 32.7502 16C33.9468 16 34.9168 16.97 34.9168 18.1667C34.9168 19.3633 33.9468 20.3333 32.7502 20.3333C31.5535 20.3333 30.5835 19.3633 30.5835 18.1667Z" stroke="#0073BB" stroke-width="1.5"/>
<path fill-rule="evenodd" clip-rule="evenodd" d="M18.2384 30.894C17.7771 31.1219 17.2577 31.25 16.7083 31.25C14.7983 31.25 13.25 29.7017 13.25 27.7917V24C13.25 23.8619 13.3619 23.75 13.5 23.75H18.1799C18.2433 23.1544 18.5309 22.6257 18.9566 22.25H13.5C12.5335 22.25 11.75 23.0335 11.75 24V27.7917C11.75 30.5301 13.9699 32.75 16.7083 32.75C17.3992 32.75 18.0571 32.6087 18.6547 32.3534C18.4585 31.8931 18.317 31.4039 18.2384 30.894Z" fill="#0073BB"/>
<path fill-rule="evenodd" clip-rule="evenodd" d="M29.9283 32.3534C30.5259 32.6087 31.1838 32.75 31.8747 32.75C34.6131 32.75 36.8331 30.5301 36.8331 27.7917V24C36.8331 23.0335 36.0496 22.25 35.0831 22.25H29.6265C30.0522 22.6257 30.3397 23.1544 30.4032 23.75H35.0831C35.2211 23.75 35.3331 23.8619 35.3331 24V27.7917C35.3331 29.7017 33.7847 31.25 31.8747 31.25C31.3254 31.25 30.8059 31.1219 30.3446 30.894C30.2661 31.4039 30.1246 31.8931 29.9283 32.3534Z" fill="#0073BB"/>
</svg>
