<svg width="40" height="40" viewBox="0 0 40 40" fill="none" xmlns="http://www.w3.org/2000/svg">
<mask id="path-1-inside-1_205_67628" fill="white">
<path d="M14.1842 33.8252L18.242 23.4744C18.4189 23.0262 18.1948 22.519 17.7466 22.3479L8.92923 18.8859C8.32765 18.65 8.1802 17.8596 8.66383 17.4291L24.4053 3.24468C25.0894 2.6313 26.1334 3.35085 25.7972 4.21194L21.7394 14.5627C21.5625 15.011 21.7866 15.5182 22.2349 15.6892L31.0581 19.1454C31.6597 19.3813 31.8012 20.1716 31.3235 20.6022L15.582 34.7866C14.8979 35.3999 13.854 34.6804 14.1901 33.8193"/>
</mask>
<path d="M18.242 23.4744L16.4979 22.786L16.4963 22.7901L18.242 23.4744ZM17.7466 22.3479L17.0613 24.0932L17.0697 24.0965L17.0781 24.0997L17.7466 22.3479ZM8.92923 18.8859L9.61451 17.1406L9.61377 17.1403L8.92923 18.8859ZM8.66383 17.4291L9.91059 18.8296L9.91897 18.822L8.66383 17.4291ZM24.4053 3.24468L23.1536 1.84861L23.1501 1.85176L24.4053 3.24468ZM25.7972 4.21194L27.5428 4.89627L27.5438 4.89383L25.7972 4.21194ZM21.7394 14.5627L23.4835 15.2512L23.4851 15.2471L21.7394 14.5627ZM22.2349 15.6892L22.9187 13.9434L22.911 13.9404L22.9033 13.9374L22.2349 15.6892ZM31.0581 19.1454L31.7426 17.3998L31.742 17.3995L31.0581 19.1454ZM31.3235 20.6022L32.5786 21.9951L32.5788 21.995L31.3235 20.6022ZM15.582 34.7866L16.8337 36.1826L16.8372 36.1795L15.582 34.7866ZM15.9299 34.5095L19.9876 24.1588L16.4963 22.7901L12.4386 33.1409L15.9299 34.5095ZM19.986 24.1629C20.5459 22.7446 19.8395 21.1397 18.415 20.5961L17.0781 24.0997C16.5501 23.8982 16.292 23.3078 16.4979 22.786L19.986 24.1629ZM18.4318 20.6026L9.6145 17.1406L8.24396 20.6312L17.0613 24.0932L18.4318 20.6026ZM9.61377 17.1403C10.2927 17.4066 10.489 18.3146 9.91057 18.8295L7.41709 16.0286C5.87136 17.4047 6.36256 19.8934 8.24469 20.6314L9.61377 17.1403ZM9.91897 18.822L25.6604 4.63761L23.1501 1.85176L7.40868 16.0362L9.91897 18.822ZM25.6569 4.64075C24.874 5.34267 23.6672 4.51203 24.0506 3.53004L27.5438 4.89383C28.5995 2.18966 25.3048 -0.0800569 23.1536 1.84862L25.6569 4.64075ZM24.0515 3.5276L19.9938 13.8784L23.4851 15.2471L27.5428 4.89627L24.0515 3.5276ZM19.9954 13.8743C19.4355 15.2926 20.1419 16.8975 21.5664 17.441L22.9033 13.9374C23.4313 14.1389 23.6895 14.7293 23.4835 15.2512L19.9954 13.8743ZM21.551 17.4351L30.3742 20.8912L31.742 17.3995L22.9187 13.9434L21.551 17.4351ZM30.3736 20.891C29.6744 20.6168 29.5132 19.7096 30.0682 19.2093L32.5788 21.995C34.0893 20.6336 33.645 18.1458 31.7426 17.3998L30.3736 20.891ZM30.0683 19.2092L14.3269 33.3936L16.8372 36.1795L32.5786 21.9951L30.0683 19.2092ZM14.3304 33.3905C15.1133 32.6886 16.3201 33.5192 15.9368 34.5012L12.4435 33.1374C11.3878 35.8416 14.6825 38.1113 16.8337 36.1826L14.3304 33.3905Z" fill="#222222" mask="url(#path-1-inside-1_205_67628)"/>
</svg>
