<svg width="42" height="42" viewBox="0 0 42 42" fill="none" xmlns="http://www.w3.org/2000/svg">
<rect x="0.796875" y="0.546875" width="40.9091" height="40.9091" rx="4" fill="white"/>
<path d="M29.3287 14.6094C29.3287 14.195 29.1641 13.7975 28.8711 13.5045C28.578 13.2115 28.1806 13.0469 27.7662 13.0469H18.9266C18.5122 13.0469 18.1148 13.2115 17.8218 13.5045C17.5288 13.7975 17.3641 14.195 17.3641 14.6094C17.3641 15.0238 17.5288 15.4212 17.8218 15.7142C18.1148 16.0073 18.5122 16.1719 18.9266 16.1719H23.9933L14.8766 25.2885C14.5919 25.5831 14.4342 25.9777 14.4376 26.3874C14.4409 26.7971 14.6051 27.1891 14.8946 27.4789C15.1842 27.7687 15.576 27.9332 15.9857 27.937C16.3954 27.9408 16.7901 27.7834 17.085 27.499L26.2037 18.3802V23.449C26.2037 23.8634 26.3683 24.2608 26.6614 24.5538C26.9544 24.8468 27.3518 25.0115 27.7662 25.0115C28.1806 25.0115 28.578 24.8468 28.8711 24.5538C29.1641 24.2608 29.3287 23.8634 29.3287 23.449V14.6073V14.6094Z" fill="#FF5310"/>
</svg>
