<svg width="40" height="40" viewBox="0 0 40 40" fill="none" xmlns="http://www.w3.org/2000/svg">
<path d="M8.40689 32.8859C6.62387 31.2816 5.19318 29.3248 4.20535 27.1392C3.21752 24.9536 2.69403 22.5867 2.66801 20.1884C2.64199 17.79 3.11401 15.4124 4.05419 13.2058C4.99438 10.9993 6.38227 9.01189 8.13007 7.36935" stroke="#222222" stroke-width="1.875" stroke-linecap="round" stroke-linejoin="round"/>
<path d="M31.5931 32.8859C33.3761 31.2816 34.8068 29.3248 35.7947 27.1392C36.7825 24.9536 37.306 22.5867 37.332 20.1884C37.358 17.79 36.886 15.4124 35.9458 13.2058C35.0056 10.9993 33.6177 9.01189 31.8699 7.36935" stroke="#222222" stroke-width="1.875" stroke-linecap="round" stroke-linejoin="round"/>
<path d="M11.3049 29.6641C10.0358 28.5223 9.00403 27.1416 8.26849 25.601C7.53295 24.0604 7.10806 22.39 7.01807 20.6852C6.92809 18.9804 7.17477 17.2746 7.74403 15.6651C8.3133 14.0556 9.194 12.574 10.3359 11.3049C11.4777 10.0358 12.8584 9.00403 14.399 8.26849C15.9396 7.53295 17.61 7.10806 19.3148 7.01807C21.0196 6.92809 22.7254 7.17477 24.3349 7.74403C25.9444 8.3133 27.426 9.194 28.6951 10.3359C29.9642 11.4777 30.996 12.8584 31.7315 14.399C32.467 15.9396 32.8919 17.61 32.9819 19.3148C33.0719 21.0196 32.8252 22.7254 32.256 24.3349C31.6867 25.9444 30.806 27.426 29.6641 28.6951C28.5223 29.9642 27.1416 30.996 25.601 31.7315C24.0604 32.467 22.39 32.8919 20.6852 32.9819C18.9804 33.0719 17.2746 32.8252 15.6651 32.256C14.0556 31.6867 12.574 30.806 11.3049 29.6641L11.3049 29.6641Z" stroke="#222222" stroke-width="1.875" stroke-linecap="round" stroke-linejoin="round"/>
<path d="M17.0268 28.0771L18.9856 22.9377C19.071 22.7151 18.9628 22.4632 18.7464 22.3783L14.4902 20.6593C14.1998 20.5422 14.1286 20.1498 14.3621 19.936L21.9606 12.893C22.2909 12.5885 22.7948 12.9457 22.6325 13.3733L20.6738 18.5128C20.5884 18.7353 20.6966 18.9872 20.913 19.0721L25.172 20.7882C25.4624 20.9053 25.5307 21.2977 25.3001 21.5115L17.7016 28.5545C17.3713 28.859 16.8674 28.5017 17.0297 28.0742" stroke="#222222" stroke-width="1.875" stroke-linecap="round" stroke-linejoin="round"/>
</svg>
