<svg width="40" height="40" viewBox="0 0 40 40" fill="none" xmlns="http://www.w3.org/2000/svg">
<path d="M16.5 5.01465H7.34615C6.60269 5.01465 6 5.61734 6 6.3608V15.5147C6 16.2581 6.60269 16.8608 7.34615 16.8608H16.5C17.2435 16.8608 17.8462 16.2581 17.8462 15.5147V6.3608C17.8462 5.61734 17.2435 5.01465 16.5 5.01465Z" stroke="#222222" stroke-width="1.875" stroke-linecap="round" stroke-linejoin="round"/>
<path d="M32.6563 5.01465H23.5024C22.7589 5.01465 22.1562 5.61734 22.1562 6.3608V15.5147C22.1562 16.2581 22.7589 16.8608 23.5024 16.8608H32.6563C33.3997 16.8608 34.0024 16.2581 34.0024 15.5147V6.3608C34.0024 5.61734 33.3997 5.01465 32.6563 5.01465Z" stroke="#222222" stroke-width="1.875" stroke-linecap="round" stroke-linejoin="round"/>
<path d="M16.5 21.168H7.34615C6.60269 21.168 6 21.7707 6 22.5141V31.668C6 32.4114 6.60269 33.0141 7.34615 33.0141H16.5C17.2435 33.0141 17.8462 32.4114 17.8462 31.668V22.5141C17.8462 21.7707 17.2435 21.168 16.5 21.168Z" stroke="#222222" stroke-width="1.875" stroke-linecap="round" stroke-linejoin="round"/>
<path d="M32.6563 21.168H23.5024C22.7589 21.168 22.1562 21.7707 22.1562 22.5141V31.668C22.1562 32.4114 22.7589 33.0141 23.5024 33.0141H32.6563C33.3997 33.0141 34.0024 32.4114 34.0024 31.668V22.5141C34.0024 21.7707 33.3997 21.168 32.6563 21.168Z" stroke="#222222" stroke-width="1.875" stroke-linecap="round" stroke-linejoin="round"/>
</svg>
