<svg width="20" height="20" viewBox="0 0 20 20" fill="none" xmlns="http://www.w3.org/2000/svg">
<path fill-rule="evenodd" clip-rule="evenodd" d="M19.9999 9.99993C19.9999 4.49699 15.5029 0 9.99993 0C4.49699 0 0 4.49699 0 9.99993C0 15.5029 4.49699 19.9999 9.99993 19.9999C15.5029 19.9999 19.9999 15.5029 19.9999 9.99993ZM1.3042 10.0003C1.3042 5.2177 5.21722 1.30469 9.99979 1.30469C14.7824 1.30469 18.6954 5.2177 18.6954 10.0003C18.6954 14.7018 14.9139 18.563 10.2422 18.6925L9.99979 18.6959L9.75737 18.6925C5.0857 18.563 1.3042 14.7018 1.3042 10.0003Z" fill="#A7A9AC"/>
<path d="M14.8552 7.60883L9.05814 13.4059C8.91321 13.5508 8.76829 13.6233 8.5509 13.6233C8.33351 13.6233 8.18858 13.5508 8.04365 13.4059L5.14512 10.5074C4.85527 10.2175 4.85527 9.78273 5.14512 9.49287C5.43498 9.20302 5.86976 9.20302 6.15961 9.49287L8.5509 11.8842L13.8407 6.59434C14.1306 6.30449 14.5653 6.30449 14.8552 6.59434C15.1451 6.8842 15.1451 7.31898 14.8552 7.60883Z" fill="#A7A9AC"/>
</svg>
