<svg width="30" height="31" viewBox="0 0 30 31" fill="none" xmlns="http://www.w3.org/2000/svg">
<circle cx="14.9619" cy="15.4619" r="14.2119" stroke="#222222" stroke-width="1.5"/>
<path d="M20.7157 21.2151C20.997 20.9339 20.997 20.4779 20.7157 20.1967L17.8478 17.3294C18.7504 16.1678 19.1762 14.7059 19.0386 13.2413C18.9011 11.7767 18.2105 10.4196 17.1074 9.44638C16.0044 8.47313 14.5718 7.95691 13.1015 8.00282C11.6312 8.04873 10.2337 8.65334 9.19351 9.69351C8.15333 10.7337 7.54873 12.1312 7.50282 13.6015C7.45691 15.0718 7.97313 16.5044 8.94638 17.6074C9.91962 18.7105 11.2767 19.4011 12.7413 19.5387C14.2059 19.6762 15.6678 19.2504 16.8294 18.3479L19.6974 21.2152C19.9786 21.4964 20.4345 21.4963 20.7157 21.2151ZM13.3025 18.1231C12.4478 18.1231 11.6123 17.8697 10.9017 17.3949C10.191 16.92 9.63714 16.2451 9.31006 15.4555C8.98299 14.6659 8.89741 13.797 9.06415 12.9587C9.23089 12.1204 9.64246 11.3505 10.2468 10.7461C10.8512 10.1417 11.6212 9.73017 12.4594 9.56343C13.2977 9.39669 14.1666 9.48227 14.9562 9.80934C15.7458 10.1364 16.4207 10.6903 16.8956 11.4009C17.3704 12.1116 17.6239 12.9471 17.6239 13.8018C17.6225 14.9475 17.1668 16.0458 16.3567 16.856C15.5466 17.6661 14.4482 18.1218 13.3025 18.1231Z" fill="#222222"/>
</svg>
