<svg width="100" height="100" viewBox="0 0 24 24" fill="none" xmlns="http://www.w3.org/2000/svg">
  <path d="M18 16.08C17.24 16.08 16.56 16.38 16.05 16.88L8.91 12.7C8.96 12.47 9 12.24 9 12C9 11.76 8.96 11.53 8.91 11.3L15.05 7.12C15.56 7.62 16.24 7.92 18 7.92C19.66 7.92 21 6.58 21 4.92C21 3.26 19.66 1.92 18 1.92C16.34 1.92 15 3.26 15 4.92C15 5.16 15.04 5.39 15.09 5.62L8.95 9.8C8.44 9.3 7.76 9 7 9C5.34 9 4 10.34 4 12C4 13.66 5.34 15 7 15C7.76 15 8.44 14.7 8.95 14.2L15.09 18.38C15.04 18.61 15 18.84 15 19.08C15 20.74 16.34 22.08 18 22.08C19.66 22.08 21 20.74 21 19.08C21 17.42 19.66 16.08 18 16.08Z" fill="none" stroke="#000" stroke-width="1"/>
</svg>
