<svg width="131" height="20" viewBox="0 0 131 20" fill="none" xmlns="http://www.w3.org/2000/svg">
<g id="g10">
<g id="g12">
<g id="g14">
<g id="g20">
<g id="g22">
<path id="path30" d="M3.84992 4.72808L3.54949 6.93088H2.47018L2.78173 4.72808H1.70242L1.39087 6.93088H0.333808V7.93263H1.25734L1.05673 9.31204H0V10.3131H0.923535L0.611981 12.5166H1.69129L2.00285 10.3131H3.07071L2.77028 12.5166H3.84992L4.15035 10.3131H5.11806V9.31204H4.295L4.48415 7.93263H5.4522V6.93088H4.62848L4.92923 4.72808H3.84992ZM2.33666 7.93263H3.40484L3.21568 9.31204H2.1367L2.33666 7.93263Z" fill="url(#paint0_linear_865_11674)"/>
</g>
</g>
</g>
</g>
<g id="g32">
<path id="path34" d="M8.33482 4.57197V7.62075H11.5505V4.57197H13.2974V12.5166H11.5505V9.08983H8.33482V12.5166H6.58789V4.57197H8.33482Z" fill="#0078BA"/>
</g>
<g id="g36">
<g id="Clip path group">
<mask id="mask0_865_11674" style="mask-type:luminance" maskUnits="userSpaceOnUse" x="0" y="0" width="131" height="20">
<g id="clipPath42">
<path id="path40" d="M0 0.000135422H130.395V19.6987H0V0.000135422Z" fill="white"/>
</g>
</mask>
<g mask="url(#mask0_865_11674)">
<g id="g38">
<g id="g44">
<path id="path46" d="M18.2476 9.70186C18.1808 9.76142 18.0974 9.80724 17.9969 9.84094C17.8971 9.874 17.7894 9.90181 17.6745 9.9244C17.5594 9.94665 17.4389 9.9653 17.3129 9.98003C17.1866 9.99508 17.0606 10.0131 16.9346 10.0357C16.8158 10.0579 16.699 10.0877 16.5841 10.1247C16.4689 10.1617 16.3688 10.2121 16.2837 10.2749C16.1983 10.3377 16.1295 10.4179 16.0778 10.5138C16.0258 10.6103 15.9999 10.7327 15.9999 10.8813C15.9999 11.022 16.0258 11.1408 16.0778 11.237C16.1295 11.3336 16.2002 11.4098 16.2892 11.4655C16.3783 11.5211 16.4817 11.5601 16.6008 11.582C16.7193 11.6042 16.8417 11.6157 16.968 11.6157C17.2795 11.6157 17.5204 11.5637 17.6912 11.4596C17.8617 11.3562 17.9877 11.2318 18.0696 11.0868C18.151 10.9425 18.2011 10.7959 18.2198 10.6476C18.2381 10.4994 18.2476 10.3803 18.2476 10.2916V9.70186ZM14.598 8.53353C14.6202 8.16274 14.7128 7.85446 14.8761 7.60967C15.0391 7.36487 15.2469 7.16852 15.4992 7.02027C15.7512 6.87202 16.035 6.76598 16.3504 6.70315C16.6656 6.64031 16.9827 6.60857 17.3015 6.60857C17.5911 6.60857 17.884 6.62886 18.1808 6.66944C18.4773 6.71035 18.7483 6.79053 18.9928 6.909C19.2376 7.02747 19.4382 7.19273 19.5939 7.40415C19.7497 7.61556 19.8276 7.89537 19.8276 8.24423V11.237C19.8276 11.4969 19.8423 11.7453 19.8721 11.9829C19.9016 12.2201 19.9536 12.3982 20.0276 12.517H18.4256C18.3958 12.4276 18.3716 12.3373 18.3533 12.2444C18.3346 12.1514 18.3219 12.0568 18.3143 11.9603C18.062 12.2201 17.7652 12.4018 17.4239 12.5055C17.0829 12.6096 16.7343 12.6616 16.3783 12.6616C16.1037 12.6616 15.8478 12.6279 15.6102 12.5612C15.3729 12.4944 15.1654 12.391 14.9874 12.2496C14.8094 12.1089 14.67 11.9312 14.5701 11.7155C14.47 11.5005 14.4199 11.2449 14.4199 10.9481C14.4199 10.6218 14.4772 10.3525 14.5924 10.1414C14.7073 9.92963 14.8555 9.76142 15.0371 9.6351C15.2191 9.50877 15.4269 9.41419 15.6606 9.35136C15.8942 9.2882 16.1295 9.23813 16.3671 9.20115C16.6044 9.16384 16.8381 9.13438 17.0681 9.1118C17.2979 9.08988 17.5021 9.05617 17.6801 9.01199C17.8581 8.96748 17.9989 8.90268 18.1029 8.81727C18.2067 8.73185 18.2548 8.60749 18.2476 8.44419C18.2476 8.27401 18.2198 8.13852 18.1641 8.03838C18.1085 7.93791 18.0342 7.86035 17.9413 7.80439C17.8487 7.74875 17.7413 7.71177 17.6189 7.69312C17.4965 7.67512 17.3646 7.6653 17.2239 7.6653C16.9124 7.6653 16.6676 7.73206 16.4895 7.86591C16.3115 7.99944 16.2078 8.22198 16.178 8.53353H14.598Z" fill="#0078BA"/>
</g>
<g id="g48">
<path id="path50" d="M22.5529 6.76447V7.83265H22.5752C22.6495 7.65462 22.7496 7.48968 22.8756 7.3375C23.0016 7.18565 23.1462 7.05573 23.3099 6.94839C23.4729 6.84039 23.6473 6.75727 23.8325 6.6977C24.0181 6.63847 24.2108 6.60869 24.4111 6.60869C24.5149 6.60869 24.6301 6.62734 24.7561 6.66432V8.13308C24.6821 8.11835 24.5927 8.10526 24.489 8.09413C24.3853 8.08301 24.2851 8.07744 24.1886 8.07744C23.8993 8.07744 23.6545 8.12588 23.4542 8.22209C23.2542 8.31864 23.0926 8.4502 22.9702 8.6171C22.8478 8.784 22.7607 8.97905 22.709 9.20126C22.6567 9.4238 22.6308 9.665 22.6308 9.92451V12.5171H21.0508V6.76447H22.5529Z" fill="#0078BA"/>
</g>
<g id="g52">
<path id="path54" d="M31.3777 12.5171L30.0314 7.1094H30.0091L28.6847 12.5171H26.9158L24.8125 4.57246H26.5598L27.8171 9.98015H27.839L29.2191 4.57246H30.8548L32.2122 10.0469H32.2345L33.5363 4.57246H35.2499L33.1135 12.5171H31.3777Z" fill="#0078BA"/>
</g>
<g id="g56">
<path id="path58" d="M39.0542 9.70186C38.9875 9.76142 38.904 9.80724 38.8035 9.84094C38.7037 9.874 38.5961 9.90181 38.4812 9.9244C38.366 9.94665 38.2456 9.9653 38.1196 9.98003C37.9932 9.99508 37.8672 10.0131 37.7412 10.0357C37.6225 10.0579 37.5056 10.0877 37.3908 10.1247C37.2756 10.1617 37.1754 10.2121 37.0903 10.2749C37.0049 10.3377 36.9362 10.4179 36.8845 10.5138C36.8324 10.6103 36.8066 10.7327 36.8066 10.8813C36.8066 11.022 36.8324 11.1408 36.8845 11.237C36.9362 11.3336 37.0069 11.4098 37.0959 11.4655C37.1849 11.5211 37.2883 11.5601 37.4074 11.582C37.5259 11.6042 37.6483 11.6157 37.7746 11.6157C38.0862 11.6157 38.327 11.5637 38.4979 11.4596C38.6684 11.3562 38.7944 11.2318 38.8762 11.0868C38.9577 10.9425 39.0078 10.7959 39.0264 10.6476C39.0447 10.4994 39.0542 10.3803 39.0542 10.2916V9.70186ZM35.4046 8.53353C35.4268 8.16274 35.5195 7.85446 35.6828 7.60967C35.8457 7.36487 36.0536 7.16852 36.3059 7.02027C36.5579 6.87202 36.8416 6.76598 37.1571 6.70315C37.4722 6.64031 37.7894 6.60857 38.1081 6.60857C38.3977 6.60857 38.6906 6.62886 38.9875 6.66944C39.284 6.71035 39.5549 6.79053 39.7994 6.909C40.0442 7.02747 40.2448 7.19273 40.4006 7.40415C40.5564 7.61556 40.6343 7.89537 40.6343 8.24423V11.237C40.6343 11.4969 40.649 11.7453 40.6788 11.9829C40.7082 12.2201 40.7602 12.3982 40.8342 12.517H39.2323C39.2025 12.4276 39.1783 12.3373 39.1599 12.2444C39.1413 12.1514 39.1285 12.0568 39.121 11.9603C38.8687 12.2201 38.5718 12.4018 38.2305 12.5055C37.8895 12.6096 37.541 12.6616 37.1849 12.6616C36.9103 12.6616 36.6544 12.6279 36.4168 12.5612C36.1796 12.4944 35.9721 12.391 35.794 12.2496C35.616 12.1089 35.4766 11.9312 35.3768 11.7155C35.2766 11.5005 35.2266 11.2449 35.2266 10.9481C35.2266 10.6218 35.2838 10.3525 35.399 10.1414C35.5139 9.92963 35.6621 9.76142 35.8438 9.6351C36.0257 9.50877 36.2335 9.41419 36.4672 9.35136C36.7009 9.2882 36.9362 9.23813 37.1738 9.20115C37.411 9.16384 37.6447 9.13438 37.8748 9.1118C38.1045 9.08988 38.3087 9.05617 38.4868 9.01199C38.6648 8.96748 38.8055 8.90268 38.9096 8.81727C39.0133 8.73185 39.0614 8.60749 39.0542 8.44419C39.0542 8.27401 39.0264 8.13852 38.9708 8.03838C38.9151 7.93791 38.8409 7.86035 38.7479 7.80439C38.6553 7.74875 38.548 7.71177 38.4256 7.69312C38.3032 7.67512 38.1713 7.6653 38.0305 7.6653C37.719 7.6653 37.4742 7.73206 37.2962 7.86591C37.1181 7.99944 37.0144 8.22198 36.9846 8.53353H35.4046Z" fill="#0078BA"/>
</g>
<g id="g60">
<path id="path62" d="M43.2601 10.3192C43.3046 10.5382 43.3805 10.7348 43.4882 10.9089C43.5955 11.0834 43.7366 11.2225 43.911 11.3262C44.0851 11.4303 44.3024 11.482 44.5619 11.482C44.8214 11.482 45.0384 11.4316 45.2128 11.3318C45.3869 11.2316 45.528 11.0981 45.6357 10.9312C45.743 10.764 45.8209 10.5715 45.8693 10.3526C45.9174 10.134 45.9417 9.90556 45.9417 9.66829C45.9417 9.44575 45.9174 9.22289 45.8693 9.00068C45.8209 8.77814 45.745 8.57785 45.6412 8.39982C45.5372 8.22179 45.3981 8.07681 45.224 7.96587C45.0495 7.8546 44.8401 7.79897 44.5953 7.79897C44.3355 7.79897 44.1168 7.851 43.9388 7.95442C43.7608 8.05881 43.6161 8.1979 43.5049 8.372C43.3936 8.54644 43.3137 8.74312 43.2656 8.96173C43.2172 9.18067 43.1933 9.40877 43.1933 9.64571C43.1933 9.8761 43.2156 10.1003 43.2601 10.3192ZM45.8857 14.5308V11.7935H45.8638C45.6782 12.1051 45.4187 12.3276 45.0849 12.4612C44.7511 12.5947 44.4061 12.6614 44.0501 12.6614C43.783 12.6614 43.5065 12.6114 43.2211 12.5112C42.9354 12.4111 42.6739 12.2442 42.4363 12.0105C42.1991 11.7768 42.0027 11.4692 41.8469 11.087C41.6912 10.7051 41.6133 10.2358 41.6133 9.67942C41.6133 9.28638 41.665 8.90446 41.7691 8.53334C41.8728 8.16256 42.0322 7.83398 42.2475 7.54861C42.4625 7.26291 42.7315 7.03514 43.0542 6.86398C43.3766 6.6938 43.7572 6.60839 44.1944 6.60839C44.5508 6.60839 44.8862 6.67711 45.2017 6.81423C45.5169 6.95168 45.7633 7.17946 45.9417 7.49854H45.9639V6.76416H47.466V14.5308H45.8857Z" fill="#0078BA"/>
</g>
<g id="g64">
<path id="path66" d="M51.8172 6.76401V7.82106H50.66V10.6699C50.66 10.9366 50.7045 11.1146 50.7935 11.2037C50.8825 11.2927 51.0602 11.3375 51.3276 11.3375C51.4163 11.3375 51.5017 11.3336 51.5835 11.326C51.665 11.3188 51.7429 11.3077 51.8172 11.2927V12.5166C51.6837 12.5389 51.5351 12.5536 51.3721 12.5611C51.2088 12.5683 51.0494 12.5723 50.8937 12.5723C50.6489 12.5723 50.4168 12.5556 50.1982 12.5222C49.9793 12.4888 49.7865 12.424 49.6196 12.3275C49.4524 12.2313 49.3208 12.0938 49.2246 11.9158C49.1281 11.7377 49.08 11.5041 49.08 11.2151V7.82106H48.123V6.76401H49.08V5.03933H50.66V6.76401H51.8172Z" fill="#0078BA"/>
</g>
<g id="g68">
<path id="path70" d="M54.4872 4.57246V7.86603L57.5916 4.57246H59.7725L56.668 7.71025L60.0729 12.5171H57.8809L55.4889 8.94534L54.4872 9.9579V12.5171H52.7402V4.57246H54.4872Z" fill="#0078BA"/>
</g>
<g id="g72">
<path id="path74" d="M64.0835 8.11071C63.8943 7.90289 63.6066 7.79915 63.2211 7.79915C62.9688 7.79915 62.7594 7.84202 62.5925 7.92678C62.4256 8.01253 62.292 8.11791 62.1919 8.24423C62.0917 8.37055 62.0211 8.50375 61.9805 8.6448C61.9396 8.78585 61.9153 8.91184 61.9085 9.02311H64.4785C64.4042 8.62222 64.2726 8.31852 64.0835 8.11071ZM62.2976 11.1372C62.5352 11.3673 62.8765 11.4822 63.3213 11.4822C63.6404 11.4822 63.9146 11.4026 64.1447 11.2429C64.3747 11.0836 64.5155 10.9144 64.5675 10.7363H65.9584C65.7358 11.4265 65.3945 11.92 64.9347 12.2165C64.4745 12.5134 63.9182 12.6616 63.2656 12.6616C62.813 12.6616 62.4049 12.5893 62.0417 12.4446C61.6781 12.3 61.3701 12.0941 61.1181 11.8268C60.8658 11.5601 60.6711 11.241 60.534 10.8702C60.3965 10.4994 60.3281 10.0913 60.3281 9.6459C60.3281 9.2162 60.3985 8.8153 60.5395 8.44451C60.6806 8.07373 60.8805 7.75268 61.1404 7.48203C61.3999 7.21139 61.7095 6.99801 62.0695 6.84224C62.4292 6.68613 62.8278 6.60857 63.2656 6.60857C63.7552 6.60857 64.1816 6.70315 64.5452 6.89231C64.9085 7.08114 65.2073 7.33575 65.441 7.65417C65.6746 7.97358 65.8432 8.33684 65.9472 8.74461C66.0513 9.15304 66.0879 9.57946 66.0585 10.0245H61.9085C61.9304 10.5364 62.06 10.9075 62.2976 11.1372Z" fill="#0078BA"/>
</g>
<g id="g76">
<path id="path78" d="M68.9071 4.57246V11.0483H72.7793V12.5171H67.1602V4.57246H68.9071Z" fill="#0078BA"/>
</g>
<path id="path80" d="M75.2167 12.5171H73.6367V6.76447H75.2167V12.5171ZM73.6367 4.57246H75.2167V5.87464H73.6367V4.57246Z" fill="#0078BA"/>
<g id="g82">
<path id="path84" d="M78.5884 14.2308C78.284 14.4308 77.8612 14.5312 77.3199 14.5312C77.1566 14.5312 76.9953 14.5254 76.8359 14.5142C76.6762 14.5034 76.5148 14.4903 76.3519 14.4756V13.1738C76.5001 13.1882 76.6523 13.2032 76.8081 13.2179C76.9638 13.233 77.1196 13.2366 77.2754 13.2291C77.4829 13.2071 77.637 13.1253 77.7368 12.9843C77.8373 12.8436 77.8874 12.6878 77.8874 12.5173C77.8874 12.3913 77.8651 12.2725 77.8206 12.1612L75.8066 6.76465H77.4868L78.7887 10.7036H78.8109L80.0679 6.76465H81.7039L79.3005 13.2291C79.1297 13.6964 78.8924 14.0305 78.5884 14.2308Z" fill="#0078BA"/>
</g>
<g id="g86">
<path id="path88" d="M85.7163 8.11071C85.5271 7.90289 85.2395 7.79915 84.8539 7.79915C84.6016 7.79915 84.3922 7.84202 84.2253 7.92678C84.0584 8.01253 83.9248 8.11791 83.8247 8.24423C83.7246 8.37055 83.6539 8.50375 83.6133 8.6448C83.5724 8.78585 83.5482 8.91184 83.5413 9.02311H86.1113C86.037 8.62222 85.9054 8.31852 85.7163 8.11071ZM83.9304 11.1372C84.168 11.3673 84.5093 11.4822 84.9541 11.4822C85.2732 11.4822 85.5474 11.4026 85.7775 11.2429C86.0075 11.0836 86.1483 10.9144 86.2003 10.7363H87.5912C87.3686 11.4265 87.0273 11.92 86.5675 12.2165C86.1074 12.5134 85.551 12.6616 84.8984 12.6616C84.4458 12.6616 84.0377 12.5893 83.6745 12.4446C83.3109 12.3 83.0029 12.0941 82.7509 11.8268C82.4986 11.5601 82.3039 11.241 82.1668 10.8702C82.0293 10.4994 81.9609 10.0913 81.9609 9.6459C81.9609 9.2162 82.0313 8.8153 82.1723 8.44451C82.3134 8.07373 82.5134 7.75268 82.7732 7.48203C83.0327 7.21139 83.3423 6.99801 83.7023 6.84224C84.062 6.68613 84.4606 6.60857 84.8984 6.60857C85.388 6.60857 85.8145 6.70315 86.178 6.89231C86.5413 7.08114 86.8401 7.33575 87.0738 7.65417C87.3074 7.97358 87.476 8.33684 87.58 8.74461C87.6841 9.15304 87.7208 9.57946 87.6913 10.0245H83.5413C83.5632 10.5364 83.6928 10.9075 83.9304 11.1372Z" fill="#0078BA"/>
</g>
<g id="g90">
<path id="path92" d="M94.2399 5.68946C94.166 5.80367 94.1205 5.8616 94.0766 5.93687C91.8712 9.48178 89.7993 13.1157 87.9516 16.8629C87.6813 17.3865 87.4476 17.9232 87.2332 18.4753C87.1917 18.5676 87.1675 18.6586 87.1279 18.7682C87.1279 18.7682 87.0526 19.153 87.1187 19.4188C87.1374 19.4944 86.9881 19.5042 86.9191 19.5124C86.781 19.5294 86.6451 19.4227 86.5902 19.2538L86.5777 19.1501C86.5673 19.0637 86.5738 18.9753 86.581 18.8867C86.6252 18.2325 86.8137 17.6133 87.0179 16.9751C87.7048 14.8054 88.594 12.7168 89.5738 10.6517C90.5517 8.57003 91.6438 6.56227 92.8821 4.6072C93.1632 4.16998 93.4457 3.75043 93.7265 3.3132L94.2049 2.62399C94.2255 2.59813 94.2468 2.57195 94.2684 2.54512C94.3666 2.42436 94.2612 2.24665 94.1084 2.27447L93.1943 2.44138C92.2224 2.56279 91.8922 2.67013 90.9941 2.85831L89.0103 3.288C87.9912 3.56781 87.1812 3.71606 86.1624 3.9962L85.4942 4.12907C85.304 4.15165 85.1289 4.15525 84.9764 4.05118C84.8236 3.94646 84.7375 3.81653 84.7212 3.6781C84.7045 3.53967 84.7745 3.39109 84.9179 3.26837C85.0128 3.18721 85.1453 3.11848 85.2598 3.05205C85.2598 3.05205 86.583 2.70711 89.2623 2.17433L93.0978 1.58198L93.3053 1.55711C93.3053 1.55711 96.4634 1.02465 98.0545 0.793934C98.26 0.751717 98.4675 0.726847 98.675 0.701975C98.675 0.701975 100.812 0.352131 102.546 0.327257C103.02 0.320713 103.494 0.33642 103.949 0.474525C104.149 0.538342 104.322 0.657793 104.448 0.835823C104.47 0.868223 104.491 0.900621 104.495 0.935312C104.499 0.969675 104.484 0.988983 104.471 1.02596C104.456 1.04527 104.44 1.06458 104.406 1.06851C104.371 1.07276 104.352 1.05771 104.317 1.06164C104.121 1.03284 103.927 1.02106 103.73 0.992256C103.214 0.931385 102.689 0.941856 102.167 0.969347L100.558 1.19516C99.4022 1.35126 98.8236 1.44061 97.652 1.61635C97.6003 1.62289 97.5505 1.64613 97.4985 1.65267C97.293 1.69456 96.8505 1.65693 96.5622 2.09546C96.5039 2.18415 96.3141 2.52581 96.2549 2.62072C95.7633 3.34626 95.4541 3.82471 94.9606 4.53291L94.2399 5.68946Z" fill="#DC1C4E"/>
</g>
<g id="g94">
<path id="path96" d="M96.1422 10.9928C95.6909 11.3246 95.2635 11.6745 94.8073 11.9644C94.6673 12.0453 94.5305 12.147 94.3878 12.2066C94.3089 12.259 94.2035 12.2717 94.1194 12.2819C93.7614 12.3247 93.4129 12.0891 93.3232 11.6941L93.3003 11.5049C93.2725 11.2732 93.2656 11.0392 93.3219 10.7977C93.4626 10.012 93.8288 9.32766 94.2631 8.67772C94.7877 7.88869 95.4115 7.21616 96.1769 6.65458C96.5091 6.40095 96.889 6.18463 97.3073 6.11296L97.4758 6.093C98.023 6.02754 98.4606 6.29492 98.634 6.85061C98.7018 7.05613 98.7688 7.26132 98.9577 7.40957C99.0519 7.48386 99.104 7.56241 99.1141 7.64684C99.1265 7.75189 99.0948 7.84156 99.0235 7.95676C98.9701 8.04872 98.9122 8.09846 98.8281 8.10861C98.7649 8.11614 98.6965 8.08112 98.6445 8.00225C98.5136 7.80425 98.3823 7.77742 98.2141 7.79771C98.13 7.80785 98.0456 7.818 97.9641 7.84909C97.4716 8.01501 97.0311 8.2598 96.6197 8.56547C95.778 9.20036 95.0799 9.96746 94.5494 10.8851C94.4621 11.0451 94.3295 11.1891 94.3315 11.3809C94.3763 11.3973 94.3969 11.3947 94.4392 11.3894C94.5233 11.3796 94.5789 11.3086 94.6607 11.2775C95.9184 10.55 97.0507 9.66703 98.003 8.52783C98.0423 8.50132 98.0793 8.45452 98.1163 8.4074C98.1533 8.35995 98.2089 8.28926 98.2933 8.27911C98.3139 8.27649 98.3378 8.29515 98.3591 8.29286C98.4036 8.30857 98.4062 8.32984 98.4111 8.37206C98.4161 8.41427 98.4213 8.45616 98.4053 8.50067L98.4128 8.56383C98.4305 8.7111 98.5326 8.84822 98.6314 8.9644C98.7522 9.07829 98.8045 9.15749 98.812 9.22065C98.8222 9.30475 98.7901 9.39377 98.6998 9.53286C98.5731 9.71907 98.4429 9.88401 98.3162 10.0702C97.7232 10.8246 97.2883 11.645 96.9918 12.5561C96.9761 12.6006 96.981 12.6428 96.9414 12.669C96.9097 12.758 96.8511 12.8078 96.7882 12.8153C96.7251 12.8232 96.657 12.7885 96.586 12.7332C96.5127 12.6563 96.4793 12.5538 96.4665 12.4481C96.444 12.259 96.4633 12.0646 96.5274 11.8859C96.64 11.4028 96.8236 10.9751 97.0046 10.5264C97.0177 10.4606 97.055 10.4138 97.0422 10.3081C96.7071 10.5405 96.4355 10.7653 96.1422 10.9928Z" fill="#DC1C4E"/>
</g>
<g id="g98">
<path id="path100" d="M102.862 4.35785C102.923 4.32938 102.986 4.32185 103.028 4.31695C103.218 4.29404 103.335 4.38665 103.406 4.61312C103.447 4.77871 103.507 4.92107 103.645 5.0114C103.74 5.08536 103.797 5.20645 103.81 5.31182C103.82 5.3956 103.809 5.48266 103.777 5.572C103.644 5.88683 103.414 6.10675 103.108 6.22882C103.066 6.23372 103.027 6.2599 102.985 6.26514C102.669 6.30278 102.362 6.06191 102.303 5.74905L102.266 5.43324C102.207 4.94922 102.435 4.53719 102.862 4.35785ZM100.389 10.6115C100.537 10.5938 100.634 10.5182 100.737 10.4845C101.604 10.0601 102.445 9.59602 103.31 9.15094C103.971 8.7939 104.654 8.43424 105.347 8.15901C105.447 8.10436 105.55 8.07065 105.655 8.05789L105.719 8.05036C105.784 8.06378 105.85 8.07752 105.86 8.16163L105.863 8.18257C105.87 8.24574 105.83 8.27159 105.791 8.29777C105.733 8.34751 105.653 8.39955 105.575 8.45191C104.167 9.17614 102.809 9.9583 101.459 10.8036C101.16 10.9889 100.836 11.1345 100.515 11.3011C100.454 11.3299 100.373 11.3613 100.288 11.3711C99.8884 11.4192 99.4669 11.107 99.3899 10.6462L99.3746 10.5199C99.3392 10.2253 99.3697 9.94423 99.4237 9.68144C99.5372 9.02724 99.8295 8.43718 100.122 7.84713C100.329 7.43772 100.559 7.0473 100.834 6.67226C100.948 6.55215 101.059 6.41045 101.223 6.34827C101.262 6.32208 101.283 6.31947 101.325 6.31456C101.409 6.30441 101.459 6.36234 101.493 6.46543L101.495 6.48637C101.503 6.54953 101.489 6.61498 101.495 6.6572C101.535 6.99396 101.713 7.22893 101.99 7.40925C102.058 7.44329 102.087 7.50416 102.095 7.56732C102.102 7.63048 102.089 7.69626 102.055 7.76433C101.988 7.92175 101.879 8.08439 101.768 8.22577C101.363 8.76543 100.979 9.30247 100.619 9.85816C100.476 10.0889 100.312 10.3222 100.218 10.6109C100.284 10.6243 100.326 10.6194 100.389 10.6115Z" fill="#DC1C4E"/>
</g>
<g id="g102">
<path id="path104" d="M106.361 9.68086C106.834 9.34672 107.476 9.18407 107.621 8.44086C107.159 8.8591 106.737 9.25181 106.311 9.6226C106.314 9.64388 106.338 9.66253 106.361 9.68086ZM106.817 9.92499C106.775 9.93023 106.757 9.95379 106.717 9.97965C105.071 11.0318 103.554 12.26 102.279 13.7366C101.832 14.2812 101.453 14.8604 101.171 15.5349C101.038 15.8498 100.973 16.1993 100.995 16.5596L101.003 16.6228C101.038 16.9173 101.183 17.0495 101.477 17.0142L101.54 17.0066C101.603 16.9988 101.667 16.9916 101.727 16.9628C102.014 16.8643 102.272 16.7049 102.507 16.5275C103.13 16.0258 103.633 15.4102 104.088 14.7577C105.108 13.2902 105.969 11.756 106.784 10.1852C106.817 10.0962 106.875 10.0461 106.865 9.96198L106.86 9.91976L106.817 9.92499ZM110.926 7.51045C111.358 7.373 111.768 7.23849 112.231 7.18286C112.337 7.17042 112.463 7.15504 112.555 7.20806C112.602 7.24504 112.647 7.26108 112.651 7.30297L112.657 7.34518C112.664 7.40834 112.604 7.43682 112.541 7.44467C112.29 7.49572 112.019 7.54972 111.772 7.62205C111.092 7.83182 110.418 8.08381 109.767 8.35381C109.625 8.4137 109.53 8.51056 109.463 8.66831C108.65 10.4313 107.698 12.1039 106.61 13.7075C105.794 14.9161 104.834 15.9918 103.66 16.8803C103.267 17.1624 102.871 17.4232 102.395 17.5443C102.271 17.5807 102.126 17.6196 102 17.6346C101.768 17.6621 101.532 17.6481 101.306 17.5469C100.86 17.3869 100.583 17.0361 100.525 16.5521C100.514 16.4676 100.504 16.3835 100.513 16.2759C100.528 15.8684 100.672 15.4669 100.863 15.1023C101.224 14.3758 101.724 13.7392 102.25 13.1426C102.888 12.404 103.577 11.7446 104.337 11.1408C104.377 11.1149 104.395 11.0914 104.414 11.0678C103.905 10.9153 103.706 10.6829 103.648 10.1989L103.638 10.1148C103.579 9.63078 103.676 9.19225 103.815 8.74816C104.072 7.86357 104.489 7.06603 105.018 6.31921C105.113 6.22234 105.187 6.12842 105.285 6.0525C105.343 6.00308 105.404 5.97428 105.467 5.96675C105.551 5.95661 105.624 6.03286 105.663 6.17784C105.694 6.25965 105.707 6.3647 105.717 6.44881L105.724 6.51197C105.752 6.74367 105.88 6.9204 106.066 7.04737C106.187 7.16126 106.26 7.23784 106.27 7.32195C106.28 7.40605 106.251 7.51667 106.182 7.65281C105.993 8.03833 105.757 8.38686 105.521 8.73572C105.249 9.13105 105 9.54537 104.73 9.9623C104.695 10.0304 104.619 10.1037 104.634 10.23C104.802 10.2097 104.918 10.1106 105.037 10.032C105.63 9.6406 106.174 9.19094 106.689 8.68074C107.36 8.04487 107.987 7.39362 108.585 6.68117C108.772 6.46648 108.936 6.23347 109.1 6.00013C109.19 5.86105 109.262 5.74585 109.378 5.64636C109.436 5.59662 109.476 5.57044 109.539 5.56291C109.56 5.56029 109.602 5.55538 109.626 5.57404C109.67 5.59007 109.697 5.62967 109.702 5.67189C109.706 5.71411 109.691 5.75829 109.675 5.80279C109.643 5.89246 109.653 5.97624 109.66 6.0394C109.678 6.187 109.738 6.32936 109.856 6.42165C109.978 6.55648 110.036 6.67757 110.053 6.82516C110.066 6.93021 110.058 7.03788 110.028 7.1485C109.962 7.30558 109.916 7.46103 109.871 7.6155C109.855 7.66001 109.839 7.70484 109.846 7.76801C109.849 7.78895 109.854 7.83117 109.88 7.87044C110.209 7.76702 110.578 7.63743 110.926 7.51045Z" fill="#DC1C4E"/>
</g>
<g id="g106">
<path id="path108" d="M113.591 8.89862C113.14 9.23014 112.713 9.58031 112.256 9.86994C112.117 9.9511 111.98 10.0529 111.837 10.1124C111.758 10.1648 111.653 10.1772 111.569 10.1877C111.211 10.2306 110.862 9.99462 110.772 9.59962L110.749 9.41046C110.722 9.17908 110.715 8.94509 110.771 8.70324C110.912 7.91781 111.278 7.23318 111.713 6.58356C112.237 5.79421 112.861 5.12201 113.626 4.56042C113.958 4.3068 114.338 4.09048 114.756 4.01881L114.925 3.99851C115.472 3.93306 115.91 4.20044 116.083 4.75613C116.151 4.96165 116.218 5.16717 116.407 5.31509C116.501 5.38938 116.553 5.46825 116.563 5.55269C116.576 5.65774 116.544 5.74741 116.472 5.86228C116.419 5.95424 116.361 6.00398 116.277 6.01413C116.214 6.02165 116.146 5.98696 116.094 5.90777C115.963 5.7101 115.831 5.68326 115.663 5.70323C115.579 5.71337 115.495 5.72352 115.413 5.75493C114.921 5.92053 114.48 6.16565 114.069 6.47098C113.227 7.1062 112.529 7.87331 111.999 8.79095C111.911 8.95065 111.779 9.09465 111.781 9.28675C111.825 9.30279 111.846 9.30017 111.889 9.29526C111.973 9.28512 112.028 9.21443 112.11 9.18301C113.367 8.45583 114.5 7.57255 115.452 6.43335C115.491 6.40717 115.528 6.36004 115.565 6.31292C115.603 6.26579 115.658 6.19478 115.742 6.18496C115.763 6.18234 115.787 6.20099 115.808 6.19837C115.853 6.21408 115.855 6.23536 115.86 6.27757C115.865 6.31979 115.87 6.36168 115.854 6.40619L115.862 6.46935C115.88 6.61694 115.981 6.75407 116.081 6.87025C116.201 6.98381 116.254 7.063 116.261 7.12616C116.271 7.21027 116.239 7.29961 116.149 7.4387C116.022 7.62459 115.892 7.78953 115.765 7.97574C115.172 8.73008 114.737 9.55085 114.441 10.462C114.425 10.5065 114.43 10.5487 114.391 10.5745C114.359 10.6639 114.3 10.7136 114.237 10.7211C114.174 10.7287 114.106 10.694 114.035 10.6387C113.962 10.5618 113.928 10.4597 113.916 10.354C113.893 10.1648 113.912 9.97008 113.976 9.79172C114.089 9.30868 114.273 8.88062 114.453 8.43194C114.467 8.36649 114.504 8.31936 114.491 8.21399C114.157 8.44602 113.885 8.67117 113.591 8.89862Z" fill="#DC1C4E"/>
</g>
<g id="g110">
<path id="path112" d="M119.209 8.22381C118.757 8.55532 118.33 8.9055 117.874 9.19545C117.734 9.27628 117.597 9.37806 117.454 9.43762C117.375 9.48999 117.27 9.50275 117.186 9.51257C116.828 9.55577 116.479 9.31981 116.39 8.92513L116.367 8.73597C116.339 8.50427 116.332 8.27028 116.388 8.02843C116.529 7.243 116.895 6.55837 117.329 5.90875C117.854 5.11939 118.478 4.4472 119.243 3.88561C119.576 3.63198 119.955 3.41566 120.374 3.34432L120.542 3.32403C121.089 3.25825 121.527 3.52562 121.7 4.08132C121.768 4.28684 121.835 4.49236 122.024 4.64028C122.118 4.71457 122.17 4.79344 122.181 4.87787C122.193 4.98292 122.161 5.07259 122.09 5.18779C122.037 5.27942 121.979 5.32917 121.894 5.33931C121.831 5.34684 121.763 5.31215 121.711 5.23295C121.58 5.03529 121.449 5.00845 121.281 5.02841C121.196 5.03856 121.112 5.0487 121.031 5.08012C120.538 5.24572 120.097 5.49084 119.686 5.7965C118.844 6.43139 118.146 7.19849 117.616 8.11614C117.528 8.27584 117.396 8.41984 117.398 8.61194C117.443 8.62798 117.463 8.62536 117.506 8.62045C117.59 8.6103 117.645 8.53962 117.727 8.5082C118.985 7.78102 120.117 6.89774 121.069 5.75854C121.109 5.73236 121.146 5.68523 121.183 5.6381C121.22 5.59098 121.275 5.51996 121.36 5.51014C121.38 5.50753 121.404 5.52618 121.426 5.52356C121.47 5.53927 121.473 5.56054 121.478 5.60276C121.482 5.64498 121.488 5.68687 121.472 5.73137L121.479 5.79454C121.497 5.94213 121.599 6.07925 121.698 6.19543C121.819 6.30899 121.871 6.38819 121.878 6.45135C121.889 6.53546 121.857 6.6248 121.766 6.76389C121.64 6.94977 121.509 7.11471 121.383 7.30093C120.79 8.05527 120.355 8.87604 120.058 9.78714C120.043 9.83165 120.047 9.87387 120.008 9.90005C119.976 9.98906 119.917 10.0388 119.855 10.0463C119.791 10.0539 119.723 10.0195 119.652 9.96386C119.579 9.88728 119.546 9.78485 119.533 9.67914C119.51 9.48999 119.53 9.29559 119.593 9.11691C119.706 8.63387 119.89 8.20581 120.071 7.75713C120.084 7.69168 120.121 7.64455 120.109 7.53917C119.773 7.77153 119.502 7.99636 119.209 8.22381Z" fill="#DC1C4E"/>
</g>
<g id="g114">
<path id="path116" d="M126.139 4.232C126.389 4.00979 126.661 3.78463 126.91 3.54115C127.028 3.46294 127.147 3.38505 127.268 3.32778L127.331 3.32025C127.437 3.30749 127.526 3.33956 127.565 3.48421C127.64 3.75289 127.815 3.96692 127.848 4.24018C127.855 4.30335 127.86 4.34556 127.847 4.41134L127.854 4.4745C127.872 4.62177 128.03 4.68821 128.163 4.73599C128.499 4.86689 128.862 4.86558 129.206 4.88849L130.042 4.91631C130.129 4.92678 130.192 4.91925 130.263 4.97489C130.331 5.00991 130.378 5.04689 130.386 5.10972L130.391 5.15194C130.401 5.23637 130.34 5.26452 130.261 5.31688C130.182 5.36891 130.077 5.38168 129.972 5.39444C129.38 5.44386 128.806 5.47037 128.207 5.45695C127.778 5.44418 127.391 5.06358 127.268 4.56614C127.26 4.50298 127.271 4.41625 127.263 4.35309C127.253 4.26898 127.222 4.18717 127.172 4.12924C126.962 4.15411 126.79 4.32462 126.634 4.44996C126.091 4.89962 125.638 5.40229 125.165 5.90726C124.372 6.77123 123.629 7.69313 122.954 8.64972C122.935 8.67329 122.916 8.69685 122.901 8.74136C122.805 8.83823 122.734 8.95342 122.608 8.96848C122.566 8.97371 122.524 8.97895 122.479 8.96259C122.3 8.89877 122.154 8.74561 122.129 8.53518L122.121 8.47169C122.12 8.27992 122.16 8.0829 122.224 7.90455C122.355 7.39762 122.531 6.90705 122.731 6.43448C123.119 5.57673 123.533 4.75824 123.992 3.95579C124.116 3.74896 124.243 3.56275 124.392 3.37392C124.466 3.28 124.542 3.20669 124.666 3.17036C124.706 3.14418 124.726 3.14156 124.768 3.13666C124.853 3.12651 124.923 3.18214 124.957 3.2849C124.983 3.3245 124.988 3.36672 124.994 3.40861C124.998 3.45083 125.001 3.47177 124.985 3.51628C124.972 3.58239 124.977 3.62428 124.982 3.66649C125.007 3.87692 125.13 4.01143 125.274 4.14364C125.418 4.27586 125.494 4.37338 125.504 4.45781C125.516 4.56287 125.466 4.67577 125.378 4.83548C125.344 4.90387 125.267 4.97718 125.245 5.15063C125.589 4.81028 125.853 4.52229 126.139 4.232Z" fill="#DC1C4E"/>
</g>
</g>
</g>
</g>
</g>
</g>
<defs>
<linearGradient id="paint0_linear_865_11674" x1="0" y1="8.62227" x2="5.45225" y2="8.62227" gradientUnits="userSpaceOnUse">
<stop stop-color="#0078BA"/>
<stop offset="1" stop-color="#DC1C4E"/>
</linearGradient>
</defs>
</svg>
