<?xml version="1.0" encoding="UTF-8"?>
<svg version="1.1" xmlns="http://www.w3.org/2000/svg" width="115" height="122">
<path d="M0 0 C37.95 0 75.9 0 115 0 C115 40.26 115 80.52 115 122 C77.05 122 39.1 122 0 122 C0 81.74 0 41.48 0 0 Z " fill="#EFEFEF" transform="translate(0,0)"/>
<path d="M0 0 C2.2734375 1.8359375 2.2734375 1.8359375 4.375 4.375 C5.13425781 5.28507812 5.89351562 6.19515625 6.67578125 7.1328125 C7.44277344 8.07898437 8.20976563 9.02515625 9 10 C10.16595703 11.32644531 10.16595703 11.32644531 11.35546875 12.6796875 C12.08378906 13.52789062 12.81210937 14.37609375 13.5625 15.25 C14.22378906 16.01828125 14.88507812 16.7865625 15.56640625 17.578125 C17.41676456 20.70407092 17.59847001 22.4232066 17 26 C14.99609375 28.37890625 14.99609375 28.37890625 12.4375 30.5625 C9.86056887 32.6381404 9.86056887 32.6381404 8 35 C8.24192468 44.16467626 17.97912648 52.93533831 24 59 C26.76874967 61.45271992 26.76874967 61.45271992 30.25 62.0625 C33.02436052 60.99058798 34.63784537 59.78598429 36.9375 57.9375 C39.42732024 56.02475959 40.94701523 55.01545389 44 54.125 C48.93482132 55.56432289 51.67505766 59.22020043 55 63 C55.65871094 63.73992187 56.31742187 64.47984375 56.99609375 65.2421875 C58.19128983 66.59889657 59.37845526 67.96275474 60.5546875 69.3359375 C61.65402798 70.60166464 62.8145434 71.8145434 64 73 C64.7992982 76.4431307 65.07567191 77.73514655 64 81 C59.02917262 86.77480467 51.90219269 93.7563759 44.3515625 95.671875 C30.51632502 96.06830014 18.38810506 87.35490686 8 79 C7.319375 78.48308594 6.63875 77.96617188 5.9375 77.43359375 C-9.3054378 65.17163371 -21.49396769 44.85960447 -24.546875 25.5390625 C-24.69388475 20.1732068 -23.79935529 16.66356804 -21 12 C-18.44140625 9.55078125 -18.44140625 9.55078125 -15.5625 7.3125 C-14.61503906 6.56613281 -13.66757812 5.81976562 -12.69140625 5.05078125 C-11.80324219 4.37402344 -10.91507813 3.69726562 -10 3 C-9.02353516 2.12408203 -9.02353516 2.12408203 -8.02734375 1.23046875 C-5.1392906 -0.52239588 -3.31700318 -0.50569299 0 0 Z " fill="#3B3B3B" transform="translate(33,16)"/>
<path d="M0 0 C5.04395895 3.51548654 8.37975847 8.11736877 12 13 C11.06409496 14.1055189 10.12620142 15.20935453 9.1875 16.3125 C8.66542969 16.92738281 8.14335938 17.54226562 7.60546875 18.17578125 C6 20 6 20 4.30859375 21.48046875 C2.84940373 22.91077411 2.84940373 22.91077411 2.6796875 24.875 C3.77631213 36.80627594 13.6343154 47.84453742 22 56 C25.87873175 59.03696443 29.52911797 61.61110124 34.45703125 62.38671875 C37.95149291 61.85530292 39.64405691 60.27707144 42.3125 58 C43.19550781 57.2575 44.07851562 56.515 44.98828125 55.75 C45.65214844 55.1725 46.31601563 54.595 47 54 C51.25209792 58.12324647 55.13635705 62.51282966 59 67 C56.82848806 71.93227837 53.50187399 75.10035547 49 78 C44.3530562 79.69722362 40.86481455 78.37158515 36.4453125 76.47265625 C14.64203186 65.76241878 -1.40252555 47.73195661 -10.10546875 25.12890625 C-11.64099169 20.39257492 -12.76800353 15.99202293 -12 11 C-8.76864177 6.10400268 -4.84988538 3.23325692 0 0 Z " fill="#ECECEC" transform="translate(29,25)"/>
</svg>
