<svg width="40" height="40" viewBox="0 0 40 40" fill="none" xmlns="http://www.w3.org/2000/svg">
<path d="M19.1537 20.5271L23.6593 17.6924L20.8226 22.2013C20.7484 22.2996 20.6601 22.3866 20.5606 22.4593C20.3036 22.6361 19.9875 22.7055 19.6799 22.6525C19.3697 22.599 19.0932 22.4254 18.9102 22.1692C18.7272 21.9131 18.6527 21.5951 18.7027 21.2843C18.7511 20.9833 18.9127 20.7126 19.1537 20.5271Z" fill="#222222" stroke="#222222" stroke-width="2"/>
<path d="M20.0102 5.01562C10.9904 5.01562 3.67677 12.3219 3.67677 21.3418C3.67124 25.3324 5.13222 29.186 7.782 32.1699C7.86221 32.2574 7.93513 32.3449 8.01534 32.4251C8.18789 32.6119 8.39735 32.7609 8.63046 32.8625C8.86357 32.9642 9.11525 33.0163 9.36955 33.0156C9.62385 33.0149 9.87525 32.9614 10.1078 32.8586C10.3404 32.7557 10.549 32.6056 10.7206 32.4178C11.9029 31.1329 13.339 30.1073 14.9379 29.4057C16.5369 28.7041 18.2641 28.3419 20.0102 28.3419C21.7563 28.3419 23.4835 28.7041 25.0824 29.4057C26.6814 30.1073 28.1175 31.1329 29.2998 32.4178C29.4714 32.6056 29.68 32.7557 29.9126 32.8586C30.1451 32.9614 30.3965 33.0149 30.6508 33.0156C30.9051 33.0163 31.1568 32.9642 31.3899 32.8625C31.623 32.7609 31.8325 32.6119 32.005 32.4251L32.2384 32.1699C34.8882 29.186 36.3491 25.3324 36.3436 21.3418C36.3436 12.3219 29.03 5.01562 20.0102 5.01562Z" stroke="#222222" stroke-width="2" stroke-linecap="round" stroke-linejoin="round"/>
<path d="M20.0202 9.68262V12.016M31.687 21.3493H29.3536M10.6869 21.3493H8.35352M13.4205 14.7496L11.7704 13.0995M26.62 14.7496L28.2701 13.0995" stroke="#222222" stroke-width="2" stroke-miterlimit="10" stroke-linecap="round"/>
</svg>
