<svg width="20" height="20" viewBox="0 0 20 20" fill="none" xmlns="http://www.w3.org/2000/svg">
<g clip-path="url(#clip0_2373_11074)">
<path d="M19.9999 9.99999C19.9999 4.47717 15.5228 3.05176e-05 9.99996 3.05176e-05C4.47714 3.05176e-05 0 4.47717 0 9.99999C0 15.5228 4.47714 20 9.99996 20C15.5228 20 19.9999 15.5228 19.9999 9.99999Z" fill="black"/>
<mask id="mask0_2373_11074" style="mask-type:luminance" maskUnits="userSpaceOnUse" x="6" y="6" width="8" height="9">
<path d="M14 5.99991H6V14.3477H14V5.99991Z" fill="white"/>
</mask>
<g mask="url(#mask0_2373_11074)">
<path d="M10.7611 9.53281L13.7393 5.99991H13.0335L10.4476 9.06747L8.38221 5.99991H6L9.12329 10.6386L6 14.3434H6.70578L9.43658 11.1039L11.6178 14.3434H14L10.7611 9.53281ZM9.79442 10.6795L9.47799 10.2176L6.96005 6.54212H8.0441L10.0761 9.50833L10.3925 9.97022L13.0339 13.8259H11.9498L9.79442 10.6795Z" fill="white"/>
</g>
</g>
<defs>
<clipPath id="clip0_2373_11074">
<rect width="19.9999" height="19.9999" fill="white"/>
</clipPath>
</defs>
</svg>
