<svg width="170" height="24" viewBox="0 0 170 24" fill="none" xmlns="http://www.w3.org/2000/svg">
<path d="M32.8927 0H37.2471C37.558 0 37.8077 0.259187 37.8077 0.584318V23.4156C37.8077 23.7363 37.558 24 37.2471 24H32.8927C32.5818 24 32.332 23.7408 32.332 23.4156V0.584318C32.332 0.263902 32.5818 0 32.8927 0Z" fill="black"/>
<path d="M55.1577 0C57.335 0 59.1066 0.0188267 60.7232 0.0565537C65.8032 0.179053 69.7426 3.45885 70.7605 8.41626C71.5664 12.3275 71.1374 15.6593 69.4552 18.5998C67.7774 21.5259 65.1999 23.2507 61.7879 23.722C60.6289 23.8823 59.3707 23.9577 57.7073 23.9766C56.0673 23.9906 56.19 23.9906 54.55 23.9906H53.1597L48.2873 24C48.0043 24 47.7734 23.7597 47.7734 23.4628V0.584318C47.7734 0.263902 48.0232 0 48.3344 0H53.1597H55.1483H55.1577ZM53.1692 19.1792C53.1692 19.4995 53.4189 19.7636 53.7298 19.7636H55.7987C56.8777 19.7636 58.1503 19.7587 59.4084 19.7119C59.4224 19.7119 59.4318 19.7119 59.4462 19.7119C62.1086 19.4622 63.8331 18.854 64.8042 16.6723C65.8926 14.2264 66.0669 11.5735 65.3459 8.56705C65.3459 8.54819 65.3365 8.52936 65.3316 8.51521C64.4129 5.52286 62.1935 4.32593 59.4273 4.09976C58.122 4.04321 56.8355 4.03849 55.8553 4.03849H53.7253C53.4144 4.03849 53.1646 4.29767 53.1646 4.62281V19.1841L53.1692 19.1792Z" fill="black"/>
<path d="M95.0417 23.6231L93.0388 18.6703C92.9494 18.4538 92.7468 18.3123 92.5204 18.3123H82.3605C82.1345 18.3123 81.932 18.4538 81.8471 18.6658L79.8158 23.6371C79.7264 23.854 79.5238 23.9906 79.2979 23.9906L75.3863 23.9811C74.986 23.9811 74.7174 23.5522 74.8729 23.1708L84.2031 0.353429C84.2929 0.136649 84.4955 0 84.717 0H90.1927C90.4186 0 90.6216 0.141364 90.711 0.358144L99.9662 23.1753C100.122 23.5616 99.8481 23.986 99.4479 23.986H95.5646C95.3386 23.986 95.136 23.8397 95.0462 23.6231M84.2503 14.4717H90.631C90.9559 14.4717 91.1773 14.1231 91.0502 13.8118L87.8506 5.9517C87.6951 5.5653 87.1624 5.5653 87.007 5.9517L83.8262 13.8118C83.6991 14.1231 83.9205 14.4717 84.2457 14.4717H84.2503Z" fill="black"/>
<path d="M19.7961 0.358144L12.9396 17.2989C12.7841 17.6856 12.2516 17.6856 12.096 17.2989L5.23957 0.358144C5.15005 0.141364 4.94742 0 4.72592 0H0.560216C0.159668 0 -0.113665 0.424089 0.0465613 0.810527L9.28749 23.642C9.37702 23.8585 9.57965 24 9.80115 24H15.239C15.4654 24 15.668 23.8585 15.7529 23.642L24.9937 0.810527C25.1492 0.428805 24.876 0 24.4754 0H20.3096C20.0836 0 19.881 0.141364 19.7961 0.358144Z" fill="black"/>
<path d="M145.292 15.7276H141.938V12.8638H139.812V20.6382H141.938V17.5238H145.292V20.6382H147.413V12.8638H145.292V15.7276Z" fill="black"/>
<path d="M150.473 15.8401C150.651 14.7906 151.231 14.2424 152.172 14.2424C153.123 14.2424 153.77 14.889 153.801 15.8401H150.473ZM152.184 12.6597C149.844 12.6597 148.275 14.2745 148.275 16.6969C148.275 19.2163 149.826 20.8171 152.251 20.8171C154.188 20.8171 155.516 19.9286 156.014 18.2467H153.719C153.512 18.8609 153.026 19.1692 152.297 19.1692C151.2 19.1692 150.541 18.5195 150.485 17.39H156.014C156.014 17.1172 156.03 17.021 156.03 16.8908C156.03 14.2745 154.545 12.6597 152.184 12.6597Z" fill="black"/>
<path d="M159.644 12.797C158.892 12.9461 156.963 13.5263 156.963 16.4701V20.6375H159.113V17.1956C159.113 15.9208 159.29 15.3225 159.821 14.9365C160.147 14.6762 160.617 14.5321 161.163 14.5321C161.389 14.5321 161.486 14.5495 161.746 14.5962V12.8321C161.746 12.8321 160.888 12.5537 159.644 12.797Z" fill="black"/>
<path d="M165.998 19.1991C164.866 19.1991 164.205 18.2797 164.205 16.745C164.205 15.194 164.852 14.2897 165.998 14.2897C167.128 14.2897 167.775 15.1782 167.775 16.7288C167.775 18.2967 167.128 19.1991 165.998 19.1991ZM165.998 12.6587C163.588 12.6597 162.037 14.2576 162.037 16.745C162.037 19.2153 163.588 20.8161 165.998 20.8161C168.387 20.8161 169.939 19.2153 169.939 16.745C169.939 14.2576 168.387 12.6587 165.998 12.6587Z" fill="black"/>
<path d="M134.065 11.9701L130.783 9.54492V16.4528L134.065 14.1775V11.9701Z" fill="black"/>
<path d="M134.065 21.8475V17.1025L130.783 19.4624L134.065 21.8475Z" fill="black"/>
<path d="M125.051 21.5721L128.334 23.9583V14.0795L125.051 11.6543V21.5721Z" fill="black"/>
<path opacity="0.9" d="M166.597 7.88092C166.427 7.88092 166.241 7.86035 166.042 7.81919V7.11396C166.195 7.13162 166.318 7.14041 166.412 7.14041C166.547 7.14041 166.671 7.11396 166.782 7.06107C166.9 7.00817 167.008 6.9171 167.108 6.78781C167.208 6.65852 167.284 6.48222 167.338 6.25888L165.521 1.80713H166.465L167.778 5.24512H167.796L169.03 1.80713H169.938L168.157 6.40877C168.016 6.77898 167.869 7.0699 167.716 7.28147C167.57 7.49304 167.405 7.64584 167.223 7.73985C167.041 7.83391 166.832 7.88092 166.597 7.88092Z" fill="black"/>
<path opacity="0.9" d="M163.375 6.42638C163.052 6.42638 162.772 6.36466 162.537 6.24126C162.308 6.11785 162.126 5.95329 161.991 5.7476H161.762V2.33606H161.991C162.132 2.14799 162.317 1.99225 162.546 1.86885C162.781 1.73956 163.058 1.67493 163.375 1.67493C163.757 1.67493 164.101 1.77189 164.406 1.9658C164.712 2.15387 164.953 2.43011 165.129 2.79448C165.305 3.15296 165.394 3.57317 165.394 4.05505C165.394 4.53698 165.305 4.95718 165.129 5.31566C164.953 5.67414 164.712 5.95034 164.406 6.1443C164.101 6.33237 163.757 6.42638 163.375 6.42638ZM161.109 0H161.973V6.30298H161.109V0ZM163.234 5.71236C163.504 5.71236 163.733 5.63887 163.921 5.49196C164.115 5.33917 164.256 5.13642 164.344 4.88369C164.438 4.63099 164.486 4.35479 164.486 4.05505C164.486 3.74946 164.438 3.47032 164.344 3.21759C164.256 2.96489 164.115 2.76509 163.921 2.61814C163.733 2.47123 163.504 2.39778 163.234 2.39778C162.975 2.39778 162.752 2.46535 162.564 2.60053C162.376 2.72982 162.232 2.92083 162.132 3.17352C162.032 3.42037 161.982 3.71419 161.982 4.05505C161.982 4.39003 162.032 4.68388 162.132 4.93658C162.232 5.18343 162.376 5.3744 162.564 5.50958C162.752 5.64476 162.975 5.71236 163.234 5.71236Z" fill="black"/>
<path opacity="0.9" d="M156.028 6.42638C155.646 6.42638 155.303 6.33237 154.997 6.1443C154.691 5.95034 154.45 5.67414 154.274 5.31566C154.098 4.95718 154.01 4.53698 154.01 4.05505C154.01 3.57317 154.098 3.15296 154.274 2.79448C154.45 2.43011 154.691 2.15387 154.997 1.9658C155.303 1.77189 155.646 1.67493 156.028 1.67493C156.351 1.67493 156.628 1.73956 156.857 1.86885C157.086 1.99225 157.271 2.15387 157.412 2.35368H157.641V5.77404H157.412C157.271 5.96211 157.083 6.11785 156.848 6.24126C156.619 6.36466 156.346 6.42638 156.028 6.42638ZM156.169 5.71236C156.428 5.71236 156.651 5.64476 156.839 5.50958C157.028 5.3744 157.171 5.18343 157.271 4.93658C157.371 4.68388 157.421 4.39003 157.421 4.05505C157.421 3.71419 157.371 3.42037 157.271 3.17352C157.171 2.92083 157.028 2.72982 156.839 2.60053C156.651 2.46535 156.428 2.39778 156.169 2.39778C155.899 2.39778 155.667 2.47123 155.473 2.61814C155.285 2.76509 155.144 2.96489 155.05 3.21759C154.956 3.47032 154.909 3.74946 154.909 4.05505C154.909 4.35479 154.956 4.63099 155.05 4.88369C155.144 5.13642 155.285 5.33917 155.473 5.49196C155.667 5.63887 155.899 5.71236 156.169 5.71236ZM157.43 0H158.294V6.30298H157.43V0Z" fill="black"/>
<path opacity="0.9" d="M151.368 6.43562C150.904 6.43562 150.504 6.33571 150.169 6.13587C149.834 5.93019 149.578 5.64516 149.402 5.28079C149.232 4.91642 149.146 4.50505 149.146 4.04666C149.146 3.57651 149.235 3.16219 149.411 2.80367C149.593 2.44519 149.852 2.16605 150.187 1.96621C150.522 1.76641 150.916 1.6665 151.368 1.6665C151.815 1.6665 152.197 1.76052 152.514 1.94859C152.837 2.13666 153.081 2.40407 153.246 2.75078C153.416 3.09164 153.501 3.49423 153.501 3.9585C153.501 4.12306 153.499 4.23175 153.493 4.28465H149.578V3.6059H152.602C152.602 3.37082 152.549 3.15925 152.443 2.97118C152.344 2.78311 152.197 2.6362 152.003 2.53042C151.815 2.42463 151.594 2.37174 151.342 2.37174C151.095 2.37174 150.871 2.42757 150.672 2.53921C150.472 2.65088 150.316 2.80956 150.204 3.01525C150.093 3.21509 150.037 3.44722 150.037 3.71165C150.037 3.88799 150.037 4.06428 150.037 4.24058C150.037 4.50505 150.087 4.7519 150.187 4.98109C150.293 5.20439 150.445 5.38658 150.645 5.52764C150.845 5.66282 151.092 5.73038 151.386 5.73038C151.627 5.73038 151.83 5.68632 151.994 5.59815C152.164 5.50998 152.294 5.40714 152.382 5.28962C152.47 5.16621 152.532 5.04277 152.567 4.91936H153.449C153.319 5.37775 153.081 5.74506 152.734 6.0213C152.388 6.29749 151.932 6.43562 151.368 6.43562Z" fill="black"/>
<path opacity="0.9" d="M146.747 2.66257H147.381C147.505 2.35694 147.663 2.12186 147.857 1.95733C148.057 1.78688 148.301 1.70166 148.589 1.70166C148.742 1.70166 148.88 1.71049 149.004 1.72811V2.55678C148.898 2.53912 148.801 2.53033 148.713 2.53033C148.454 2.53033 148.222 2.59202 148.016 2.71546C147.811 2.83886 147.649 3.00928 147.531 3.22674C147.42 3.44419 147.364 3.69395 147.364 3.97603L146.747 2.66257ZM146.5 1.80744H147.364V6.3033H146.5V1.80744Z" fill="black"/>
<path opacity="0.9" d="M143.628 6.43562C143.163 6.43562 142.764 6.33571 142.429 6.13587C142.094 5.93019 141.838 5.64516 141.662 5.28079C141.491 4.91642 141.406 4.50505 141.406 4.04666C141.406 3.57651 141.494 3.16219 141.671 2.80367C141.853 2.44519 142.111 2.16605 142.446 1.96621C142.781 1.76641 143.175 1.6665 143.628 1.6665C144.074 1.6665 144.456 1.76052 144.773 1.94859C145.097 2.13666 145.341 2.40407 145.505 2.75078C145.676 3.09164 145.761 3.49423 145.761 3.9585C145.761 4.12306 145.758 4.23175 145.752 4.28465H141.838V3.6059H144.862C144.862 3.37082 144.809 3.15925 144.703 2.97118C144.603 2.78311 144.456 2.6362 144.262 2.53042C144.074 2.42463 143.854 2.37174 143.601 2.37174C143.354 2.37174 143.131 2.42757 142.931 2.53921C142.731 2.65088 142.575 2.80956 142.464 3.01525C142.352 3.21509 142.297 3.44722 142.297 3.71165C142.297 3.88799 142.297 4.06428 142.297 4.24058C142.297 4.50505 142.346 4.7519 142.446 4.98109C142.552 5.20439 142.705 5.38658 142.905 5.52764C143.104 5.66282 143.351 5.73038 143.645 5.73038C143.886 5.73038 144.089 5.68632 144.254 5.59815C144.424 5.50998 144.553 5.40714 144.641 5.28962C144.73 5.16621 144.791 5.04277 144.827 4.91936H145.708C145.578 5.37775 145.341 5.74506 144.994 6.0213C144.647 6.29749 144.192 6.43562 143.628 6.43562Z" fill="black"/>
<path opacity="0.9" d="M134.662 1.80713H135.597L136.548 5.28922H136.566L137.501 1.80713H138.373L139.308 5.28922H139.326L140.286 1.80713H141.185L139.793 6.30298H138.902L137.933 2.83855H137.915L136.945 6.30298H136.055L134.662 1.80713Z" fill="black"/>
<path opacity="0.9" d="M132.197 6.43562C131.739 6.43562 131.339 6.33571 130.998 6.13587C130.663 5.93607 130.405 5.65693 130.223 5.29845C130.041 4.93408 129.949 4.51972 129.949 4.05545C129.949 3.59118 130.041 3.17687 130.223 2.8125C130.405 2.44813 130.663 2.16605 130.998 1.96621C131.339 1.76641 131.742 1.6665 132.206 1.6665C132.664 1.6665 133.061 1.76641 133.396 1.96621C133.731 2.16605 133.99 2.44813 134.172 2.8125C134.354 3.17098 134.445 3.58236 134.445 4.04666C134.445 4.51682 134.354 4.93408 134.172 5.29845C133.99 5.65693 133.728 5.93607 133.387 6.13587C133.052 6.33571 132.656 6.43562 132.197 6.43562ZM132.206 5.72156C132.5 5.72156 132.747 5.65104 132.947 5.50998C133.152 5.36307 133.302 5.16327 133.396 4.91054C133.496 4.65784 133.546 4.36987 133.546 4.04666C133.546 3.55885 133.431 3.16219 133.202 2.85657C132.973 2.54509 132.641 2.38935 132.206 2.38935C131.906 2.38935 131.654 2.4599 131.448 2.60093C131.248 2.74199 131.098 2.93885 130.998 3.19154C130.898 3.44428 130.849 3.73225 130.849 4.05545C130.849 4.54911 130.963 4.9517 131.192 5.26317C131.422 5.56876 131.759 5.72156 132.206 5.72156Z" fill="black"/>
<path opacity="0.9" d="M125.051 0H127.678C128.307 0 128.806 0.155738 129.176 0.467213C129.552 0.772801 129.741 1.24296 129.741 1.87768C129.741 2.30078 129.652 2.65342 129.476 2.9355C129.306 3.21174 129.065 3.41743 128.753 3.55257C128.448 3.68186 128.089 3.74652 127.678 3.74652H126.02V6.30298H125.051V0ZM127.634 2.90905C127.881 2.90905 128.083 2.87378 128.242 2.80327C128.407 2.72687 128.53 2.6123 128.612 2.45946C128.694 2.30667 128.736 2.11275 128.736 1.87768C128.736 1.52504 128.645 1.26352 128.462 1.0931C128.28 0.922652 128.004 0.837465 127.634 0.837465H126.02V2.90905H127.634Z" fill="black"/>
</svg>
