<svg width="24" height="24" viewBox="0 0 24 24" fill="none" xmlns="http://www.w3.org/2000/svg">
<path d="M24 12C24 18.6274 18.6274 24 12 24C5.37258 24 0 18.6274 0 12C0 5.37258 5.37258 0 12 0C18.6274 0 24 5.37258 24 12Z" fill="#0073BB"/>
<path fill-rule="evenodd" clip-rule="evenodd" d="M17.2702 10.0972C17.5686 10.3845 17.5776 10.8593 17.2902 11.1577L13.1695 15.4369C12.4988 16.1334 11.3903 16.1539 10.6942 15.4827L6.2294 11.1773C5.93123 10.8898 5.9226 10.415 6.21012 10.1169C6.49764 9.81868 6.97243 9.81005 7.2706 10.0976L11.7354 14.403C11.8349 14.4988 11.9932 14.4959 12.0891 14.3964L16.2098 10.1172C16.4971 9.81885 16.9719 9.8099 17.2702 10.0972Z" fill="white"/>
</svg>
