<svg width="24" height="24" viewBox="0 0 24 24" fill="none" xmlns="http://www.w3.org/2000/svg">
<path d="M21.5984 11.9251H20.3936V9.58465C20.3936 8.91004 20.0401 8.3143 19.5039 7.96328L13.4906 2.11441C13.3337 1.96191 13.0794 1.96191 12.9226 2.11441L11.6993 3.30426L10.476 2.11441C10.4007 2.04117 10.2985 2 10.192 2C10.0855 2 9.98333 2.04117 9.90803 2.11441L4.23578 7.63152H4.00803C2.9008 7.63152 2 8.5077 2 9.58465V13.0579C2 13.2736 2.1798 13.4486 2.40161 13.4486C2.62341 13.4486 2.80321 13.2736 2.80321 13.0579V9.58465C2.80321 8.93848 3.34369 8.41277 4.00803 8.41277H18.3855C19.0499 8.41277 19.5904 8.93848 19.5904 9.58465V11.9251H13.4859C11.8472 11.9251 10.5141 13.2218 10.5141 14.8157C10.5141 16.4096 11.8472 17.7064 13.4859 17.7064H19.5904V20.0469C19.5904 20.693 19.0499 21.2188 18.3855 21.2188H4.00803C3.34369 21.2188 2.80321 20.693 2.80321 20.0469V16.5736C2.80321 16.3578 2.62341 16.1829 2.40161 16.1829C2.1798 16.1829 2 16.3578 2 16.5736V20.0469C2 21.1238 2.9008 22 4.00803 22H18.3855C19.4928 22 20.3936 21.1238 20.3936 20.0469V17.7064H21.5984C21.8202 17.7064 22 17.5314 22 17.3157V12.3157C22 12.1 21.8202 11.9251 21.5984 11.9251ZM5.37173 7.63152L10.192 2.94309L11.1313 3.85672L7.25032 7.63156H5.37173V7.63152ZM8.3863 7.63152L13.2065 2.94309L18.0268 7.63152H8.3863ZM21.1968 16.9251H13.4859C12.2901 16.9251 11.3173 15.9788 11.3173 14.8157C11.3173 13.6527 12.2901 12.7064 13.4859 12.7064H21.1968V16.9251Z" fill="#303030" stroke="#303030" stroke-width="0.1"/>
<path d="M13.4861 13.6406C12.8217 13.6406 12.2812 14.1663 12.2812 14.8125C12.2812 15.4587 12.8217 15.9844 13.4861 15.9844C14.1504 15.9844 14.6909 15.4587 14.6909 14.8125C14.6909 14.1663 14.1504 13.6406 13.4861 13.6406ZM13.4861 15.2031C13.2646 15.2031 13.0845 15.0279 13.0845 14.8125C13.0845 14.5971 13.2646 14.4219 13.4861 14.4219C13.7075 14.4219 13.8877 14.5971 13.8877 14.8125C13.8877 15.0279 13.7075 15.2031 13.4861 15.2031Z" fill="#303030" stroke="#303030" stroke-width="0.1"/>
<path d="M2.40161 15.2031C2.50723 15.2031 2.61084 15.1617 2.68554 15.0886C2.76024 15.016 2.80321 14.9152 2.80321 14.8125C2.80321 14.7098 2.76024 14.609 2.68554 14.5363C2.61084 14.4637 2.50723 14.4219 2.40161 14.4219C2.29598 14.4219 2.19237 14.4636 2.11767 14.5363C2.04297 14.609 2 14.7098 2 14.8125C2 14.9152 2.04297 15.016 2.11767 15.0886C2.19237 15.1617 2.29598 15.2031 2.40161 15.2031Z" fill="#303030" stroke="#303030" stroke-width="0.1"/>
</svg>
