<svg width="24" height="24" viewBox="0 0 24 24" fill="none" xmlns="http://www.w3.org/2000/svg">
<mask id="mask0_2471_3875" style="mask-type:alpha" maskUnits="userSpaceOnUse" x="5" y="0" width="18" height="19">
<path fill-rule="evenodd" clip-rule="evenodd" d="M5.61414 0.387136H22.72V18.2332H5.61414V0.387136Z" fill="white"/>
</mask>
<g mask="url(#mask0_2471_3875)">
<path fill-rule="evenodd" clip-rule="evenodd" d="M22.3313 2.71968H21.1646C19.9529 2.71968 18.7491 2.52381 17.5994 2.14058C16.4505 1.75581 15.3713 1.18988 14.4005 0.464454C14.2619 0.360713 14.0722 0.360713 13.9337 0.464454C11.9795 1.92303 9.6074 2.71426 7.16949 2.71968H6.00278C5.78833 2.71968 5.61414 2.89388 5.61414 3.10832V6.14084C5.61414 6.83917 5.67066 7.53671 5.78524 8.22574L6.55169 8.09878C6.44484 7.45155 6.3922 6.79658 6.39143 6.14084V3.49697H7.16949C9.67709 3.49155 12.1212 2.70884 14.1674 1.25723C15.1437 1.95091 16.2175 2.49749 17.3525 2.87839C18.5819 3.28794 19.8686 3.49697 21.1646 3.49697H21.9426V6.14084C21.928 10.7844 19.2593 15.0108 15.0732 17.0213L14.0002 17.5308L14.3339 18.233L15.4077 17.7236C19.8632 15.5836 22.7045 11.0841 22.72 6.14084V3.10832C22.72 2.89388 22.5457 2.71968 22.3313 2.71968Z" fill="#4197D3"/>
</g>
<path fill-rule="evenodd" clip-rule="evenodd" d="M14.7396 16.3203C18.6563 14.4398 21.1515 10.4852 21.1654 6.14115V4.65625C21.1662 4.44567 20.999 4.27303 20.7884 4.26761C18.5169 4.19793 16.3035 3.52903 14.3735 2.32747C14.248 2.24929 14.0886 2.24929 13.9631 2.32747C12.0338 3.52903 9.82041 4.19793 7.54814 4.26761C7.33833 4.27303 7.17188 4.44567 7.17188 4.65625V6.14115C7.17188 6.84412 7.23846 7.54554 7.37007 8.23612L8.1342 8.08903C8.01033 7.44721 7.9484 6.79458 7.94762 6.14115V5.02786C10.1448 4.90012 12.2784 4.24283 14.1683 3.11251C16.0566 4.24283 18.191 4.90012 20.3881 5.02786V6.14115C20.375 10.1855 18.0516 13.8661 14.406 15.6173L14.0018 15.8078L14.334 16.5115L14.7396 16.3203Z" fill="#4197D3"/>
<path fill-rule="evenodd" clip-rule="evenodd" d="M13.4912 10.5892C13.3673 10.5892 13.2527 10.5482 13.1707 10.4723L11.798 9.21429C11.7144 9.1368 11.6687 9.03694 11.6687 8.934C11.6687 8.83029 11.7144 8.73034 11.7988 8.65371C11.8832 8.57554 11.9939 8.53296 12.1108 8.53296C12.2261 8.53296 12.3368 8.57554 12.422 8.65371L13.4741 9.61757L15.8788 7.41193C15.9632 7.33374 16.0785 7.29116 16.2016 7.29116C16.3262 7.29116 16.4462 7.33451 16.5399 7.41348C16.6228 7.48935 16.6685 7.58922 16.6685 7.69142C16.6685 7.79516 16.622 7.89425 16.5392 7.97167L13.8117 10.4723C13.711 10.5489 13.5973 10.5892 13.4912 10.5892Z" fill="#4197D3"/>
<path fill-rule="evenodd" clip-rule="evenodd" d="M8.57333 15.9768C8.73431 15.9768 8.86673 16.1062 8.86673 16.2672C8.86673 16.4267 8.73431 16.5568 8.57333 16.5568H7.80529L7.81846 16.5738C7.93613 16.734 8.01975 16.9183 8.06232 17.115H8.57333C8.72273 17.115 8.84736 17.2272 8.86442 17.3712L8.86673 17.4045C8.86673 17.5648 8.73431 17.6948 8.57333 17.6948L8.0631 17.694L8.05226 17.742C7.90284 18.3568 7.35549 18.8143 6.70284 18.8437L6.63471 18.8453H6.59678L8.00349 20.156C8.10878 20.259 8.12271 20.4216 8.036 20.5385L8.012 20.5671C7.90129 20.6825 7.71703 20.6879 7.59858 20.5787L5.65458 18.7663C5.60039 18.7121 5.56632 18.637 5.56632 18.5619C5.564 18.4001 5.69484 18.2685 5.85975 18.2654H6.63549C7.00246 18.2646 7.32065 18.0393 7.44761 17.7165L7.45535 17.694L5.85897 17.6948C5.70878 17.6948 5.58413 17.5825 5.5671 17.4385L5.56555 17.4045C5.56555 17.245 5.69717 17.115 5.85897 17.115H7.45381L7.44761 17.0987C7.32761 16.7976 7.03343 16.5792 6.69046 16.5583L6.63626 16.5568H5.85897C5.69717 16.5568 5.56555 16.4267 5.56555 16.2672C5.56555 16.1062 5.69717 15.9768 5.85897 15.9768H8.57333Z" fill="#EB9AA7"/>
<mask id="mask1_2471_3875" style="mask-type:alpha" maskUnits="userSpaceOnUse" x="0" y="8" width="14" height="16">
<path fill-rule="evenodd" clip-rule="evenodd" d="M0.774292 8.78529H13.6576V23.613H0.774292V8.78529Z" fill="white"/>
</mask>
<g mask="url(#mask1_2471_3875)">
<path fill-rule="evenodd" clip-rule="evenodd" d="M5.97997 12.4682L8.445 12.4348L9.86796 9.8142C9.6589 9.6834 9.49562 9.6648 9.37485 9.6648C9.09687 9.6648 8.80347 9.78711 8.493 9.91637C8.17403 10.0488 7.81249 10.199 7.42849 10.199C7.27209 10.199 7.11881 10.1727 6.97403 10.1216C6.32991 9.88466 5.84371 9.73834 5.41403 9.73834C5.04242 9.73834 4.72965 9.85526 4.40758 10.1154L5.97997 12.4682ZM5.85455 13.3197C5.50074 13.569 4.63597 14.2287 3.79674 15.2328C2.38384 16.9221 1.66771 18.7608 1.66771 20.6962C1.66771 21.8157 2.58823 22.7262 3.71932 22.7262H10.7118C11.2654 22.7262 11.7841 22.5117 12.1727 22.1208C12.5529 21.7383 12.7612 21.232 12.7581 20.6962C12.7581 18.7569 12.0419 16.919 10.629 15.2328C9.71933 14.1435 8.80965 13.4831 8.55184 13.3066L5.85455 13.3197ZM3.71932 23.6134C2.09506 23.6134 0.774292 22.305 0.774292 20.6962C0.774292 19.5071 1.02358 18.3342 1.51287 17.2108C1.90539 16.3182 2.44887 15.4557 3.12784 14.6482C3.90823 13.7216 4.6801 13.0875 5.10591 12.7708L3.45223 10.2965C3.33687 10.1223 3.35932 9.88929 3.50487 9.7422C4.09791 9.13911 4.7041 8.85806 5.41403 8.85806C5.96914 8.85806 6.54126 9.02451 7.28294 9.29314C7.32862 9.31097 7.37429 9.31946 7.43158 9.31946C7.62049 9.31946 7.86203 9.22114 8.11829 9.11666C8.49146 8.961 8.91182 8.78529 9.3787 8.78529C9.87962 8.78529 10.3286 8.98423 10.7506 9.39223C10.8938 9.52543 10.927 9.7422 10.8318 9.91791L9.2935 12.7453C9.72242 13.0619 10.5082 13.7007 11.3033 14.6482C11.98 15.4488 12.5235 16.3113 12.9175 17.2108C13.4092 18.3357 13.6576 19.5079 13.6576 20.6962C13.6576 22.305 12.3361 23.6134 10.7118 23.6134H3.71932Z" fill="#4197D3"/>
</g>
<path fill-rule="evenodd" clip-rule="evenodd" d="M7.63631 1.93887C7.43657 1.93887 7.27399 1.77628 7.27399 1.57576C7.27399 1.37602 7.43657 1.21344 7.63631 1.21344C8.46625 1.21344 9.1313 1.05087 9.61053 0.730346C9.77699 0.619637 10.003 0.66454 10.1138 0.830992C10.2244 0.997441 10.1787 1.22273 10.013 1.33422C9.4115 1.73525 8.61179 1.93887 7.63631 1.93887Z" fill="#EB9AA7"/>
</svg>
