<svg width="19" height="19" viewBox="0 0 19 19" fill="none" xmlns="http://www.w3.org/2000/svg">
<path d="M15.7605 16.0852C15.7121 16.1734 15.6409 16.247 15.5543 16.2983C15.4677 16.3496 15.369 16.3768 15.2683 16.377H11.8933C11.7987 16.3769 11.7055 16.353 11.6226 16.3074C11.5396 16.2618 11.4695 16.196 11.4187 16.1161L8.57178 11.6421L4.43459 16.1927C4.33374 16.3011 4.19424 16.3653 4.04636 16.3715C3.89847 16.3777 3.75411 16.3253 3.64457 16.2257C3.53503 16.1262 3.46914 15.9875 3.46119 15.8397C3.45324 15.6919 3.50386 15.5469 3.60209 15.4362L7.94529 10.6549L3.54373 3.7418C3.48952 3.65675 3.45917 3.55869 3.45587 3.45789C3.45256 3.35709 3.47642 3.25725 3.52494 3.16884C3.57346 3.08042 3.64486 3.00667 3.73167 2.95532C3.81847 2.90397 3.91748 2.8769 4.01834 2.87695H7.39334C7.48801 2.87698 7.58114 2.90091 7.66411 2.9465C7.74707 2.9921 7.81718 3.05791 7.86795 3.13781L10.7149 7.6118L14.8521 3.06117C14.9529 2.95283 15.0924 2.88861 15.2403 2.88243C15.3882 2.87626 15.5326 2.92862 15.6421 3.02816C15.7517 3.12771 15.8175 3.26642 15.8255 3.41423C15.8334 3.56203 15.7828 3.70701 15.6846 3.81773L11.3414 8.59547L15.7429 15.5128C15.7969 15.5979 15.8269 15.6959 15.83 15.7966C15.8331 15.8973 15.8091 15.9969 15.7605 16.0852Z" fill="#979A98"/>
</svg>
