<svg xmlns="http://www.w3.org/2000/svg" width="20" height="15" viewBox="0 0 20 15" fill="#000">
<path fill-rule="evenodd" clip-rule="evenodd" d="M3.97969 0.234767C5.91195 0.078256 8.19398 0 9.93429 0C11.6746 0 13.914 0.078256 15.8846 0.234767C18.1667 0.430406 19.3226 0.826032 19.634 3.15196C19.7876 4.21711 19.8643 5.67354 19.8643 7.16909C19.8643 8.66464 19.7876 10.1645 19.634 11.1862C19.3226 13.5513 18.1624 13.9034 15.8846 14.1034C13.914 14.299 11.6703 14.3382 9.93429 14.3382C8.19398 14.3382 5.91195 14.299 3.97969 14.1034C1.69766 13.9078 0.49906 13.5513 0.191945 11.1862C0.0767773 10.1602 0 8.66464 0 7.16909C0 5.67354 0.0767773 4.21276 0.191945 3.15196C0.49906 0.826032 1.69766 0.434754 3.97969 0.234767Z" fill="#363636"/>
<path fill-rule="evenodd" clip-rule="evenodd" d="M7.92188 4.13525L13.1002 7.16984L7.92188 10.2435V4.13525Z" fill="white"/>
</svg>