<?xml version="1.0" encoding="UTF-8"?>
<svg version="1.1" xmlns="http://www.w3.org/2000/svg" width="37" height="37">
<path d="M0 0 C3.95478251 2.91900614 7.41112181 6.50974362 9.625 10.9375 C10.12634255 17.37782357 10.60448918 23.54593401 6.625 28.9375 C1.81863517 33.64373223 -1.27265014 36.08522612 -8.125 36.1875 C-13.9673663 36.11081023 -17.79838545 35.56893614 -22.02734375 31.25 C-27.14416053 25.47100694 -27.72943826 21.91860446 -27.65234375 14.140625 C-27.16148725 8.4715781 -24.33715486 5.68122543 -20.25 2.125 C-14.31208906 -2.39297572 -7.02729707 -2.21229723 0 0 Z M-18.375 12.9375 C-18.83831437 18.81396031 -18.83831437 18.81396031 -16.375 23.9375 C-10.9209332 25.39911143 -5.50326833 25.43588714 -0.375 22.9375 C1.13434217 19.91881566 0.80010672 17.26452771 0.625 13.9375 C-0.98694766 10.91153736 -0.98694766 10.91153736 -3.0625 10.25 C-8.21653672 9.55350855 -14.36736217 8.92986217 -18.375 12.9375 Z " fill="#D12429" transform="translate(27.375,1.0625)"/>
<path d="M0 0 C2.475 0.495 2.475 0.495 5 1 C5 1.99 5 2.98 5 4 C3.35 4.33 1.7 4.66 0 5 C0 3.35 0 1.7 0 0 Z " fill="#D22429" transform="translate(16,16)"/>
</svg>
