<?xml version="1.0" encoding="UTF-8"?>
<svg version="1.1" xmlns="http://www.w3.org/2000/svg" width="48" height="48">
<path d="M0 0 C0.80232056 -0.00241196 1.60464111 -0.00482391 2.43127441 -0.00730896 C4.12236489 -0.00633237 5.81348807 0.00701667 7.50439453 0.03198242 C10.08607073 0.06630416 12.6643234 0.05263157 15.24609375 0.03320312 C16.89324367 0.04010196 18.54038479 0.0497747 20.1875 0.0625 C20.95533813 0.05754013 21.72317627 0.05258026 22.51428223 0.04747009 C27.48642674 0.15618995 30.11272626 1.05818691 33.59375 4.62890625 C35.18332359 7.80805342 34.79908722 11.24875007 34.83203125 14.7421875 C34.840103 15.5487529 34.84817474 16.3553183 34.85649109 17.18632507 C34.87033143 18.89527232 34.88105382 20.60424721 34.88891602 22.31323242 C34.90611506 24.92094655 34.94999794 27.52738812 34.99414062 30.13476562 C35.00426897 31.7955636 35.01278463 33.45637235 35.01953125 35.1171875 C35.03703934 35.8944368 35.05454742 36.6716861 35.07258606 37.4724884 C35.05864148 40.97075464 34.67249715 43.46794534 33.12963867 46.62158203 C29.39736035 49.57592808 26.2321117 49.33086958 21.59375 49.2578125 C20.72105469 49.26022446 19.84835938 49.26263641 18.94921875 49.26512146 C17.10672454 49.26414329 15.26420084 49.2507568 13.421875 49.22583008 C10.60315016 49.19152067 7.78756063 49.205171 4.96875 49.22460938 C3.17707 49.21771075 1.38539809 49.20803821 -0.40625 49.1953125 C-1.24800781 49.20027237 -2.08976563 49.20523224 -2.95703125 49.21034241 C-6.54423358 49.13821583 -8.80552756 48.98280495 -11.93334961 47.14013672 C-14.07503801 43.48865207 -13.99766013 40.00022782 -13.97265625 35.8828125 C-13.97885483 35.03468491 -13.98505341 34.18655731 -13.99143982 33.31272888 C-13.99853375 31.52156724 -13.99537135 29.73033961 -13.98266602 27.93920898 C-13.96881214 25.20367553 -14.00285859 22.47157203 -14.04101562 19.73632812 C-14.04196699 17.99348875 -14.04010704 16.2506451 -14.03515625 14.5078125 C-14.04841446 13.69308975 -14.06167267 12.878367 -14.07533264 12.03895569 C-14.00925318 7.99228534 -13.69233328 6.05728553 -11.39233398 2.61328125 C-7.57477014 0.07635386 -4.43738915 -0.0766201 0 0 Z M-5.40625 15.62890625 C-6.07116483 18.53675761 -6.07116483 18.53675761 -6.21875 21.87890625 C-6.30769531 22.9978125 -6.39664062 24.11671875 -6.48828125 25.26953125 C-6.3981423 28.96093599 -6.1581804 31.36115468 -4.40625 34.62890625 C0.39913661 36.70450022 4.90807445 36.87533438 10.09375 36.81640625 C11.3415625 36.80996094 12.589375 36.80351563 13.875 36.796875 C17.5645561 36.63022488 20.9930795 36.4711423 24.59375 35.62890625 C27.30028476 32.51863426 26.92671026 28.59745764 26.96875 24.62890625 C27.01128906 22.80359375 27.01128906 22.80359375 27.0546875 20.94140625 C26.50106492 16.96283043 25.71128725 16.06559453 22.59375 13.62890625 C19.84904646 13.04927978 19.84904646 13.04927978 16.83984375 13.16796875 C15.73833984 13.17183594 14.63683594 13.17570313 13.50195312 13.1796875 C12.35662109 13.20417969 11.21128906 13.22867187 10.03125 13.25390625 C8.88205078 13.25519531 7.73285156 13.25648437 6.54882812 13.2578125 C0.20692264 13.11568874 0.20692264 13.11568874 -5.40625 15.62890625 Z " fill="#fff" transform="translate(13.40625,-0.62890625)"/>
<path d="M0 0 C4.43090471 1.20842856 6.98112756 2.51668565 10 6 C5.05 8.475 5.05 8.475 0 11 C0 7.37 0 3.74 0 0 Z " fill="#fff" transform="translate(20,19)"/>
</svg>
