<svg width="20" height="20" viewBox="0 0 20 20" fill="none" xmlns="http://www.w3.org/2000/svg">
<path d="M19.9999 9.99999C19.9999 4.47717 15.5228 3.05176e-05 9.99996 3.05176e-05C4.47714 3.05176e-05 0 4.47717 0 9.99999C0 15.5228 4.47714 20 9.99996 20C15.5228 20 19.9999 15.5228 19.9999 9.99999Z" fill="#D2252A"/>
<path d="M14.7973 7.85508C14.7359 7.62847 14.6153 7.42179 14.4478 7.25571C14.2802 7.08963 14.0714 6.96997 13.8424 6.90871C12.9938 6.67829 9.59865 6.67453 9.59865 6.67453C9.59865 6.67453 6.20407 6.67078 5.35488 6.89103C5.12615 6.95542 4.918 7.07686 4.75041 7.24371C4.58282 7.41056 4.46142 7.61722 4.39786 7.84383C4.17404 8.68302 4.17188 10.4236 4.17188 10.4236C4.17188 10.4236 4.16971 12.1727 4.39189 13.0033C4.51654 13.4626 4.88233 13.8254 5.3473 13.9491C6.20461 14.1796 9.59052 14.1833 9.59052 14.1833C9.59052 14.1833 12.9856 14.1871 13.8343 13.9674C14.0631 13.9057 14.2718 13.7861 14.4397 13.6205C14.6076 13.4548 14.729 13.2488 14.7919 13.0226C15.0162 12.1839 15.0178 10.4439 15.0178 10.4439C15.0178 10.4439 15.0287 8.69428 14.7973 7.85508ZM8.51265 12.036L8.51536 8.82075L11.3371 10.4311L8.51265 12.036Z" fill="white"/>
</svg>
