<svg width="25" height="24" viewBox="0 0 25 24" fill="none" xmlns="http://www.w3.org/2000/svg">
<path fill-rule="evenodd" clip-rule="evenodd" d="M24.2539 12C24.2539 18.6274 18.8813 24 12.2539 24C5.62649 24 0.253906 18.6274 0.253906 12C0.253906 5.37258 5.62649 0 12.2539 0C18.8813 0 24.2539 5.37258 24.2539 12ZM19.1352 8.02764C19.0531 7.70838 18.8859 7.41586 18.6506 7.17963C18.4153 6.9434 18.1201 6.77182 17.7949 6.68223C16.6066 6.39969 11.8533 6.39969 11.8533 6.39969C11.8533 6.39969 7.10014 6.39969 5.91184 6.70914C5.58661 6.79873 5.29142 6.97031 5.05609 7.20654C4.82075 7.44277 4.65361 7.73529 4.57154 8.05454C4.35407 9.22879 4.24769 10.42 4.25374 11.6131C4.24599 12.8153 4.35238 14.0156 4.57154 15.1987C4.66202 15.508 4.83291 15.7894 5.06769 16.0156C5.30248 16.2419 5.59322 16.4054 5.91184 16.4902C7.10014 16.7997 11.8533 16.7997 11.8533 16.7997C11.8533 16.7997 16.6066 16.7997 17.7949 16.4902C18.1201 16.4007 18.4153 16.2291 18.6506 15.9928C18.8859 15.7566 19.0531 15.4641 19.1352 15.1448C19.351 13.9794 19.4573 12.7973 19.453 11.6131C19.4607 10.411 19.3543 9.21072 19.1352 8.02764Z" fill="#222222"/>
<path d="M10.6533 14.0002L14.6533 11.6002L10.6533 9.2002V14.0002Z" fill="#222222"/>
</svg>
