<svg width="321" height="183" viewBox="0 0 321 183" fill="none" xmlns="http://www.w3.org/2000/svg">
<mask id="mask0_4427_51201" style="mask-type:alpha" maskUnits="userSpaceOnUse" x="0" y="0" width="321" height="183">
<path d="M0.03125 4.26831C0.03125 2.05917 1.82211 0.268311 4.03125 0.268311H316.031C318.24 0.268311 320.031 2.05917 320.031 4.26831V140.611C320.031 141.672 319.61 142.69 318.86 143.44L281.203 181.097C280.453 181.847 279.435 182.268 278.374 182.268H4.03124C1.8221 182.268 0.03125 180.477 0.03125 178.268V4.26831Z" fill="#222222"/>
</mask>
<g mask="url(#mask0_4427_51201)">
<path d="M211.5 276.655L173.367 194.03C172.566 192.294 170.985 191.043 169.111 190.664L145.568 185.895C144.797 185.739 144.089 185.359 143.533 184.803L62.2573 103.527C61.6931 102.962 61.3105 102.242 61.1587 101.459L56.668 78.2814C56.3002 76.3831 55.0401 74.7784 53.2832 73.9709L-29.0022 36.1528" stroke="white" stroke-opacity="0.5"/>
<path d="M347.781 140.371L309.649 57.746C308.847 56.0097 307.266 54.7593 305.392 54.3797L281.849 49.6106C281.078 49.4545 280.371 49.0747 279.815 48.5187L198.539 -32.7575C197.974 -33.3217 197.592 -34.0418 197.44 -34.8251L192.949 -58.0028C192.581 -59.9011 191.321 -61.5058 189.564 -62.3133L107.279 -100.131" stroke="white" stroke-opacity="0.5"/>
<path d="M143.359 344.798L105.227 262.173C104.426 260.436 102.844 259.186 100.97 258.806L77.4271 254.037C76.6564 253.881 75.9489 253.501 75.3928 252.945L-5.88337 171.669C-6.44757 171.105 -6.83015 170.385 -6.98192 169.602L-11.4726 146.424C-11.8404 144.526 -13.1005 142.921 -14.8574 142.114L-97.1428 104.295" stroke="white" stroke-opacity="0.5"/>
<path d="M279.641 208.513L241.508 125.889C240.707 124.152 239.126 122.902 237.251 122.522L213.708 117.753C212.938 117.597 212.23 117.217 211.674 116.661L130.398 35.385C129.834 34.8208 129.451 34.1008 129.299 33.3175L124.809 10.1398C124.441 8.24151 123.181 6.6368 121.424 5.82932L39.1384 -31.9888" stroke="white" stroke-opacity="0.5"/>
<path d="M245.57 242.584L207.438 159.959C206.636 158.223 205.055 156.972 203.181 156.593L179.638 151.824C178.867 151.667 178.16 151.288 177.604 150.732L96.3276 69.4553C95.7634 68.8911 95.3808 68.1711 95.229 67.3878L90.7383 44.2101C90.3705 42.3118 89.1104 40.7071 87.3535 39.8996L5.06813 2.08152" stroke="white" stroke-opacity="0.5"/>
<path d="M381.852 106.3L343.719 23.6747C342.918 21.9384 341.337 20.688 339.462 20.3084L315.919 15.5393C315.149 15.3832 314.441 15.0034 313.885 14.4474L232.609 -66.8288C232.045 -67.393 231.662 -68.1131 231.51 -68.8964L227.02 -92.074C226.652 -93.9724 225.392 -95.5771 223.635 -96.3845L141.349 -134.203" stroke="white" stroke-opacity="0.5"/>
<path d="M177.43 310.726L139.297 228.101C138.496 226.365 136.915 225.115 135.041 224.735L111.497 219.966C110.727 219.81 110.019 219.43 109.463 218.874L28.1869 137.598C27.6227 137.034 27.2402 136.314 27.0884 135.53L22.5977 112.353C22.2299 110.454 20.9698 108.85 19.2129 108.042L-63.0725 70.2241" stroke="white" stroke-opacity="0.5"/>
<path d="M313.711 174.442L275.578 91.8173C274.777 90.0809 273.196 88.8306 271.322 88.4509L247.779 83.6819C247.008 83.5258 246.3 83.146 245.744 82.59L164.468 1.31375C163.904 0.749547 163.521 0.0295048 163.37 -0.753827L158.879 -23.9315C158.511 -25.8298 157.251 -27.4345 155.494 -28.242L73.2088 -66.0601" stroke="white" stroke-opacity="0.5"/>
<path d="M222.852 265.299L184.719 182.674C183.918 180.937 182.337 179.687 180.462 179.307L156.919 174.538C156.149 174.382 155.441 174.002 154.885 173.446L73.6088 92.1702C73.0446 91.606 72.662 90.886 72.5103 90.1026L68.0196 66.925C67.6518 65.0267 66.3917 63.422 64.6348 62.6145L-17.6506 24.7964" stroke="white" stroke-opacity="0.5"/>
<path d="M359.141 129.013L321.008 46.3886C320.207 44.6522 318.626 43.4019 316.751 43.0222L293.208 38.2532C292.438 38.0971 291.73 37.7173 291.174 37.1613L209.898 -44.115C209.334 -44.6792 208.951 -45.3992 208.799 -46.1825L204.309 -69.3602C203.941 -71.2585 202.681 -72.8632 200.924 -73.6707L118.638 -111.489" stroke="white" stroke-opacity="0.5"/>
<path d="M154.711 333.44L116.578 250.815C115.777 249.079 114.196 247.829 112.322 247.449L88.7787 242.68C88.008 242.524 87.3004 242.144 86.7444 241.588L5.46819 160.312C4.90399 159.748 4.52142 159.028 4.36964 158.244L-0.121035 135.067C-0.488833 133.168 -1.74894 131.564 -3.50587 130.756L-85.7912 92.938" stroke="white" stroke-opacity="0.5"/>
<path d="M291 197.156L252.867 114.531C252.066 112.795 250.485 111.544 248.611 111.165L225.068 106.396C224.297 106.24 223.589 105.86 223.033 105.304L141.757 24.0276C141.193 23.4634 140.81 22.7434 140.659 21.96L136.168 -1.2176C135.8 -3.11591 134.54 -4.72062 132.783 -5.5281L50.4978 -43.3462" stroke="white" stroke-opacity="0.5"/>
<path d="M256.93 231.227L218.797 148.602C217.996 146.866 216.415 145.616 214.541 145.236L190.997 140.467C190.227 140.311 189.519 139.931 188.963 139.375L107.687 58.0989C107.123 57.5347 106.74 56.8147 106.588 56.0313L102.098 32.8537C101.73 30.9554 100.47 29.3507 98.7129 28.5432L16.4275 -9.27493" stroke="white" stroke-opacity="0.5"/>
<path d="M393.211 94.9421L355.078 12.3173C354.277 10.5809 352.696 9.3306 350.822 8.95094L327.279 4.18192C326.508 4.02581 325.8 3.646 325.244 3.08997L243.968 -78.1863C243.404 -78.7505 243.021 -79.4705 242.87 -80.2538L238.379 -103.431C238.011 -105.33 236.751 -106.934 234.994 -107.742L152.709 -145.56" stroke="white" stroke-opacity="0.5"/>
<path d="M188.781 299.369L150.649 216.744C149.847 215.008 148.266 213.757 146.392 213.378L122.849 208.609C122.078 208.453 121.371 208.073 120.815 207.517L39.5385 126.241C38.9743 125.676 38.5917 124.956 38.44 124.173L33.9493 100.995C33.5815 99.097 32.3214 97.4923 30.5644 96.6848L-51.7209 58.8667" stroke="white" stroke-opacity="0.5"/>
<path d="M325.07 163.085L286.938 80.4598C286.136 78.7235 284.555 77.4732 282.681 77.0935L259.138 72.3245C258.367 72.1684 257.66 71.7886 257.104 71.2325L175.828 -10.0437C175.263 -10.6079 174.881 -11.3279 174.729 -12.1112L170.238 -35.2889C169.871 -37.1872 168.61 -38.7919 166.854 -39.5994L84.5681 -77.4175" stroke="white" stroke-opacity="0.5"/>
<path d="M234.211 253.941L196.078 171.316C195.277 169.58 193.696 168.33 191.822 167.95L168.279 163.181C167.508 163.025 166.8 162.645 166.244 162.089L84.9682 80.8128C84.404 80.2486 84.0214 79.5285 83.8696 78.7452L79.379 55.5676C79.0112 53.6692 77.7511 52.0645 75.9941 51.2571L-6.29125 13.4389" stroke="white" stroke-opacity="0.5"/>
<path d="M370.5 117.657L332.367 35.0321C331.566 33.2958 329.985 32.0454 328.111 31.6658L304.568 26.8968C303.797 26.7406 303.089 26.3608 302.533 25.8048L221.257 -55.4714C220.693 -56.0356 220.31 -56.7557 220.159 -57.539L215.668 -80.7166C215.3 -82.6149 214.04 -84.2196 212.283 -85.0271L129.998 -122.845" stroke="white" stroke-opacity="0.5"/>
<path d="M166.07 322.084L127.938 239.459C127.136 237.723 125.555 236.472 123.681 236.093L100.138 231.324C99.3674 231.167 98.6598 230.788 98.1038 230.232L16.8276 148.955C16.2634 148.391 15.8808 147.671 15.729 146.888L11.2383 123.71C10.8705 121.812 9.61044 120.207 7.8535 119.4L-74.4319 81.5815" stroke="white" stroke-opacity="0.5"/>
<path d="M302.352 185.799L264.219 103.174C263.418 101.437 261.837 100.187 259.962 99.8074L236.419 95.0384C235.649 94.8823 234.941 94.5024 234.385 93.9464L153.109 12.6702C152.545 12.106 152.162 11.386 152.01 10.6026L147.52 -12.575C147.152 -14.4733 145.892 -16.078 144.135 -16.8855L61.8494 -54.7036" stroke="white" stroke-opacity="0.5"/>
<path d="M268.281 219.87L230.149 137.245C229.347 135.509 227.766 134.258 225.892 133.879L202.349 129.11C201.578 128.954 200.871 128.574 200.315 128.018L119.039 46.7415C118.474 46.1773 118.092 45.4572 117.94 44.6739L113.449 21.4963C113.081 19.598 111.821 17.9932 110.064 17.1858L27.7791 -20.6324" stroke="white" stroke-opacity="0.5"/>
<path d="M404.57 83.5857L366.438 0.960826C365.636 -0.775498 364.055 -2.02584 362.181 -2.4055L338.638 -7.17452C337.867 -7.33064 337.16 -7.71045 336.604 -8.26647L255.328 -89.5427C254.763 -90.1069 254.381 -90.8269 254.229 -91.6103L249.738 -114.788C249.371 -116.686 248.11 -118.291 246.354 -119.098L164.068 -156.917" stroke="white" stroke-opacity="0.5"/>
<path d="M200.141 288.012L162.008 205.388C161.207 203.651 159.626 202.401 157.751 202.021L134.208 197.252C133.438 197.096 132.73 196.716 132.174 196.16L50.8979 114.884C50.3337 114.32 49.9511 113.6 49.7993 112.816L45.3087 89.6388C44.9409 87.7405 43.6807 86.1358 41.9238 85.3283L-40.3616 47.5102" stroke="white" stroke-opacity="0.5"/>
<path d="M336.43 151.727L298.297 69.1024C297.496 67.3661 295.915 66.1158 294.041 65.7361L270.497 60.9671C269.727 60.811 269.019 60.4312 268.463 59.8751L187.187 -21.4011C186.623 -21.9653 186.24 -22.6853 186.088 -23.4687L181.598 -46.6463C181.23 -48.5446 179.97 -50.1493 178.213 -50.9568L95.9275 -88.7749" stroke="white" stroke-opacity="0.5"/>
</g>
</svg>
