<svg width="31" height="31" viewBox="0 0 31 31" fill="none" xmlns="http://www.w3.org/2000/svg">
<path d="M15.7266 6.76016V4.66016M15.7266 25.6602V23.5602M24.1266 15.1602H26.2266M5.22656 15.1602H7.32656M15.7266 7.60016C14.2313 7.60016 12.7697 8.04354 11.5265 8.87425C10.2832 9.70495 9.31423 10.8857 8.74203 12.2671C8.16983 13.6485 8.02012 15.1685 8.31183 16.635C8.60353 18.1015 9.32355 19.4486 10.3808 20.5059C11.4381 21.5632 12.7852 22.2832 14.2517 22.5749C15.7182 22.8666 17.2382 22.7169 18.6196 22.1447C20.0011 21.5725 21.1818 20.6035 22.0125 19.3603C22.8432 18.117 23.2866 16.6554 23.2866 15.1602C23.2866 13.1551 22.4901 11.2322 21.0723 9.81443C19.6545 8.39665 17.7316 7.60016 15.7266 7.60016Z" stroke="#FF5310" stroke-width="1.5" stroke-linecap="round" stroke-linejoin="round"/>
</svg>
