<svg width="53" height="54" viewBox="0 0 53 54" fill="none" xmlns="http://www.w3.org/2000/svg">
<rect x="0.25" y="0.818359" width="52.3636" height="52.3636" rx="5.12" fill="#222222"/>
<path d="M36.7639 18.8184C36.7639 18.2879 36.5532 17.7792 36.1781 17.4041C35.803 17.0291 35.2943 16.8184 34.7639 16.8184H23.4492C22.9188 16.8184 22.4101 17.0291 22.035 17.4041C21.6599 17.7792 21.4492 18.2879 21.4492 18.8184C21.4492 19.3488 21.6599 19.8575 22.035 20.2326C22.4101 20.6076 22.9188 20.8184 23.4492 20.8184H29.9345L18.2652 32.4877C17.9007 32.8647 17.6989 33.3698 17.7032 33.8942C17.7075 34.4186 17.9176 34.9204 18.2882 35.2914C18.6589 35.6623 19.1604 35.8729 19.6848 35.8777C20.2092 35.8825 20.7145 35.6812 21.0919 35.317L32.7639 23.645V30.133C32.7639 30.6635 32.9746 31.1722 33.3497 31.5472C33.7247 31.9223 34.2334 32.133 34.7639 32.133C35.2943 32.133 35.803 31.9223 36.1781 31.5472C36.5532 31.1722 36.7639 30.6635 36.7639 30.133V18.8157V18.8184Z" fill="#FF5310"/>
</svg>
